M48
; DRILL file {KiCad (5.1.6-0-10_14)} date Wednesday, September 02, 2020 at 05:46:46 PM
; FORMAT={-:-/ absolute / inch / decimal}
; #@! TF.CreationDate,2020-09-02T17:46:46+08:00
; #@! TF.GenerationSoftware,Kicad,Pcbnew,(5.1.6-0-10_14)
; #@! TF.FileFunction,NonPlated,1,2,NPTH
FMAT,2
INCH
T1C0.0669
T2C0.0670
T3C0.0866
T4C0.1350
T5C0.1575
%
G90
G05
T1
X4.6583Y-4.8681
X5.0583Y-4.8681
X4.6583Y-2.6181
X5.0583Y-2.6181
X5.4083Y-3.3681
X5.8083Y-3.3681
X3.9083Y-4.1181
X4.3083Y-4.1181
X5.4083Y-2.6181
X5.8083Y-2.6181
X6.1583Y-2.6181
X6.5583Y-2.6181
X3.1583Y-4.1181
X3.5583Y-4.1181
X3.9083Y-4.8681
X4.3083Y-4.8681
X5.4083Y-4.1181
X5.8083Y-4.1181
X5.4083Y-4.8681
X5.8083Y-4.8681
X6.1583Y-4.1181
X6.5583Y-4.1181
X3.1583Y-3.3681
X3.5583Y-3.3681
X6.1583Y-4.8681
X6.5583Y-4.8681
X3.1583Y-4.8681
X3.5583Y-4.8681
X6.1583Y-3.3681
X6.5583Y-3.3681
X3.9083Y-3.3681
X4.3083Y-3.3681
X3.9083Y-2.6181
X4.3083Y-2.6181
X4.6583Y-4.1181
X5.0583Y-4.1181
X3.1583Y-2.6181
X3.5583Y-2.6181
X4.6583Y-3.3681
X5.0583Y-3.3681
T2
X5.3917Y-5.6181
X5.8248Y-5.6181
X6.2441Y-5.6721
X6.6624Y-5.7842
X4.5541Y-5.7842
X4.9724Y-5.6721
T3
X3.7333Y-2.9931
X3.7333Y-5.2431
X5.9833Y-2.9931
X5.9833Y-5.2431
T4
X5.6083Y-5.6181
X6.4533Y-5.7281
X4.7633Y-5.7281
T5
X5.6083Y-4.8681
X6.3583Y-4.1181
X3.3583Y-3.3681
X6.3583Y-4.8681
X3.3583Y-4.8681
X6.3583Y-3.3681
X4.1083Y-3.3681
X4.1083Y-2.6181
X4.8583Y-4.1181
X3.3583Y-2.6181
X4.8583Y-3.3681
X4.8583Y-4.8681
X4.8583Y-2.6181
X5.6083Y-3.3681
X4.1083Y-4.1181
X5.6083Y-2.6181
X6.3583Y-2.6181
X3.3583Y-4.1181
X4.1083Y-4.8681
X5.6083Y-4.1181
T0
M30
