%TF.GenerationSoftware,KiCad,Pcbnew,(5.1.6-0-10_14)*%
%TF.CreationDate,2020-09-02T17:46:37+08:00*%
%TF.ProjectId,EngineerPad,456e6769-6e65-4657-9250-61642e6b6963,v0.3*%
%TF.SameCoordinates,Original*%
%TF.FileFunction,Legend,Top*%
%TF.FilePolarity,Positive*%
%FSLAX46Y46*%
G04 Gerber Fmt 4.6, Leading zero omitted, Abs format (unit mm)*
G04 Created by KiCad (PCBNEW (5.1.6-0-10_14)) date 2020-09-02 17:46:37*
%MOMM*%
%LPD*%
G01*
G04 APERTURE LIST*
%ADD10C,0.150000*%
%ADD11C,0.120000*%
G04 APERTURE END LIST*
D10*
X176764761Y-61237380D02*
X176764761Y-62046904D01*
X176812380Y-62142142D01*
X176860000Y-62189761D01*
X176955238Y-62237380D01*
X177145714Y-62237380D01*
X177240952Y-62189761D01*
X177288571Y-62142142D01*
X177336190Y-62046904D01*
X177336190Y-61237380D01*
X177764761Y-62189761D02*
X177907619Y-62237380D01*
X178145714Y-62237380D01*
X178240952Y-62189761D01*
X178288571Y-62142142D01*
X178336190Y-62046904D01*
X178336190Y-61951666D01*
X178288571Y-61856428D01*
X178240952Y-61808809D01*
X178145714Y-61761190D01*
X177955238Y-61713571D01*
X177860000Y-61665952D01*
X177812380Y-61618333D01*
X177764761Y-61523095D01*
X177764761Y-61427857D01*
X177812380Y-61332619D01*
X177860000Y-61285000D01*
X177955238Y-61237380D01*
X178193333Y-61237380D01*
X178336190Y-61285000D01*
X179098095Y-61713571D02*
X179240952Y-61761190D01*
X179288571Y-61808809D01*
X179336190Y-61904047D01*
X179336190Y-62046904D01*
X179288571Y-62142142D01*
X179240952Y-62189761D01*
X179145714Y-62237380D01*
X178764761Y-62237380D01*
X178764761Y-61237380D01*
X179098095Y-61237380D01*
X179193333Y-61285000D01*
X179240952Y-61332619D01*
X179288571Y-61427857D01*
X179288571Y-61523095D01*
X179240952Y-61618333D01*
X179193333Y-61665952D01*
X179098095Y-61713571D01*
X178764761Y-61713571D01*
X180383809Y-61237380D02*
X180955238Y-61237380D01*
X180669523Y-62237380D02*
X180669523Y-61237380D01*
X181193333Y-61570714D02*
X181431428Y-62237380D01*
X181669523Y-61570714D02*
X181431428Y-62237380D01*
X181336190Y-62475476D01*
X181288571Y-62523095D01*
X181193333Y-62570714D01*
X182050476Y-61570714D02*
X182050476Y-62570714D01*
X182050476Y-61618333D02*
X182145714Y-61570714D01*
X182336190Y-61570714D01*
X182431428Y-61618333D01*
X182479047Y-61665952D01*
X182526666Y-61761190D01*
X182526666Y-62046904D01*
X182479047Y-62142142D01*
X182431428Y-62189761D01*
X182336190Y-62237380D01*
X182145714Y-62237380D01*
X182050476Y-62189761D01*
X183336190Y-62189761D02*
X183240952Y-62237380D01*
X183050476Y-62237380D01*
X182955238Y-62189761D01*
X182907619Y-62094523D01*
X182907619Y-61713571D01*
X182955238Y-61618333D01*
X183050476Y-61570714D01*
X183240952Y-61570714D01*
X183336190Y-61618333D01*
X183383809Y-61713571D01*
X183383809Y-61808809D01*
X182907619Y-61904047D01*
X184526666Y-61951666D02*
X185002857Y-61951666D01*
X184431428Y-62237380D02*
X184764761Y-61237380D01*
X185098095Y-62237380D01*
X177574285Y-63887380D02*
X177240952Y-63411190D01*
X177002857Y-63887380D02*
X177002857Y-62887380D01*
X177383809Y-62887380D01*
X177479047Y-62935000D01*
X177526666Y-62982619D01*
X177574285Y-63077857D01*
X177574285Y-63220714D01*
X177526666Y-63315952D01*
X177479047Y-63363571D01*
X177383809Y-63411190D01*
X177002857Y-63411190D01*
X178383809Y-63839761D02*
X178288571Y-63887380D01*
X178098095Y-63887380D01*
X178002857Y-63839761D01*
X177955238Y-63744523D01*
X177955238Y-63363571D01*
X178002857Y-63268333D01*
X178098095Y-63220714D01*
X178288571Y-63220714D01*
X178383809Y-63268333D01*
X178431428Y-63363571D01*
X178431428Y-63458809D01*
X177955238Y-63554047D01*
X179288571Y-63839761D02*
X179193333Y-63887380D01*
X179002857Y-63887380D01*
X178907619Y-63839761D01*
X178860000Y-63792142D01*
X178812380Y-63696904D01*
X178812380Y-63411190D01*
X178860000Y-63315952D01*
X178907619Y-63268333D01*
X179002857Y-63220714D01*
X179193333Y-63220714D01*
X179288571Y-63268333D01*
X180098095Y-63839761D02*
X180002857Y-63887380D01*
X179812380Y-63887380D01*
X179717142Y-63839761D01*
X179669523Y-63744523D01*
X179669523Y-63363571D01*
X179717142Y-63268333D01*
X179812380Y-63220714D01*
X180002857Y-63220714D01*
X180098095Y-63268333D01*
X180145714Y-63363571D01*
X180145714Y-63458809D01*
X179669523Y-63554047D01*
X180574285Y-63220714D02*
X180574285Y-64220714D01*
X180574285Y-63268333D02*
X180669523Y-63220714D01*
X180860000Y-63220714D01*
X180955238Y-63268333D01*
X181002857Y-63315952D01*
X181050476Y-63411190D01*
X181050476Y-63696904D01*
X181002857Y-63792142D01*
X180955238Y-63839761D01*
X180860000Y-63887380D01*
X180669523Y-63887380D01*
X180574285Y-63839761D01*
X181336190Y-63220714D02*
X181717142Y-63220714D01*
X181479047Y-62887380D02*
X181479047Y-63744523D01*
X181526666Y-63839761D01*
X181621904Y-63887380D01*
X181717142Y-63887380D01*
X182479047Y-63887380D02*
X182479047Y-63363571D01*
X182431428Y-63268333D01*
X182336190Y-63220714D01*
X182145714Y-63220714D01*
X182050476Y-63268333D01*
X182479047Y-63839761D02*
X182383809Y-63887380D01*
X182145714Y-63887380D01*
X182050476Y-63839761D01*
X182002857Y-63744523D01*
X182002857Y-63649285D01*
X182050476Y-63554047D01*
X182145714Y-63506428D01*
X182383809Y-63506428D01*
X182479047Y-63458809D01*
X183383809Y-63839761D02*
X183288571Y-63887380D01*
X183098095Y-63887380D01*
X183002857Y-63839761D01*
X182955238Y-63792142D01*
X182907619Y-63696904D01*
X182907619Y-63411190D01*
X182955238Y-63315952D01*
X183002857Y-63268333D01*
X183098095Y-63220714D01*
X183288571Y-63220714D01*
X183383809Y-63268333D01*
X183955238Y-63887380D02*
X183860000Y-63839761D01*
X183812380Y-63744523D01*
X183812380Y-62887380D01*
X184717142Y-63839761D02*
X184621904Y-63887380D01*
X184431428Y-63887380D01*
X184336190Y-63839761D01*
X184288571Y-63744523D01*
X184288571Y-63363571D01*
X184336190Y-63268333D01*
X184431428Y-63220714D01*
X184621904Y-63220714D01*
X184717142Y-63268333D01*
X184764761Y-63363571D01*
X184764761Y-63458809D01*
X184288571Y-63554047D01*
X184696514Y-106917571D02*
X184734609Y-106955666D01*
X184772704Y-107069952D01*
X184772704Y-107146142D01*
X184734609Y-107260428D01*
X184658419Y-107336619D01*
X184582228Y-107374714D01*
X184429847Y-107412809D01*
X184315561Y-107412809D01*
X184163180Y-107374714D01*
X184086990Y-107336619D01*
X184010800Y-107260428D01*
X183972704Y-107146142D01*
X183972704Y-107069952D01*
X184010800Y-106955666D01*
X184048895Y-106917571D01*
X184772704Y-106574714D02*
X184239371Y-106574714D01*
X184391752Y-106574714D02*
X184315561Y-106536619D01*
X184277466Y-106498523D01*
X184239371Y-106422333D01*
X184239371Y-106346142D01*
X184239371Y-106155666D02*
X184772704Y-105965190D01*
X184239371Y-105774714D02*
X184772704Y-105965190D01*
X184963180Y-106041380D01*
X185001276Y-106079476D01*
X185039371Y-106155666D01*
X184734609Y-105508047D02*
X184772704Y-105431857D01*
X184772704Y-105279476D01*
X184734609Y-105203285D01*
X184658419Y-105165190D01*
X184620323Y-105165190D01*
X184544133Y-105203285D01*
X184506038Y-105279476D01*
X184506038Y-105393761D01*
X184467942Y-105469952D01*
X184391752Y-105508047D01*
X184353657Y-105508047D01*
X184277466Y-105469952D01*
X184239371Y-105393761D01*
X184239371Y-105279476D01*
X184277466Y-105203285D01*
X184239371Y-104936619D02*
X184239371Y-104631857D01*
X183972704Y-104822333D02*
X184658419Y-104822333D01*
X184734609Y-104784238D01*
X184772704Y-104708047D01*
X184772704Y-104631857D01*
X184772704Y-104022333D02*
X184353657Y-104022333D01*
X184277466Y-104060428D01*
X184239371Y-104136619D01*
X184239371Y-104289000D01*
X184277466Y-104365190D01*
X184734609Y-104022333D02*
X184772704Y-104098523D01*
X184772704Y-104289000D01*
X184734609Y-104365190D01*
X184658419Y-104403285D01*
X184582228Y-104403285D01*
X184506038Y-104365190D01*
X184467942Y-104289000D01*
X184467942Y-104098523D01*
X184429847Y-104022333D01*
X184772704Y-103527095D02*
X184734609Y-103603285D01*
X184658419Y-103641380D01*
X183972704Y-103641380D01*
X172382380Y-82152142D02*
X172382380Y-81485476D01*
X173382380Y-82152142D01*
X173382380Y-81485476D01*
X173334761Y-80723571D02*
X173382380Y-80818809D01*
X173382380Y-81009285D01*
X173334761Y-81104523D01*
X173239523Y-81152142D01*
X172858571Y-81152142D01*
X172763333Y-81104523D01*
X172715714Y-81009285D01*
X172715714Y-80818809D01*
X172763333Y-80723571D01*
X172858571Y-80675952D01*
X172953809Y-80675952D01*
X173049047Y-81152142D01*
X172715714Y-80247380D02*
X173382380Y-80247380D01*
X172810952Y-80247380D02*
X172763333Y-80199761D01*
X172715714Y-80104523D01*
X172715714Y-79961666D01*
X172763333Y-79866428D01*
X172858571Y-79818809D01*
X173382380Y-79818809D01*
X172715714Y-79342619D02*
X173382380Y-79342619D01*
X172810952Y-79342619D02*
X172763333Y-79295000D01*
X172715714Y-79199761D01*
X172715714Y-79056904D01*
X172763333Y-78961666D01*
X172858571Y-78914047D01*
X173382380Y-78914047D01*
X173334761Y-78056904D02*
X173382380Y-78152142D01*
X173382380Y-78342619D01*
X173334761Y-78437857D01*
X173239523Y-78485476D01*
X172858571Y-78485476D01*
X172763333Y-78437857D01*
X172715714Y-78342619D01*
X172715714Y-78152142D01*
X172763333Y-78056904D01*
X172858571Y-78009285D01*
X172953809Y-78009285D01*
X173049047Y-78485476D01*
X173382380Y-77580714D02*
X172715714Y-77580714D01*
X172906190Y-77580714D02*
X172810952Y-77533095D01*
X172763333Y-77485476D01*
X172715714Y-77390238D01*
X172715714Y-77295000D01*
X173382380Y-76199761D02*
X172382380Y-76199761D01*
X172382380Y-75961666D01*
X172430000Y-75818809D01*
X172525238Y-75723571D01*
X172620476Y-75675952D01*
X172810952Y-75628333D01*
X172953809Y-75628333D01*
X173144285Y-75675952D01*
X173239523Y-75723571D01*
X173334761Y-75818809D01*
X173382380Y-75961666D01*
X173382380Y-76199761D01*
X173382380Y-75199761D02*
X172715714Y-75199761D01*
X172382380Y-75199761D02*
X172430000Y-75247380D01*
X172477619Y-75199761D01*
X172430000Y-75152142D01*
X172382380Y-75199761D01*
X172477619Y-75199761D01*
X173382380Y-74580714D02*
X173334761Y-74675952D01*
X173287142Y-74723571D01*
X173191904Y-74771190D01*
X172906190Y-74771190D01*
X172810952Y-74723571D01*
X172763333Y-74675952D01*
X172715714Y-74580714D01*
X172715714Y-74437857D01*
X172763333Y-74342619D01*
X172810952Y-74295000D01*
X172906190Y-74247380D01*
X173191904Y-74247380D01*
X173287142Y-74295000D01*
X173334761Y-74342619D01*
X173382380Y-74437857D01*
X173382380Y-74580714D01*
X173382380Y-73390238D02*
X172382380Y-73390238D01*
X173334761Y-73390238D02*
X173382380Y-73485476D01*
X173382380Y-73675952D01*
X173334761Y-73771190D01*
X173287142Y-73818809D01*
X173191904Y-73866428D01*
X172906190Y-73866428D01*
X172810952Y-73818809D01*
X172763333Y-73771190D01*
X172715714Y-73675952D01*
X172715714Y-73485476D01*
X172763333Y-73390238D01*
X173334761Y-72533095D02*
X173382380Y-72628333D01*
X173382380Y-72818809D01*
X173334761Y-72914047D01*
X173239523Y-72961666D01*
X172858571Y-72961666D01*
X172763333Y-72914047D01*
X172715714Y-72818809D01*
X172715714Y-72628333D01*
X172763333Y-72533095D01*
X172858571Y-72485476D01*
X172953809Y-72485476D01*
X173049047Y-72961666D01*
D11*
%TO.C,J2*%
X183860000Y-70405000D02*
X184860000Y-70405000D01*
X184360000Y-69905000D02*
X183860000Y-70405000D01*
X184860000Y-70405000D02*
X184360000Y-69905000D01*
X173500000Y-67545000D02*
X173500000Y-69525000D01*
X188220000Y-69525000D02*
X188220000Y-67545000D01*
X188220000Y-69525000D02*
X173500000Y-69525000D01*
X173500000Y-63845000D02*
X173500000Y-55305000D01*
X188220000Y-55305000D02*
X173500000Y-55305000D01*
X188220000Y-63845000D02*
X188220000Y-55305000D01*
D10*
%TO.C,SW22*%
X135450000Y-136700000D02*
X135450000Y-135700000D01*
X135450000Y-149700000D02*
X136450000Y-149700000D01*
X136450000Y-135700000D02*
X135450000Y-135700000D01*
X135450000Y-149700000D02*
X135450000Y-148700000D01*
X149450000Y-148700000D02*
X149450000Y-149700000D01*
X149450000Y-135700000D02*
X148450000Y-135700000D01*
X148450000Y-149700000D02*
X149450000Y-149700000D01*
X149450000Y-135700000D02*
X149450000Y-136700000D01*
%TO.C,SW23*%
X158704433Y-137886712D02*
X158963253Y-136920786D01*
X155339786Y-150443747D02*
X156305712Y-150702567D01*
X159929178Y-137179605D02*
X158963253Y-136920786D01*
X155339786Y-150443747D02*
X155598605Y-149477822D01*
X169121567Y-153101288D02*
X168862747Y-154067214D01*
X172486214Y-140544253D02*
X171520288Y-140285433D01*
X167896822Y-153808395D02*
X168862747Y-154067214D01*
X172486214Y-140544253D02*
X172227395Y-141510178D01*
%TO.C,SW21*%
X112672605Y-141510178D02*
X112413786Y-140544253D01*
X116037253Y-154067214D02*
X117003178Y-153808395D01*
X113379712Y-140285433D02*
X112413786Y-140544253D01*
X116037253Y-154067214D02*
X115778433Y-153101288D01*
X129301395Y-149477822D02*
X129560214Y-150443747D01*
X125936747Y-136920786D02*
X124970822Y-137179605D01*
X128594288Y-150702567D02*
X129560214Y-150443747D01*
X125936747Y-136920786D02*
X126195567Y-137886712D01*
D11*
%TO.C,SW20*%
X154515000Y-119840000D02*
X154515000Y-116665000D01*
X157690000Y-130635000D02*
X154515000Y-130635000D01*
X168485000Y-127460000D02*
X168485000Y-130635000D01*
X154515000Y-116665000D02*
X157690000Y-116665000D01*
X165310000Y-116665000D02*
X168485000Y-116665000D01*
X154515000Y-130635000D02*
X154515000Y-127460000D01*
X165310000Y-130635000D02*
X168485000Y-130635000D01*
X168485000Y-119840000D02*
X168485000Y-116665000D01*
%TO.C,SW19*%
X135465000Y-119840000D02*
X135465000Y-116665000D01*
X138640000Y-130635000D02*
X135465000Y-130635000D01*
X149435000Y-127460000D02*
X149435000Y-130635000D01*
X135465000Y-116665000D02*
X138640000Y-116665000D01*
X146260000Y-116665000D02*
X149435000Y-116665000D01*
X135465000Y-130635000D02*
X135465000Y-127460000D01*
X146260000Y-130635000D02*
X149435000Y-130635000D01*
X149435000Y-119840000D02*
X149435000Y-116665000D01*
%TO.C,SW18*%
X116415000Y-119840000D02*
X116415000Y-116665000D01*
X119590000Y-130635000D02*
X116415000Y-130635000D01*
X130385000Y-127460000D02*
X130385000Y-130635000D01*
X116415000Y-116665000D02*
X119590000Y-116665000D01*
X127210000Y-116665000D02*
X130385000Y-116665000D01*
X116415000Y-130635000D02*
X116415000Y-127460000D01*
X127210000Y-130635000D02*
X130385000Y-130635000D01*
X130385000Y-119840000D02*
X130385000Y-116665000D01*
%TO.C,SW17*%
X97365000Y-119840000D02*
X97365000Y-116665000D01*
X100540000Y-130635000D02*
X97365000Y-130635000D01*
X111335000Y-127460000D02*
X111335000Y-130635000D01*
X97365000Y-116665000D02*
X100540000Y-116665000D01*
X108160000Y-116665000D02*
X111335000Y-116665000D01*
X97365000Y-130635000D02*
X97365000Y-127460000D01*
X108160000Y-130635000D02*
X111335000Y-130635000D01*
X111335000Y-119840000D02*
X111335000Y-116665000D01*
%TO.C,SW16*%
X78315000Y-119840000D02*
X78315000Y-116665000D01*
X81490000Y-130635000D02*
X78315000Y-130635000D01*
X92285000Y-127460000D02*
X92285000Y-130635000D01*
X78315000Y-116665000D02*
X81490000Y-116665000D01*
X89110000Y-116665000D02*
X92285000Y-116665000D01*
X78315000Y-130635000D02*
X78315000Y-127460000D01*
X89110000Y-130635000D02*
X92285000Y-130635000D01*
X92285000Y-119840000D02*
X92285000Y-116665000D01*
%TO.C,SW15*%
X154515000Y-100790000D02*
X154515000Y-97615000D01*
X157690000Y-111585000D02*
X154515000Y-111585000D01*
X168485000Y-108410000D02*
X168485000Y-111585000D01*
X154515000Y-97615000D02*
X157690000Y-97615000D01*
X165310000Y-97615000D02*
X168485000Y-97615000D01*
X154515000Y-111585000D02*
X154515000Y-108410000D01*
X165310000Y-111585000D02*
X168485000Y-111585000D01*
X168485000Y-100790000D02*
X168485000Y-97615000D01*
%TO.C,SW14*%
X135465000Y-100790000D02*
X135465000Y-97615000D01*
X138640000Y-111585000D02*
X135465000Y-111585000D01*
X149435000Y-108410000D02*
X149435000Y-111585000D01*
X135465000Y-97615000D02*
X138640000Y-97615000D01*
X146260000Y-97615000D02*
X149435000Y-97615000D01*
X135465000Y-111585000D02*
X135465000Y-108410000D01*
X146260000Y-111585000D02*
X149435000Y-111585000D01*
X149435000Y-100790000D02*
X149435000Y-97615000D01*
%TO.C,SW13*%
X116415000Y-100790000D02*
X116415000Y-97615000D01*
X119590000Y-111585000D02*
X116415000Y-111585000D01*
X130385000Y-108410000D02*
X130385000Y-111585000D01*
X116415000Y-97615000D02*
X119590000Y-97615000D01*
X127210000Y-97615000D02*
X130385000Y-97615000D01*
X116415000Y-111585000D02*
X116415000Y-108410000D01*
X127210000Y-111585000D02*
X130385000Y-111585000D01*
X130385000Y-100790000D02*
X130385000Y-97615000D01*
%TO.C,SW12*%
X97365000Y-100790000D02*
X97365000Y-97615000D01*
X100540000Y-111585000D02*
X97365000Y-111585000D01*
X111335000Y-108410000D02*
X111335000Y-111585000D01*
X97365000Y-97615000D02*
X100540000Y-97615000D01*
X108160000Y-97615000D02*
X111335000Y-97615000D01*
X97365000Y-111585000D02*
X97365000Y-108410000D01*
X108160000Y-111585000D02*
X111335000Y-111585000D01*
X111335000Y-100790000D02*
X111335000Y-97615000D01*
%TO.C,SW11*%
X78315000Y-100790000D02*
X78315000Y-97615000D01*
X81490000Y-111585000D02*
X78315000Y-111585000D01*
X92285000Y-108410000D02*
X92285000Y-111585000D01*
X78315000Y-97615000D02*
X81490000Y-97615000D01*
X89110000Y-97615000D02*
X92285000Y-97615000D01*
X78315000Y-111585000D02*
X78315000Y-108410000D01*
X89110000Y-111585000D02*
X92285000Y-111585000D01*
X92285000Y-100790000D02*
X92285000Y-97615000D01*
%TO.C,SW10*%
X154515000Y-81740000D02*
X154515000Y-78565000D01*
X157690000Y-92535000D02*
X154515000Y-92535000D01*
X168485000Y-89360000D02*
X168485000Y-92535000D01*
X154515000Y-78565000D02*
X157690000Y-78565000D01*
X165310000Y-78565000D02*
X168485000Y-78565000D01*
X154515000Y-92535000D02*
X154515000Y-89360000D01*
X165310000Y-92535000D02*
X168485000Y-92535000D01*
X168485000Y-81740000D02*
X168485000Y-78565000D01*
%TO.C,SW9*%
X135465000Y-81740000D02*
X135465000Y-78565000D01*
X138640000Y-92535000D02*
X135465000Y-92535000D01*
X149435000Y-89360000D02*
X149435000Y-92535000D01*
X135465000Y-78565000D02*
X138640000Y-78565000D01*
X146260000Y-78565000D02*
X149435000Y-78565000D01*
X135465000Y-92535000D02*
X135465000Y-89360000D01*
X146260000Y-92535000D02*
X149435000Y-92535000D01*
X149435000Y-81740000D02*
X149435000Y-78565000D01*
%TO.C,SW8*%
X116415000Y-81740000D02*
X116415000Y-78565000D01*
X119590000Y-92535000D02*
X116415000Y-92535000D01*
X130385000Y-89360000D02*
X130385000Y-92535000D01*
X116415000Y-78565000D02*
X119590000Y-78565000D01*
X127210000Y-78565000D02*
X130385000Y-78565000D01*
X116415000Y-92535000D02*
X116415000Y-89360000D01*
X127210000Y-92535000D02*
X130385000Y-92535000D01*
X130385000Y-81740000D02*
X130385000Y-78565000D01*
%TO.C,SW7*%
X97365000Y-81740000D02*
X97365000Y-78565000D01*
X100540000Y-92535000D02*
X97365000Y-92535000D01*
X111335000Y-89360000D02*
X111335000Y-92535000D01*
X97365000Y-78565000D02*
X100540000Y-78565000D01*
X108160000Y-78565000D02*
X111335000Y-78565000D01*
X97365000Y-92535000D02*
X97365000Y-89360000D01*
X108160000Y-92535000D02*
X111335000Y-92535000D01*
X111335000Y-81740000D02*
X111335000Y-78565000D01*
%TO.C,SW6*%
X78315000Y-81740000D02*
X78315000Y-78565000D01*
X81490000Y-92535000D02*
X78315000Y-92535000D01*
X92285000Y-89360000D02*
X92285000Y-92535000D01*
X78315000Y-78565000D02*
X81490000Y-78565000D01*
X89110000Y-78565000D02*
X92285000Y-78565000D01*
X78315000Y-92535000D02*
X78315000Y-89360000D01*
X89110000Y-92535000D02*
X92285000Y-92535000D01*
X92285000Y-81740000D02*
X92285000Y-78565000D01*
%TO.C,SW5*%
X154515000Y-62690000D02*
X154515000Y-59515000D01*
X157690000Y-73485000D02*
X154515000Y-73485000D01*
X168485000Y-70310000D02*
X168485000Y-73485000D01*
X154515000Y-59515000D02*
X157690000Y-59515000D01*
X165310000Y-59515000D02*
X168485000Y-59515000D01*
X154515000Y-73485000D02*
X154515000Y-70310000D01*
X165310000Y-73485000D02*
X168485000Y-73485000D01*
X168485000Y-62690000D02*
X168485000Y-59515000D01*
%TO.C,SW4*%
X135465000Y-62690000D02*
X135465000Y-59515000D01*
X138640000Y-73485000D02*
X135465000Y-73485000D01*
X149435000Y-70310000D02*
X149435000Y-73485000D01*
X135465000Y-59515000D02*
X138640000Y-59515000D01*
X146260000Y-59515000D02*
X149435000Y-59515000D01*
X135465000Y-73485000D02*
X135465000Y-70310000D01*
X146260000Y-73485000D02*
X149435000Y-73485000D01*
X149435000Y-62690000D02*
X149435000Y-59515000D01*
%TO.C,SW3*%
X116415000Y-62690000D02*
X116415000Y-59515000D01*
X119590000Y-73485000D02*
X116415000Y-73485000D01*
X130385000Y-70310000D02*
X130385000Y-73485000D01*
X116415000Y-59515000D02*
X119590000Y-59515000D01*
X127210000Y-59515000D02*
X130385000Y-59515000D01*
X116415000Y-73485000D02*
X116415000Y-70310000D01*
X127210000Y-73485000D02*
X130385000Y-73485000D01*
X130385000Y-62690000D02*
X130385000Y-59515000D01*
%TO.C,SW2*%
X97365000Y-62690000D02*
X97365000Y-59515000D01*
X100540000Y-73485000D02*
X97365000Y-73485000D01*
X111335000Y-70310000D02*
X111335000Y-73485000D01*
X97365000Y-59515000D02*
X100540000Y-59515000D01*
X108160000Y-59515000D02*
X111335000Y-59515000D01*
X97365000Y-73485000D02*
X97365000Y-70310000D01*
X108160000Y-73485000D02*
X111335000Y-73485000D01*
X111335000Y-62690000D02*
X111335000Y-59515000D01*
%TO.C,SW1*%
X78315000Y-62690000D02*
X78315000Y-59515000D01*
X81490000Y-73485000D02*
X78315000Y-73485000D01*
X92285000Y-70310000D02*
X92285000Y-73485000D01*
X78315000Y-59515000D02*
X81490000Y-59515000D01*
X89110000Y-59515000D02*
X92285000Y-59515000D01*
X78315000Y-73485000D02*
X78315000Y-70310000D01*
X89110000Y-73485000D02*
X92285000Y-73485000D01*
X92285000Y-62690000D02*
X92285000Y-59515000D01*
%TO.C,D23*%
X153095000Y-140580000D02*
X150855000Y-140580000D01*
X150855000Y-140580000D02*
X150855000Y-144820000D01*
X150855000Y-144820000D02*
X153095000Y-144820000D01*
X153095000Y-144820000D02*
X153095000Y-140580000D01*
X151975000Y-139930000D02*
X151975000Y-140580000D01*
X151975000Y-145470000D02*
X151975000Y-144820000D01*
X153095000Y-141300000D02*
X150855000Y-141300000D01*
X153095000Y-141420000D02*
X150855000Y-141420000D01*
X153095000Y-141180000D02*
X150855000Y-141180000D01*
%TO.C,D22*%
X144620000Y-153520000D02*
X144620000Y-151280000D01*
X144620000Y-151280000D02*
X140380000Y-151280000D01*
X140380000Y-151280000D02*
X140380000Y-153520000D01*
X140380000Y-153520000D02*
X144620000Y-153520000D01*
X145270000Y-152400000D02*
X144620000Y-152400000D01*
X139730000Y-152400000D02*
X140380000Y-152400000D01*
X143900000Y-153520000D02*
X143900000Y-151280000D01*
X143780000Y-153520000D02*
X143780000Y-151280000D01*
X144020000Y-153520000D02*
X144020000Y-151280000D01*
%TO.C,D21*%
X134120000Y-140580000D02*
X131880000Y-140580000D01*
X131880000Y-140580000D02*
X131880000Y-144820000D01*
X131880000Y-144820000D02*
X134120000Y-144820000D01*
X134120000Y-144820000D02*
X134120000Y-140580000D01*
X133000000Y-139930000D02*
X133000000Y-140580000D01*
X133000000Y-145470000D02*
X133000000Y-144820000D01*
X134120000Y-141300000D02*
X131880000Y-141300000D01*
X134120000Y-141420000D02*
X131880000Y-141420000D01*
X134120000Y-141180000D02*
X131880000Y-141180000D01*
%TO.C,D20*%
X163620000Y-134295000D02*
X163620000Y-132055000D01*
X163620000Y-132055000D02*
X159380000Y-132055000D01*
X159380000Y-132055000D02*
X159380000Y-134295000D01*
X159380000Y-134295000D02*
X163620000Y-134295000D01*
X164270000Y-133175000D02*
X163620000Y-133175000D01*
X158730000Y-133175000D02*
X159380000Y-133175000D01*
X162900000Y-134295000D02*
X162900000Y-132055000D01*
X162780000Y-134295000D02*
X162780000Y-132055000D01*
X163020000Y-134295000D02*
X163020000Y-132055000D01*
%TO.C,D19*%
X144570000Y-134295000D02*
X144570000Y-132055000D01*
X144570000Y-132055000D02*
X140330000Y-132055000D01*
X140330000Y-132055000D02*
X140330000Y-134295000D01*
X140330000Y-134295000D02*
X144570000Y-134295000D01*
X145220000Y-133175000D02*
X144570000Y-133175000D01*
X139680000Y-133175000D02*
X140330000Y-133175000D01*
X143850000Y-134295000D02*
X143850000Y-132055000D01*
X143730000Y-134295000D02*
X143730000Y-132055000D01*
X143970000Y-134295000D02*
X143970000Y-132055000D01*
%TO.C,D18*%
X125520000Y-134295000D02*
X125520000Y-132055000D01*
X125520000Y-132055000D02*
X121280000Y-132055000D01*
X121280000Y-132055000D02*
X121280000Y-134295000D01*
X121280000Y-134295000D02*
X125520000Y-134295000D01*
X126170000Y-133175000D02*
X125520000Y-133175000D01*
X120630000Y-133175000D02*
X121280000Y-133175000D01*
X124800000Y-134295000D02*
X124800000Y-132055000D01*
X124680000Y-134295000D02*
X124680000Y-132055000D01*
X124920000Y-134295000D02*
X124920000Y-132055000D01*
%TO.C,D17*%
X106470000Y-134295000D02*
X106470000Y-132055000D01*
X106470000Y-132055000D02*
X102230000Y-132055000D01*
X102230000Y-132055000D02*
X102230000Y-134295000D01*
X102230000Y-134295000D02*
X106470000Y-134295000D01*
X107120000Y-133175000D02*
X106470000Y-133175000D01*
X101580000Y-133175000D02*
X102230000Y-133175000D01*
X105750000Y-134295000D02*
X105750000Y-132055000D01*
X105630000Y-134295000D02*
X105630000Y-132055000D01*
X105870000Y-134295000D02*
X105870000Y-132055000D01*
%TO.C,D16*%
X87420000Y-134295000D02*
X87420000Y-132055000D01*
X87420000Y-132055000D02*
X83180000Y-132055000D01*
X83180000Y-132055000D02*
X83180000Y-134295000D01*
X83180000Y-134295000D02*
X87420000Y-134295000D01*
X88070000Y-133175000D02*
X87420000Y-133175000D01*
X82530000Y-133175000D02*
X83180000Y-133175000D01*
X86700000Y-134295000D02*
X86700000Y-132055000D01*
X86580000Y-134295000D02*
X86580000Y-132055000D01*
X86820000Y-134295000D02*
X86820000Y-132055000D01*
%TO.C,D15*%
X163620000Y-115245000D02*
X163620000Y-113005000D01*
X163620000Y-113005000D02*
X159380000Y-113005000D01*
X159380000Y-113005000D02*
X159380000Y-115245000D01*
X159380000Y-115245000D02*
X163620000Y-115245000D01*
X164270000Y-114125000D02*
X163620000Y-114125000D01*
X158730000Y-114125000D02*
X159380000Y-114125000D01*
X162900000Y-115245000D02*
X162900000Y-113005000D01*
X162780000Y-115245000D02*
X162780000Y-113005000D01*
X163020000Y-115245000D02*
X163020000Y-113005000D01*
%TO.C,D14*%
X144570000Y-115245000D02*
X144570000Y-113005000D01*
X144570000Y-113005000D02*
X140330000Y-113005000D01*
X140330000Y-113005000D02*
X140330000Y-115245000D01*
X140330000Y-115245000D02*
X144570000Y-115245000D01*
X145220000Y-114125000D02*
X144570000Y-114125000D01*
X139680000Y-114125000D02*
X140330000Y-114125000D01*
X143850000Y-115245000D02*
X143850000Y-113005000D01*
X143730000Y-115245000D02*
X143730000Y-113005000D01*
X143970000Y-115245000D02*
X143970000Y-113005000D01*
%TO.C,D13*%
X125620000Y-115120000D02*
X125620000Y-112880000D01*
X125620000Y-112880000D02*
X121380000Y-112880000D01*
X121380000Y-112880000D02*
X121380000Y-115120000D01*
X121380000Y-115120000D02*
X125620000Y-115120000D01*
X126270000Y-114000000D02*
X125620000Y-114000000D01*
X120730000Y-114000000D02*
X121380000Y-114000000D01*
X124900000Y-115120000D02*
X124900000Y-112880000D01*
X124780000Y-115120000D02*
X124780000Y-112880000D01*
X125020000Y-115120000D02*
X125020000Y-112880000D01*
%TO.C,D12*%
X106470000Y-115245000D02*
X106470000Y-113005000D01*
X106470000Y-113005000D02*
X102230000Y-113005000D01*
X102230000Y-113005000D02*
X102230000Y-115245000D01*
X102230000Y-115245000D02*
X106470000Y-115245000D01*
X107120000Y-114125000D02*
X106470000Y-114125000D01*
X101580000Y-114125000D02*
X102230000Y-114125000D01*
X105750000Y-115245000D02*
X105750000Y-113005000D01*
X105630000Y-115245000D02*
X105630000Y-113005000D01*
X105870000Y-115245000D02*
X105870000Y-113005000D01*
%TO.C,D11*%
X87420000Y-115245000D02*
X87420000Y-113005000D01*
X87420000Y-113005000D02*
X83180000Y-113005000D01*
X83180000Y-113005000D02*
X83180000Y-115245000D01*
X83180000Y-115245000D02*
X87420000Y-115245000D01*
X88070000Y-114125000D02*
X87420000Y-114125000D01*
X82530000Y-114125000D02*
X83180000Y-114125000D01*
X86700000Y-115245000D02*
X86700000Y-113005000D01*
X86580000Y-115245000D02*
X86580000Y-113005000D01*
X86820000Y-115245000D02*
X86820000Y-113005000D01*
%TO.C,D10*%
X163620000Y-96195000D02*
X163620000Y-93955000D01*
X163620000Y-93955000D02*
X159380000Y-93955000D01*
X159380000Y-93955000D02*
X159380000Y-96195000D01*
X159380000Y-96195000D02*
X163620000Y-96195000D01*
X164270000Y-95075000D02*
X163620000Y-95075000D01*
X158730000Y-95075000D02*
X159380000Y-95075000D01*
X162900000Y-96195000D02*
X162900000Y-93955000D01*
X162780000Y-96195000D02*
X162780000Y-93955000D01*
X163020000Y-96195000D02*
X163020000Y-93955000D01*
%TO.C,D9*%
X144570000Y-96120000D02*
X144570000Y-93880000D01*
X144570000Y-93880000D02*
X140330000Y-93880000D01*
X140330000Y-93880000D02*
X140330000Y-96120000D01*
X140330000Y-96120000D02*
X144570000Y-96120000D01*
X145220000Y-95000000D02*
X144570000Y-95000000D01*
X139680000Y-95000000D02*
X140330000Y-95000000D01*
X143850000Y-96120000D02*
X143850000Y-93880000D01*
X143730000Y-96120000D02*
X143730000Y-93880000D01*
X143970000Y-96120000D02*
X143970000Y-93880000D01*
%TO.C,D8*%
X125520000Y-96195000D02*
X125520000Y-93955000D01*
X125520000Y-93955000D02*
X121280000Y-93955000D01*
X121280000Y-93955000D02*
X121280000Y-96195000D01*
X121280000Y-96195000D02*
X125520000Y-96195000D01*
X126170000Y-95075000D02*
X125520000Y-95075000D01*
X120630000Y-95075000D02*
X121280000Y-95075000D01*
X124800000Y-96195000D02*
X124800000Y-93955000D01*
X124680000Y-96195000D02*
X124680000Y-93955000D01*
X124920000Y-96195000D02*
X124920000Y-93955000D01*
%TO.C,D7*%
X106470000Y-96195000D02*
X106470000Y-93955000D01*
X106470000Y-93955000D02*
X102230000Y-93955000D01*
X102230000Y-93955000D02*
X102230000Y-96195000D01*
X102230000Y-96195000D02*
X106470000Y-96195000D01*
X107120000Y-95075000D02*
X106470000Y-95075000D01*
X101580000Y-95075000D02*
X102230000Y-95075000D01*
X105750000Y-96195000D02*
X105750000Y-93955000D01*
X105630000Y-96195000D02*
X105630000Y-93955000D01*
X105870000Y-96195000D02*
X105870000Y-93955000D01*
%TO.C,D6*%
X87420000Y-96195000D02*
X87420000Y-93955000D01*
X87420000Y-93955000D02*
X83180000Y-93955000D01*
X83180000Y-93955000D02*
X83180000Y-96195000D01*
X83180000Y-96195000D02*
X87420000Y-96195000D01*
X88070000Y-95075000D02*
X87420000Y-95075000D01*
X82530000Y-95075000D02*
X83180000Y-95075000D01*
X86700000Y-96195000D02*
X86700000Y-93955000D01*
X86580000Y-96195000D02*
X86580000Y-93955000D01*
X86820000Y-96195000D02*
X86820000Y-93955000D01*
%TO.C,D5*%
X163620000Y-77145000D02*
X163620000Y-74905000D01*
X163620000Y-74905000D02*
X159380000Y-74905000D01*
X159380000Y-74905000D02*
X159380000Y-77145000D01*
X159380000Y-77145000D02*
X163620000Y-77145000D01*
X164270000Y-76025000D02*
X163620000Y-76025000D01*
X158730000Y-76025000D02*
X159380000Y-76025000D01*
X162900000Y-77145000D02*
X162900000Y-74905000D01*
X162780000Y-77145000D02*
X162780000Y-74905000D01*
X163020000Y-77145000D02*
X163020000Y-74905000D01*
%TO.C,D4*%
X144570000Y-77145000D02*
X144570000Y-74905000D01*
X144570000Y-74905000D02*
X140330000Y-74905000D01*
X140330000Y-74905000D02*
X140330000Y-77145000D01*
X140330000Y-77145000D02*
X144570000Y-77145000D01*
X145220000Y-76025000D02*
X144570000Y-76025000D01*
X139680000Y-76025000D02*
X140330000Y-76025000D01*
X143850000Y-77145000D02*
X143850000Y-74905000D01*
X143730000Y-77145000D02*
X143730000Y-74905000D01*
X143970000Y-77145000D02*
X143970000Y-74905000D01*
%TO.C,D3*%
X125520000Y-77145000D02*
X125520000Y-74905000D01*
X125520000Y-74905000D02*
X121280000Y-74905000D01*
X121280000Y-74905000D02*
X121280000Y-77145000D01*
X121280000Y-77145000D02*
X125520000Y-77145000D01*
X126170000Y-76025000D02*
X125520000Y-76025000D01*
X120630000Y-76025000D02*
X121280000Y-76025000D01*
X124800000Y-77145000D02*
X124800000Y-74905000D01*
X124680000Y-77145000D02*
X124680000Y-74905000D01*
X124920000Y-77145000D02*
X124920000Y-74905000D01*
%TO.C,D2*%
X106470000Y-77145000D02*
X106470000Y-74905000D01*
X106470000Y-74905000D02*
X102230000Y-74905000D01*
X102230000Y-74905000D02*
X102230000Y-77145000D01*
X102230000Y-77145000D02*
X106470000Y-77145000D01*
X107120000Y-76025000D02*
X106470000Y-76025000D01*
X101580000Y-76025000D02*
X102230000Y-76025000D01*
X105750000Y-77145000D02*
X105750000Y-74905000D01*
X105630000Y-77145000D02*
X105630000Y-74905000D01*
X105870000Y-77145000D02*
X105870000Y-74905000D01*
%TO.C,D1*%
X87420000Y-77145000D02*
X87420000Y-74905000D01*
X87420000Y-74905000D02*
X83180000Y-74905000D01*
X83180000Y-74905000D02*
X83180000Y-77145000D01*
X83180000Y-77145000D02*
X87420000Y-77145000D01*
X88070000Y-76025000D02*
X87420000Y-76025000D01*
X82530000Y-76025000D02*
X83180000Y-76025000D01*
X86700000Y-77145000D02*
X86700000Y-74905000D01*
X86580000Y-77145000D02*
X86580000Y-74905000D01*
X86820000Y-77145000D02*
X86820000Y-74905000D01*
%TO.C,R6*%
X183440000Y-89375000D02*
X183440000Y-85535000D01*
X185280000Y-89375000D02*
X185280000Y-85535000D01*
%TO.C,R3*%
X180265000Y-89375000D02*
X180265000Y-85535000D01*
X182105000Y-89375000D02*
X182105000Y-85535000D01*
%TO.C,R1*%
X175755000Y-89375000D02*
X175755000Y-85535000D01*
X173915000Y-89375000D02*
X173915000Y-85535000D01*
%TO.C,R2*%
X177090000Y-85535000D02*
X177090000Y-89375000D01*
X178930000Y-85535000D02*
X178930000Y-89375000D01*
%TO.C,R5*%
X186615000Y-89375000D02*
X186615000Y-85535000D01*
X188455000Y-89375000D02*
X188455000Y-85535000D01*
%TO.C,J1*%
X179220000Y-143910000D02*
X180550000Y-143910000D01*
X179220000Y-145240000D02*
X179220000Y-143910000D01*
X181820000Y-143910000D02*
X184420000Y-143910000D01*
X181820000Y-146510000D02*
X181820000Y-143910000D01*
X179220000Y-146510000D02*
X181820000Y-146510000D01*
X184420000Y-143910000D02*
X184420000Y-151650000D01*
X179220000Y-146510000D02*
X179220000Y-151650000D01*
X179220000Y-151650000D02*
X184420000Y-151650000D01*
%TO.C,U1*%
X179645000Y-129425000D02*
X181295000Y-129425000D01*
X181295000Y-129425000D02*
X181295000Y-93745000D01*
X181295000Y-93745000D02*
X175995000Y-93745000D01*
X175995000Y-93745000D02*
X175995000Y-129425000D01*
X175995000Y-129425000D02*
X177645000Y-129425000D01*
X183785000Y-129485000D02*
X183785000Y-93685000D01*
X183785000Y-93685000D02*
X173505000Y-93685000D01*
X173505000Y-93685000D02*
X173505000Y-129485000D01*
X173505000Y-129485000D02*
X183785000Y-129485000D01*
X177645000Y-129425000D02*
G75*
G02*
X179645000Y-129425000I1000000J0D01*
G01*
%TO.C,F1*%
X180890000Y-73505000D02*
X184090000Y-73505000D01*
X180890000Y-81106000D02*
X184090000Y-81106000D01*
X184090000Y-74066000D02*
X184090000Y-73505000D01*
X184090000Y-81106000D02*
X184090000Y-75443000D01*
X180890000Y-79166000D02*
X180890000Y-73505000D01*
X180890000Y-81106000D02*
X180890000Y-80544000D01*
%TO.C,D26*%
X188771000Y-73195000D02*
X188615000Y-73195000D01*
X186455000Y-73195000D02*
X186299000Y-73195000D01*
X186455163Y-75796130D02*
G75*
G02*
X186455000Y-73714039I1079837J1041130D01*
G01*
X188614837Y-75796130D02*
G75*
G03*
X188615000Y-73714039I-1079837J1041130D01*
G01*
X186456392Y-76427335D02*
G75*
G02*
X186299484Y-73195000I1078608J1672335D01*
G01*
X188613608Y-76427335D02*
G75*
G03*
X188770516Y-73195000I-1078608J1672335D01*
G01*
%TO.C,Y1*%
X185010000Y-108710000D02*
X185010000Y-102310000D01*
X190060000Y-108710000D02*
X190060000Y-102310000D01*
X190060000Y-102310000D02*
G75*
G03*
X185010000Y-102310000I-2525000J0D01*
G01*
X190060000Y-108710000D02*
G75*
G02*
X185010000Y-108710000I-2525000J0D01*
G01*
%TO.C,Reset1*%
X179645000Y-139945000D02*
X184145000Y-139945000D01*
X178395000Y-135945000D02*
X178395000Y-137445000D01*
X184145000Y-133445000D02*
X179645000Y-133445000D01*
X185395000Y-137445000D02*
X185395000Y-135945000D01*
%TO.C,D25*%
X179130000Y-75175000D02*
X176890000Y-75175000D01*
X176890000Y-75175000D02*
X176890000Y-79415000D01*
X176890000Y-79415000D02*
X179130000Y-79415000D01*
X179130000Y-79415000D02*
X179130000Y-75175000D01*
X178010000Y-74525000D02*
X178010000Y-75175000D01*
X178010000Y-80065000D02*
X178010000Y-79415000D01*
X179130000Y-75895000D02*
X176890000Y-75895000D01*
X179130000Y-76015000D02*
X176890000Y-76015000D01*
X179130000Y-75775000D02*
X176890000Y-75775000D01*
%TO.C,D24*%
X175955000Y-75175000D02*
X173715000Y-75175000D01*
X173715000Y-75175000D02*
X173715000Y-79415000D01*
X173715000Y-79415000D02*
X175955000Y-79415000D01*
X175955000Y-79415000D02*
X175955000Y-75175000D01*
X174835000Y-74525000D02*
X174835000Y-75175000D01*
X174835000Y-80065000D02*
X174835000Y-79415000D01*
X175955000Y-75895000D02*
X173715000Y-75895000D01*
X175955000Y-76015000D02*
X173715000Y-76015000D01*
X175955000Y-75775000D02*
X173715000Y-75775000D01*
%TO.C,C5*%
X173162000Y-108180000D02*
X173162000Y-112720000D01*
X171022000Y-108180000D02*
X171022000Y-112720000D01*
X173162000Y-108180000D02*
X173147000Y-108180000D01*
X171037000Y-108180000D02*
X171022000Y-108180000D01*
X173162000Y-112720000D02*
X173147000Y-112720000D01*
X171037000Y-112720000D02*
X171022000Y-112720000D01*
%TO.C,C4*%
X186294000Y-113267000D02*
X186294000Y-117807000D01*
X184154000Y-113267000D02*
X184154000Y-117807000D01*
X186294000Y-113267000D02*
X186279000Y-113267000D01*
X184169000Y-113267000D02*
X184154000Y-113267000D01*
X186294000Y-117807000D02*
X186279000Y-117807000D01*
X184169000Y-117807000D02*
X184154000Y-117807000D01*
%TO.C,C3*%
X189655000Y-80585000D02*
G75*
G03*
X189655000Y-80585000I-2120000J0D01*
G01*
X186695000Y-80585000D02*
X185455000Y-80585000D01*
X189615000Y-80585000D02*
X188375000Y-80585000D01*
X186695000Y-80625000D02*
X185455000Y-80625000D01*
X189615000Y-80625000D02*
X188375000Y-80625000D01*
X186695000Y-80665000D02*
X185456000Y-80665000D01*
X189614000Y-80665000D02*
X188375000Y-80665000D01*
X189612000Y-80705000D02*
X188375000Y-80705000D01*
X186695000Y-80705000D02*
X185458000Y-80705000D01*
X189609000Y-80745000D02*
X188375000Y-80745000D01*
X186695000Y-80745000D02*
X185461000Y-80745000D01*
X189606000Y-80785000D02*
X188375000Y-80785000D01*
X186695000Y-80785000D02*
X185464000Y-80785000D01*
X189602000Y-80825000D02*
X188375000Y-80825000D01*
X186695000Y-80825000D02*
X185468000Y-80825000D01*
X189597000Y-80865000D02*
X188375000Y-80865000D01*
X186695000Y-80865000D02*
X185473000Y-80865000D01*
X189591000Y-80905000D02*
X188375000Y-80905000D01*
X186695000Y-80905000D02*
X185479000Y-80905000D01*
X189585000Y-80945000D02*
X188375000Y-80945000D01*
X186695000Y-80945000D02*
X185485000Y-80945000D01*
X189577000Y-80985000D02*
X188375000Y-80985000D01*
X186695000Y-80985000D02*
X185493000Y-80985000D01*
X189569000Y-81025000D02*
X188375000Y-81025000D01*
X186695000Y-81025000D02*
X185501000Y-81025000D01*
X189560000Y-81065000D02*
X188375000Y-81065000D01*
X186695000Y-81065000D02*
X185510000Y-81065000D01*
X189551000Y-81105000D02*
X188375000Y-81105000D01*
X186695000Y-81105000D02*
X185519000Y-81105000D01*
X189540000Y-81145000D02*
X188375000Y-81145000D01*
X186695000Y-81145000D02*
X185530000Y-81145000D01*
X189529000Y-81185000D02*
X188375000Y-81185000D01*
X186695000Y-81185000D02*
X185541000Y-81185000D01*
X189517000Y-81225000D02*
X188375000Y-81225000D01*
X186695000Y-81225000D02*
X185553000Y-81225000D01*
X189503000Y-81265000D02*
X188375000Y-81265000D01*
X186695000Y-81265000D02*
X185567000Y-81265000D01*
X189489000Y-81306000D02*
X188375000Y-81306000D01*
X186695000Y-81306000D02*
X185581000Y-81306000D01*
X189475000Y-81346000D02*
X188375000Y-81346000D01*
X186695000Y-81346000D02*
X185595000Y-81346000D01*
X189459000Y-81386000D02*
X188375000Y-81386000D01*
X186695000Y-81386000D02*
X185611000Y-81386000D01*
X189442000Y-81426000D02*
X188375000Y-81426000D01*
X186695000Y-81426000D02*
X185628000Y-81426000D01*
X189424000Y-81466000D02*
X188375000Y-81466000D01*
X186695000Y-81466000D02*
X185646000Y-81466000D01*
X189405000Y-81506000D02*
X188375000Y-81506000D01*
X186695000Y-81506000D02*
X185665000Y-81506000D01*
X189386000Y-81546000D02*
X188375000Y-81546000D01*
X186695000Y-81546000D02*
X185684000Y-81546000D01*
X189365000Y-81586000D02*
X188375000Y-81586000D01*
X186695000Y-81586000D02*
X185705000Y-81586000D01*
X189343000Y-81626000D02*
X188375000Y-81626000D01*
X186695000Y-81626000D02*
X185727000Y-81626000D01*
X189320000Y-81666000D02*
X188375000Y-81666000D01*
X186695000Y-81666000D02*
X185750000Y-81666000D01*
X189295000Y-81706000D02*
X188375000Y-81706000D01*
X186695000Y-81706000D02*
X185775000Y-81706000D01*
X189270000Y-81746000D02*
X188375000Y-81746000D01*
X186695000Y-81746000D02*
X185800000Y-81746000D01*
X189243000Y-81786000D02*
X188375000Y-81786000D01*
X186695000Y-81786000D02*
X185827000Y-81786000D01*
X189215000Y-81826000D02*
X188375000Y-81826000D01*
X186695000Y-81826000D02*
X185855000Y-81826000D01*
X189185000Y-81866000D02*
X188375000Y-81866000D01*
X186695000Y-81866000D02*
X185885000Y-81866000D01*
X189154000Y-81906000D02*
X188375000Y-81906000D01*
X186695000Y-81906000D02*
X185916000Y-81906000D01*
X189122000Y-81946000D02*
X188375000Y-81946000D01*
X186695000Y-81946000D02*
X185948000Y-81946000D01*
X189087000Y-81986000D02*
X188375000Y-81986000D01*
X186695000Y-81986000D02*
X185983000Y-81986000D01*
X189051000Y-82026000D02*
X188375000Y-82026000D01*
X186695000Y-82026000D02*
X186019000Y-82026000D01*
X189013000Y-82066000D02*
X188375000Y-82066000D01*
X186695000Y-82066000D02*
X186057000Y-82066000D01*
X188973000Y-82106000D02*
X188375000Y-82106000D01*
X186695000Y-82106000D02*
X186097000Y-82106000D01*
X188931000Y-82146000D02*
X188375000Y-82146000D01*
X186695000Y-82146000D02*
X186139000Y-82146000D01*
X188886000Y-82186000D02*
X186184000Y-82186000D01*
X188839000Y-82226000D02*
X186231000Y-82226000D01*
X188789000Y-82266000D02*
X186281000Y-82266000D01*
X188735000Y-82306000D02*
X186335000Y-82306000D01*
X188677000Y-82346000D02*
X186393000Y-82346000D01*
X188615000Y-82386000D02*
X186455000Y-82386000D01*
X188548000Y-82426000D02*
X186522000Y-82426000D01*
X188475000Y-82466000D02*
X186595000Y-82466000D01*
X188394000Y-82506000D02*
X186676000Y-82506000D01*
X188303000Y-82546000D02*
X186767000Y-82546000D01*
X188199000Y-82586000D02*
X186871000Y-82586000D01*
X188072000Y-82626000D02*
X186998000Y-82626000D01*
X187905000Y-82666000D02*
X187165000Y-82666000D01*
X188730000Y-78315199D02*
X188730000Y-78715199D01*
X188930000Y-78515199D02*
X188530000Y-78515199D01*
%TO.C,C2*%
X186615000Y-114909000D02*
X186615000Y-113651000D01*
X188455000Y-114909000D02*
X188455000Y-113651000D01*
%TO.C,C1*%
X188455000Y-95871000D02*
X188455000Y-97129000D01*
X186615000Y-95871000D02*
X186615000Y-97129000D01*
%TO.C,R6*%
D10*
X184812380Y-88578809D02*
X184812380Y-89035952D01*
X184812380Y-88807380D02*
X183812380Y-88807380D01*
X183955238Y-88883571D01*
X184050476Y-88959761D01*
X184098095Y-89035952D01*
X184717142Y-88235952D02*
X184764761Y-88197857D01*
X184812380Y-88235952D01*
X184764761Y-88274047D01*
X184717142Y-88235952D01*
X184812380Y-88235952D01*
X183812380Y-87474047D02*
X183812380Y-87855000D01*
X184288571Y-87893095D01*
X184240952Y-87855000D01*
X184193333Y-87778809D01*
X184193333Y-87588333D01*
X184240952Y-87512142D01*
X184288571Y-87474047D01*
X184383809Y-87435952D01*
X184621904Y-87435952D01*
X184717142Y-87474047D01*
X184764761Y-87512142D01*
X184812380Y-87588333D01*
X184812380Y-87778809D01*
X184764761Y-87855000D01*
X184717142Y-87893095D01*
X184812380Y-87093095D02*
X183812380Y-87093095D01*
X184431428Y-87016904D02*
X184812380Y-86788333D01*
X184145714Y-86788333D02*
X184526666Y-87093095D01*
X184812380Y-86483571D02*
X184812380Y-86293095D01*
X184621904Y-86293095D01*
X184574285Y-86369285D01*
X184479047Y-86445476D01*
X184336190Y-86483571D01*
X184098095Y-86483571D01*
X183955238Y-86445476D01*
X183860000Y-86369285D01*
X183812380Y-86255000D01*
X183812380Y-86102619D01*
X183860000Y-85988333D01*
X183955238Y-85912142D01*
X184098095Y-85874047D01*
X184336190Y-85874047D01*
X184479047Y-85912142D01*
X184574285Y-85988333D01*
X184621904Y-86064523D01*
X184812380Y-86064523D01*
X184812380Y-85874047D01*
%TO.C,R3*%
X181637380Y-88578809D02*
X181637380Y-89035952D01*
X181637380Y-88807380D02*
X180637380Y-88807380D01*
X180780238Y-88883571D01*
X180875476Y-88959761D01*
X180923095Y-89035952D01*
X181542142Y-88235952D02*
X181589761Y-88197857D01*
X181637380Y-88235952D01*
X181589761Y-88274047D01*
X181542142Y-88235952D01*
X181637380Y-88235952D01*
X180637380Y-87474047D02*
X180637380Y-87855000D01*
X181113571Y-87893095D01*
X181065952Y-87855000D01*
X181018333Y-87778809D01*
X181018333Y-87588333D01*
X181065952Y-87512142D01*
X181113571Y-87474047D01*
X181208809Y-87435952D01*
X181446904Y-87435952D01*
X181542142Y-87474047D01*
X181589761Y-87512142D01*
X181637380Y-87588333D01*
X181637380Y-87778809D01*
X181589761Y-87855000D01*
X181542142Y-87893095D01*
X181637380Y-87093095D02*
X180637380Y-87093095D01*
X181256428Y-87016904D02*
X181637380Y-86788333D01*
X180970714Y-86788333D02*
X181351666Y-87093095D01*
X181637380Y-86483571D02*
X181637380Y-86293095D01*
X181446904Y-86293095D01*
X181399285Y-86369285D01*
X181304047Y-86445476D01*
X181161190Y-86483571D01*
X180923095Y-86483571D01*
X180780238Y-86445476D01*
X180685000Y-86369285D01*
X180637380Y-86255000D01*
X180637380Y-86102619D01*
X180685000Y-85988333D01*
X180780238Y-85912142D01*
X180923095Y-85874047D01*
X181161190Y-85874047D01*
X181304047Y-85912142D01*
X181399285Y-85988333D01*
X181446904Y-86064523D01*
X181637380Y-86064523D01*
X181637380Y-85874047D01*
%TO.C,R1*%
X174287380Y-88835952D02*
X174287380Y-88169285D01*
X175287380Y-88597857D01*
X174287380Y-87312142D02*
X174287380Y-87788333D01*
X174763571Y-87835952D01*
X174715952Y-87788333D01*
X174668333Y-87693095D01*
X174668333Y-87455000D01*
X174715952Y-87359761D01*
X174763571Y-87312142D01*
X174858809Y-87264523D01*
X175096904Y-87264523D01*
X175192142Y-87312142D01*
X175239761Y-87359761D01*
X175287380Y-87455000D01*
X175287380Y-87693095D01*
X175239761Y-87788333D01*
X175192142Y-87835952D01*
X175287380Y-86883571D02*
X175287380Y-86645476D01*
X175096904Y-86645476D01*
X175049285Y-86740714D01*
X174954047Y-86835952D01*
X174811190Y-86883571D01*
X174573095Y-86883571D01*
X174430238Y-86835952D01*
X174335000Y-86740714D01*
X174287380Y-86597857D01*
X174287380Y-86407380D01*
X174335000Y-86264523D01*
X174430238Y-86169285D01*
X174573095Y-86121666D01*
X174811190Y-86121666D01*
X174954047Y-86169285D01*
X175049285Y-86264523D01*
X175096904Y-86359761D01*
X175287380Y-86359761D01*
X175287380Y-86121666D01*
%TO.C,R2*%
X177462380Y-88835952D02*
X177462380Y-88169285D01*
X178462380Y-88597857D01*
X177462380Y-87312142D02*
X177462380Y-87788333D01*
X177938571Y-87835952D01*
X177890952Y-87788333D01*
X177843333Y-87693095D01*
X177843333Y-87455000D01*
X177890952Y-87359761D01*
X177938571Y-87312142D01*
X178033809Y-87264523D01*
X178271904Y-87264523D01*
X178367142Y-87312142D01*
X178414761Y-87359761D01*
X178462380Y-87455000D01*
X178462380Y-87693095D01*
X178414761Y-87788333D01*
X178367142Y-87835952D01*
X178462380Y-86883571D02*
X178462380Y-86645476D01*
X178271904Y-86645476D01*
X178224285Y-86740714D01*
X178129047Y-86835952D01*
X177986190Y-86883571D01*
X177748095Y-86883571D01*
X177605238Y-86835952D01*
X177510000Y-86740714D01*
X177462380Y-86597857D01*
X177462380Y-86407380D01*
X177510000Y-86264523D01*
X177605238Y-86169285D01*
X177748095Y-86121666D01*
X177986190Y-86121666D01*
X178129047Y-86169285D01*
X178224285Y-86264523D01*
X178271904Y-86359761D01*
X178462380Y-86359761D01*
X178462380Y-86121666D01*
%TO.C,R5*%
X187987380Y-88621666D02*
X187987380Y-89193095D01*
X187987380Y-88907380D02*
X186987380Y-88907380D01*
X187130238Y-89002619D01*
X187225476Y-89097857D01*
X187273095Y-89193095D01*
X186987380Y-88002619D02*
X186987380Y-87907380D01*
X187035000Y-87812142D01*
X187082619Y-87764523D01*
X187177857Y-87716904D01*
X187368333Y-87669285D01*
X187606428Y-87669285D01*
X187796904Y-87716904D01*
X187892142Y-87764523D01*
X187939761Y-87812142D01*
X187987380Y-87907380D01*
X187987380Y-88002619D01*
X187939761Y-88097857D01*
X187892142Y-88145476D01*
X187796904Y-88193095D01*
X187606428Y-88240714D01*
X187368333Y-88240714D01*
X187177857Y-88193095D01*
X187082619Y-88145476D01*
X187035000Y-88097857D01*
X186987380Y-88002619D01*
X187987380Y-87240714D02*
X186987380Y-87240714D01*
X187606428Y-87145476D02*
X187987380Y-86859761D01*
X187320714Y-86859761D02*
X187701666Y-87240714D01*
X187987380Y-86478809D02*
X187987380Y-86240714D01*
X187796904Y-86240714D01*
X187749285Y-86335952D01*
X187654047Y-86431190D01*
X187511190Y-86478809D01*
X187273095Y-86478809D01*
X187130238Y-86431190D01*
X187035000Y-86335952D01*
X186987380Y-86193095D01*
X186987380Y-86002619D01*
X187035000Y-85859761D01*
X187130238Y-85764523D01*
X187273095Y-85716904D01*
X187511190Y-85716904D01*
X187654047Y-85764523D01*
X187749285Y-85859761D01*
X187796904Y-85955000D01*
X187987380Y-85955000D01*
X187987380Y-85716904D01*
%TO.C,J1*%
X178200952Y-142866666D02*
X178677142Y-142866666D01*
X178105714Y-143152380D02*
X178439047Y-142152380D01*
X178772380Y-143152380D01*
X178962857Y-142152380D02*
X179296190Y-143152380D01*
X179629523Y-142152380D01*
X180534285Y-143152380D02*
X180200952Y-142676190D01*
X179962857Y-143152380D02*
X179962857Y-142152380D01*
X180343809Y-142152380D01*
X180439047Y-142200000D01*
X180486666Y-142247619D01*
X180534285Y-142342857D01*
X180534285Y-142485714D01*
X180486666Y-142580952D01*
X180439047Y-142628571D01*
X180343809Y-142676190D01*
X179962857Y-142676190D01*
X181724761Y-143152380D02*
X181724761Y-142152380D01*
X182153333Y-143104761D02*
X182296190Y-143152380D01*
X182534285Y-143152380D01*
X182629523Y-143104761D01*
X182677142Y-143057142D01*
X182724761Y-142961904D01*
X182724761Y-142866666D01*
X182677142Y-142771428D01*
X182629523Y-142723809D01*
X182534285Y-142676190D01*
X182343809Y-142628571D01*
X182248571Y-142580952D01*
X182200952Y-142533333D01*
X182153333Y-142438095D01*
X182153333Y-142342857D01*
X182200952Y-142247619D01*
X182248571Y-142200000D01*
X182343809Y-142152380D01*
X182581904Y-142152380D01*
X182724761Y-142200000D01*
X183153333Y-143152380D02*
X183153333Y-142152380D01*
X183534285Y-142152380D01*
X183629523Y-142200000D01*
X183677142Y-142247619D01*
X183724761Y-142342857D01*
X183724761Y-142485714D01*
X183677142Y-142580952D01*
X183629523Y-142628571D01*
X183534285Y-142676190D01*
X183153333Y-142676190D01*
X185343809Y-142152380D02*
X185153333Y-142152380D01*
X185058095Y-142200000D01*
X185010476Y-142247619D01*
X184915238Y-142390476D01*
X184867619Y-142580952D01*
X184867619Y-142961904D01*
X184915238Y-143057142D01*
X184962857Y-143104761D01*
X185058095Y-143152380D01*
X185248571Y-143152380D01*
X185343809Y-143104761D01*
X185391428Y-143057142D01*
X185439047Y-142961904D01*
X185439047Y-142723809D01*
X185391428Y-142628571D01*
X185343809Y-142580952D01*
X185248571Y-142533333D01*
X185058095Y-142533333D01*
X184962857Y-142580952D01*
X184915238Y-142628571D01*
X184867619Y-142723809D01*
X175430476Y-145644761D02*
X175573333Y-145692380D01*
X175811428Y-145692380D01*
X175906666Y-145644761D01*
X175954285Y-145597142D01*
X176001904Y-145501904D01*
X176001904Y-145406666D01*
X175954285Y-145311428D01*
X175906666Y-145263809D01*
X175811428Y-145216190D01*
X175620952Y-145168571D01*
X175525714Y-145120952D01*
X175478095Y-145073333D01*
X175430476Y-144978095D01*
X175430476Y-144882857D01*
X175478095Y-144787619D01*
X175525714Y-144740000D01*
X175620952Y-144692380D01*
X175859047Y-144692380D01*
X176001904Y-144740000D01*
X176430476Y-145692380D02*
X176430476Y-144692380D01*
X176668571Y-144692380D01*
X176811428Y-144740000D01*
X176906666Y-144835238D01*
X176954285Y-144930476D01*
X177001904Y-145120952D01*
X177001904Y-145263809D01*
X176954285Y-145454285D01*
X176906666Y-145549523D01*
X176811428Y-145644761D01*
X176668571Y-145692380D01*
X176430476Y-145692380D01*
X177620952Y-144692380D02*
X177811428Y-144692380D01*
X177906666Y-144740000D01*
X178001904Y-144835238D01*
X178049523Y-145025714D01*
X178049523Y-145359047D01*
X178001904Y-145549523D01*
X177906666Y-145644761D01*
X177811428Y-145692380D01*
X177620952Y-145692380D01*
X177525714Y-145644761D01*
X177430476Y-145549523D01*
X177382857Y-145359047D01*
X177382857Y-145025714D01*
X177430476Y-144835238D01*
X177525714Y-144740000D01*
X177620952Y-144692380D01*
X175454285Y-148184761D02*
X175597142Y-148232380D01*
X175835238Y-148232380D01*
X175930476Y-148184761D01*
X175978095Y-148137142D01*
X176025714Y-148041904D01*
X176025714Y-147946666D01*
X175978095Y-147851428D01*
X175930476Y-147803809D01*
X175835238Y-147756190D01*
X175644761Y-147708571D01*
X175549523Y-147660952D01*
X175501904Y-147613333D01*
X175454285Y-147518095D01*
X175454285Y-147422857D01*
X175501904Y-147327619D01*
X175549523Y-147280000D01*
X175644761Y-147232380D01*
X175882857Y-147232380D01*
X176025714Y-147280000D01*
X177025714Y-148137142D02*
X176978095Y-148184761D01*
X176835238Y-148232380D01*
X176740000Y-148232380D01*
X176597142Y-148184761D01*
X176501904Y-148089523D01*
X176454285Y-147994285D01*
X176406666Y-147803809D01*
X176406666Y-147660952D01*
X176454285Y-147470476D01*
X176501904Y-147375238D01*
X176597142Y-147280000D01*
X176740000Y-147232380D01*
X176835238Y-147232380D01*
X176978095Y-147280000D01*
X177025714Y-147327619D01*
X177454285Y-148232380D02*
X177454285Y-147232380D01*
X178025714Y-148232380D02*
X177597142Y-147660952D01*
X178025714Y-147232380D02*
X177454285Y-147803809D01*
X176192380Y-150772380D02*
X175859047Y-150296190D01*
X175620952Y-150772380D02*
X175620952Y-149772380D01*
X176001904Y-149772380D01*
X176097142Y-149820000D01*
X176144761Y-149867619D01*
X176192380Y-149962857D01*
X176192380Y-150105714D01*
X176144761Y-150200952D01*
X176097142Y-150248571D01*
X176001904Y-150296190D01*
X175620952Y-150296190D01*
X176573333Y-150724761D02*
X176716190Y-150772380D01*
X176954285Y-150772380D01*
X177049523Y-150724761D01*
X177097142Y-150677142D01*
X177144761Y-150581904D01*
X177144761Y-150486666D01*
X177097142Y-150391428D01*
X177049523Y-150343809D01*
X176954285Y-150296190D01*
X176763809Y-150248571D01*
X176668571Y-150200952D01*
X176620952Y-150153333D01*
X176573333Y-150058095D01*
X176573333Y-149962857D01*
X176620952Y-149867619D01*
X176668571Y-149820000D01*
X176763809Y-149772380D01*
X177001904Y-149772380D01*
X177144761Y-149820000D01*
X177430476Y-149772380D02*
X178001904Y-149772380D01*
X177716190Y-150772380D02*
X177716190Y-149772380D01*
X185566666Y-144692380D02*
X185900000Y-145692380D01*
X186233333Y-144692380D01*
X187138095Y-145597142D02*
X187090476Y-145644761D01*
X186947619Y-145692380D01*
X186852380Y-145692380D01*
X186709523Y-145644761D01*
X186614285Y-145549523D01*
X186566666Y-145454285D01*
X186519047Y-145263809D01*
X186519047Y-145120952D01*
X186566666Y-144930476D01*
X186614285Y-144835238D01*
X186709523Y-144740000D01*
X186852380Y-144692380D01*
X186947619Y-144692380D01*
X187090476Y-144740000D01*
X187138095Y-144787619D01*
X188138095Y-145597142D02*
X188090476Y-145644761D01*
X187947619Y-145692380D01*
X187852380Y-145692380D01*
X187709523Y-145644761D01*
X187614285Y-145549523D01*
X187566666Y-145454285D01*
X187519047Y-145263809D01*
X187519047Y-145120952D01*
X187566666Y-144930476D01*
X187614285Y-144835238D01*
X187709523Y-144740000D01*
X187852380Y-144692380D01*
X187947619Y-144692380D01*
X188090476Y-144740000D01*
X188138095Y-144787619D01*
X185876190Y-148184761D02*
X186019047Y-148232380D01*
X186257142Y-148232380D01*
X186352380Y-148184761D01*
X186400000Y-148137142D01*
X186447619Y-148041904D01*
X186447619Y-147946666D01*
X186400000Y-147851428D01*
X186352380Y-147803809D01*
X186257142Y-147756190D01*
X186066666Y-147708571D01*
X185971428Y-147660952D01*
X185923809Y-147613333D01*
X185876190Y-147518095D01*
X185876190Y-147422857D01*
X185923809Y-147327619D01*
X185971428Y-147280000D01*
X186066666Y-147232380D01*
X186304761Y-147232380D01*
X186447619Y-147280000D01*
X186876190Y-148232380D02*
X186876190Y-147232380D01*
X187114285Y-147232380D01*
X187257142Y-147280000D01*
X187352380Y-147375238D01*
X187400000Y-147470476D01*
X187447619Y-147660952D01*
X187447619Y-147803809D01*
X187400000Y-147994285D01*
X187352380Y-148089523D01*
X187257142Y-148184761D01*
X187114285Y-148232380D01*
X186876190Y-148232380D01*
X187876190Y-148232380D02*
X187876190Y-147232380D01*
X186138095Y-149820000D02*
X186042857Y-149772380D01*
X185900000Y-149772380D01*
X185757142Y-149820000D01*
X185661904Y-149915238D01*
X185614285Y-150010476D01*
X185566666Y-150200952D01*
X185566666Y-150343809D01*
X185614285Y-150534285D01*
X185661904Y-150629523D01*
X185757142Y-150724761D01*
X185900000Y-150772380D01*
X185995238Y-150772380D01*
X186138095Y-150724761D01*
X186185714Y-150677142D01*
X186185714Y-150343809D01*
X185995238Y-150343809D01*
X186614285Y-150772380D02*
X186614285Y-149772380D01*
X187185714Y-150772380D01*
X187185714Y-149772380D01*
X187661904Y-150772380D02*
X187661904Y-149772380D01*
X187900000Y-149772380D01*
X188042857Y-149820000D01*
X188138095Y-149915238D01*
X188185714Y-150010476D01*
X188233333Y-150200952D01*
X188233333Y-150343809D01*
X188185714Y-150534285D01*
X188138095Y-150629523D01*
X188042857Y-150724761D01*
X187900000Y-150772380D01*
X187661904Y-150772380D01*
%TO.C,U1*%
X172454523Y-92911666D02*
X172930714Y-92911666D01*
X172359285Y-93197380D02*
X172692619Y-92197380D01*
X173025952Y-93197380D01*
X173216428Y-92197380D02*
X173787857Y-92197380D01*
X173502142Y-93197380D02*
X173502142Y-92197380D01*
X174121190Y-93197380D02*
X174121190Y-92530714D01*
X174121190Y-92625952D02*
X174168809Y-92578333D01*
X174264047Y-92530714D01*
X174406904Y-92530714D01*
X174502142Y-92578333D01*
X174549761Y-92673571D01*
X174549761Y-93197380D01*
X174549761Y-92673571D02*
X174597380Y-92578333D01*
X174692619Y-92530714D01*
X174835476Y-92530714D01*
X174930714Y-92578333D01*
X174978333Y-92673571D01*
X174978333Y-93197380D01*
X175835476Y-93149761D02*
X175740238Y-93197380D01*
X175549761Y-93197380D01*
X175454523Y-93149761D01*
X175406904Y-93054523D01*
X175406904Y-92673571D01*
X175454523Y-92578333D01*
X175549761Y-92530714D01*
X175740238Y-92530714D01*
X175835476Y-92578333D01*
X175883095Y-92673571D01*
X175883095Y-92768809D01*
X175406904Y-92864047D01*
X176740238Y-92530714D02*
X176740238Y-93340238D01*
X176692619Y-93435476D01*
X176645000Y-93483095D01*
X176549761Y-93530714D01*
X176406904Y-93530714D01*
X176311666Y-93483095D01*
X176740238Y-93149761D02*
X176645000Y-93197380D01*
X176454523Y-93197380D01*
X176359285Y-93149761D01*
X176311666Y-93102142D01*
X176264047Y-93006904D01*
X176264047Y-92721190D01*
X176311666Y-92625952D01*
X176359285Y-92578333D01*
X176454523Y-92530714D01*
X176645000Y-92530714D01*
X176740238Y-92578333D01*
X177645000Y-93197380D02*
X177645000Y-92673571D01*
X177597380Y-92578333D01*
X177502142Y-92530714D01*
X177311666Y-92530714D01*
X177216428Y-92578333D01*
X177645000Y-93149761D02*
X177549761Y-93197380D01*
X177311666Y-93197380D01*
X177216428Y-93149761D01*
X177168809Y-93054523D01*
X177168809Y-92959285D01*
X177216428Y-92864047D01*
X177311666Y-92816428D01*
X177549761Y-92816428D01*
X177645000Y-92768809D01*
X178025952Y-92197380D02*
X178645000Y-92197380D01*
X178311666Y-92578333D01*
X178454523Y-92578333D01*
X178549761Y-92625952D01*
X178597380Y-92673571D01*
X178645000Y-92768809D01*
X178645000Y-93006904D01*
X178597380Y-93102142D01*
X178549761Y-93149761D01*
X178454523Y-93197380D01*
X178168809Y-93197380D01*
X178073571Y-93149761D01*
X178025952Y-93102142D01*
X179025952Y-92292619D02*
X179073571Y-92245000D01*
X179168809Y-92197380D01*
X179406904Y-92197380D01*
X179502142Y-92245000D01*
X179549761Y-92292619D01*
X179597380Y-92387857D01*
X179597380Y-92483095D01*
X179549761Y-92625952D01*
X178978333Y-93197380D01*
X179597380Y-93197380D01*
X180168809Y-92625952D02*
X180073571Y-92578333D01*
X180025952Y-92530714D01*
X179978333Y-92435476D01*
X179978333Y-92387857D01*
X180025952Y-92292619D01*
X180073571Y-92245000D01*
X180168809Y-92197380D01*
X180359285Y-92197380D01*
X180454523Y-92245000D01*
X180502142Y-92292619D01*
X180549761Y-92387857D01*
X180549761Y-92435476D01*
X180502142Y-92530714D01*
X180454523Y-92578333D01*
X180359285Y-92625952D01*
X180168809Y-92625952D01*
X180073571Y-92673571D01*
X180025952Y-92721190D01*
X179978333Y-92816428D01*
X179978333Y-93006904D01*
X180025952Y-93102142D01*
X180073571Y-93149761D01*
X180168809Y-93197380D01*
X180359285Y-93197380D01*
X180454523Y-93149761D01*
X180502142Y-93102142D01*
X180549761Y-93006904D01*
X180549761Y-92816428D01*
X180502142Y-92721190D01*
X180454523Y-92673571D01*
X180359285Y-92625952D01*
X180978333Y-93197380D02*
X180978333Y-92197380D01*
X181359285Y-92197380D01*
X181454523Y-92245000D01*
X181502142Y-92292619D01*
X181549761Y-92387857D01*
X181549761Y-92530714D01*
X181502142Y-92625952D01*
X181454523Y-92673571D01*
X181359285Y-92721190D01*
X180978333Y-92721190D01*
X181978333Y-92816428D02*
X182740238Y-92816428D01*
X183216428Y-93197380D02*
X183216428Y-92197380D01*
X183597380Y-92197380D01*
X183692619Y-92245000D01*
X183740238Y-92292619D01*
X183787857Y-92387857D01*
X183787857Y-92530714D01*
X183740238Y-92625952D01*
X183692619Y-92673571D01*
X183597380Y-92721190D01*
X183216428Y-92721190D01*
X184216428Y-92197380D02*
X184216428Y-93006904D01*
X184264047Y-93102142D01*
X184311666Y-93149761D01*
X184406904Y-93197380D01*
X184597380Y-93197380D01*
X184692619Y-93149761D01*
X184740238Y-93102142D01*
X184787857Y-93006904D01*
X184787857Y-92197380D01*
%TO.C,F1*%
X180748380Y-79056904D02*
X180748380Y-79628333D01*
X180748380Y-79342619D02*
X179748380Y-79342619D01*
X179891238Y-79437857D01*
X179986476Y-79533095D01*
X180034095Y-79628333D01*
X179748380Y-78437857D02*
X179748380Y-78342619D01*
X179796000Y-78247380D01*
X179843619Y-78199761D01*
X179938857Y-78152142D01*
X180129333Y-78104523D01*
X180367428Y-78104523D01*
X180557904Y-78152142D01*
X180653142Y-78199761D01*
X180700761Y-78247380D01*
X180748380Y-78342619D01*
X180748380Y-78437857D01*
X180700761Y-78533095D01*
X180653142Y-78580714D01*
X180557904Y-78628333D01*
X180367428Y-78675952D01*
X180129333Y-78675952D01*
X179938857Y-78628333D01*
X179843619Y-78580714D01*
X179796000Y-78533095D01*
X179748380Y-78437857D01*
X179748380Y-77485476D02*
X179748380Y-77390238D01*
X179796000Y-77295000D01*
X179843619Y-77247380D01*
X179938857Y-77199761D01*
X180129333Y-77152142D01*
X180367428Y-77152142D01*
X180557904Y-77199761D01*
X180653142Y-77247380D01*
X180700761Y-77295000D01*
X180748380Y-77390238D01*
X180748380Y-77485476D01*
X180700761Y-77580714D01*
X180653142Y-77628333D01*
X180557904Y-77675952D01*
X180367428Y-77723571D01*
X180129333Y-77723571D01*
X179938857Y-77675952D01*
X179843619Y-77628333D01*
X179796000Y-77580714D01*
X179748380Y-77485476D01*
X180748380Y-76723571D02*
X180081714Y-76723571D01*
X180176952Y-76723571D02*
X180129333Y-76675952D01*
X180081714Y-76580714D01*
X180081714Y-76437857D01*
X180129333Y-76342619D01*
X180224571Y-76295000D01*
X180748380Y-76295000D01*
X180224571Y-76295000D02*
X180129333Y-76247380D01*
X180081714Y-76152142D01*
X180081714Y-76009285D01*
X180129333Y-75914047D01*
X180224571Y-75866428D01*
X180748380Y-75866428D01*
X180462666Y-75437857D02*
X180462666Y-74961666D01*
X180748380Y-75533095D02*
X179748380Y-75199761D01*
X180748380Y-74866428D01*
%TO.C,D26*%
X185345780Y-75347057D02*
X185345780Y-75823247D01*
X184345780Y-75823247D01*
X184821971Y-75013723D02*
X184821971Y-74680390D01*
X185345780Y-74537533D02*
X185345780Y-75013723D01*
X184345780Y-75013723D01*
X184345780Y-74537533D01*
X185345780Y-74108961D02*
X184345780Y-74108961D01*
X184345780Y-73870866D01*
X184393400Y-73728009D01*
X184488638Y-73632771D01*
X184583876Y-73585152D01*
X184774352Y-73537533D01*
X184917209Y-73537533D01*
X185107685Y-73585152D01*
X185202923Y-73632771D01*
X185298161Y-73728009D01*
X185345780Y-73870866D01*
X185345780Y-74108961D01*
%TO.C,Y1*%
X186322104Y-106892180D02*
X186322104Y-107349323D01*
X186322104Y-107120752D02*
X185522104Y-107120752D01*
X185636390Y-107196942D01*
X185712580Y-107273133D01*
X185750676Y-107349323D01*
X185522104Y-106206466D02*
X185522104Y-106358847D01*
X185560200Y-106435038D01*
X185598295Y-106473133D01*
X185712580Y-106549323D01*
X185864961Y-106587419D01*
X186169723Y-106587419D01*
X186245914Y-106549323D01*
X186284009Y-106511228D01*
X186322104Y-106435038D01*
X186322104Y-106282657D01*
X186284009Y-106206466D01*
X186245914Y-106168371D01*
X186169723Y-106130276D01*
X185979247Y-106130276D01*
X185903057Y-106168371D01*
X185864961Y-106206466D01*
X185826866Y-106282657D01*
X185826866Y-106435038D01*
X185864961Y-106511228D01*
X185903057Y-106549323D01*
X185979247Y-106587419D01*
X186322104Y-105787419D02*
X185522104Y-105787419D01*
X186093533Y-105520752D01*
X185522104Y-105254085D01*
X186322104Y-105254085D01*
X186322104Y-104873133D02*
X185522104Y-104873133D01*
X185903057Y-104873133D02*
X185903057Y-104415990D01*
X186322104Y-104415990D02*
X185522104Y-104415990D01*
X185788771Y-104111228D02*
X185788771Y-103692180D01*
X186322104Y-104111228D01*
X186322104Y-103692180D01*
%TO.C,Reset1*%
X180581904Y-132992380D02*
X180248571Y-132516190D01*
X180010476Y-132992380D02*
X180010476Y-131992380D01*
X180391428Y-131992380D01*
X180486666Y-132040000D01*
X180534285Y-132087619D01*
X180581904Y-132182857D01*
X180581904Y-132325714D01*
X180534285Y-132420952D01*
X180486666Y-132468571D01*
X180391428Y-132516190D01*
X180010476Y-132516190D01*
X181391428Y-132944761D02*
X181296190Y-132992380D01*
X181105714Y-132992380D01*
X181010476Y-132944761D01*
X180962857Y-132849523D01*
X180962857Y-132468571D01*
X181010476Y-132373333D01*
X181105714Y-132325714D01*
X181296190Y-132325714D01*
X181391428Y-132373333D01*
X181439047Y-132468571D01*
X181439047Y-132563809D01*
X180962857Y-132659047D01*
X181820000Y-132944761D02*
X181915238Y-132992380D01*
X182105714Y-132992380D01*
X182200952Y-132944761D01*
X182248571Y-132849523D01*
X182248571Y-132801904D01*
X182200952Y-132706666D01*
X182105714Y-132659047D01*
X181962857Y-132659047D01*
X181867619Y-132611428D01*
X181820000Y-132516190D01*
X181820000Y-132468571D01*
X181867619Y-132373333D01*
X181962857Y-132325714D01*
X182105714Y-132325714D01*
X182200952Y-132373333D01*
X183058095Y-132944761D02*
X182962857Y-132992380D01*
X182772380Y-132992380D01*
X182677142Y-132944761D01*
X182629523Y-132849523D01*
X182629523Y-132468571D01*
X182677142Y-132373333D01*
X182772380Y-132325714D01*
X182962857Y-132325714D01*
X183058095Y-132373333D01*
X183105714Y-132468571D01*
X183105714Y-132563809D01*
X182629523Y-132659047D01*
X183391428Y-132325714D02*
X183772380Y-132325714D01*
X183534285Y-131992380D02*
X183534285Y-132849523D01*
X183581904Y-132944761D01*
X183677142Y-132992380D01*
X183772380Y-132992380D01*
%TO.C,C5*%
X171476880Y-118379285D02*
X171476880Y-118284047D01*
X171524500Y-118188809D01*
X171572119Y-118141190D01*
X171667357Y-118093571D01*
X171857833Y-118045952D01*
X172095928Y-118045952D01*
X172286404Y-118093571D01*
X172381642Y-118141190D01*
X172429261Y-118188809D01*
X172476880Y-118284047D01*
X172476880Y-118379285D01*
X172429261Y-118474523D01*
X172381642Y-118522142D01*
X172286404Y-118569761D01*
X172095928Y-118617380D01*
X171857833Y-118617380D01*
X171667357Y-118569761D01*
X171572119Y-118522142D01*
X171524500Y-118474523D01*
X171476880Y-118379285D01*
X172381642Y-117617380D02*
X172429261Y-117569761D01*
X172476880Y-117617380D01*
X172429261Y-117665000D01*
X172381642Y-117617380D01*
X172476880Y-117617380D01*
X172476880Y-116617380D02*
X172476880Y-117188809D01*
X172476880Y-116903095D02*
X171476880Y-116903095D01*
X171619738Y-116998333D01*
X171714976Y-117093571D01*
X171762595Y-117188809D01*
X171810214Y-116188809D02*
X172810214Y-116188809D01*
X172334023Y-115712619D02*
X172429261Y-115665000D01*
X172476880Y-115569761D01*
X172334023Y-116188809D02*
X172429261Y-116141190D01*
X172476880Y-116045952D01*
X172476880Y-115855476D01*
X172429261Y-115760238D01*
X172334023Y-115712619D01*
X171810214Y-115712619D01*
X171953071Y-114807857D02*
X171953071Y-115141190D01*
X172476880Y-115141190D02*
X171476880Y-115141190D01*
X171476880Y-114665000D01*
%TO.C,C4*%
X184608880Y-123459285D02*
X184608880Y-123364047D01*
X184656500Y-123268809D01*
X184704119Y-123221190D01*
X184799357Y-123173571D01*
X184989833Y-123125952D01*
X185227928Y-123125952D01*
X185418404Y-123173571D01*
X185513642Y-123221190D01*
X185561261Y-123268809D01*
X185608880Y-123364047D01*
X185608880Y-123459285D01*
X185561261Y-123554523D01*
X185513642Y-123602142D01*
X185418404Y-123649761D01*
X185227928Y-123697380D01*
X184989833Y-123697380D01*
X184799357Y-123649761D01*
X184704119Y-123602142D01*
X184656500Y-123554523D01*
X184608880Y-123459285D01*
X185513642Y-122697380D02*
X185561261Y-122649761D01*
X185608880Y-122697380D01*
X185561261Y-122745000D01*
X185513642Y-122697380D01*
X185608880Y-122697380D01*
X185608880Y-121697380D02*
X185608880Y-122268809D01*
X185608880Y-121983095D02*
X184608880Y-121983095D01*
X184751738Y-122078333D01*
X184846976Y-122173571D01*
X184894595Y-122268809D01*
X184942214Y-121268809D02*
X185942214Y-121268809D01*
X185466023Y-120792619D02*
X185561261Y-120745000D01*
X185608880Y-120649761D01*
X185466023Y-121268809D02*
X185561261Y-121221190D01*
X185608880Y-121125952D01*
X185608880Y-120935476D01*
X185561261Y-120840238D01*
X185466023Y-120792619D01*
X184942214Y-120792619D01*
X185085071Y-119887857D02*
X185085071Y-120221190D01*
X185608880Y-120221190D02*
X184608880Y-120221190D01*
X184608880Y-119745000D01*
%TO.C,C3*%
X184602914Y-82022390D02*
X185269580Y-82022390D01*
X184221961Y-82260485D02*
X184936247Y-82498580D01*
X184936247Y-81879533D01*
X185174342Y-81498580D02*
X185221961Y-81450961D01*
X185269580Y-81498580D01*
X185221961Y-81546200D01*
X185174342Y-81498580D01*
X185269580Y-81498580D01*
X184269580Y-81117628D02*
X184269580Y-80450961D01*
X185269580Y-80879533D01*
X184602914Y-80070009D02*
X185602914Y-80070009D01*
X185126723Y-79593819D02*
X185221961Y-79546200D01*
X185269580Y-79450961D01*
X185126723Y-80070009D02*
X185221961Y-80022390D01*
X185269580Y-79927152D01*
X185269580Y-79736676D01*
X185221961Y-79641438D01*
X185126723Y-79593819D01*
X184602914Y-79593819D01*
X184745771Y-78689057D02*
X184745771Y-79022390D01*
X185269580Y-79022390D02*
X184269580Y-79022390D01*
X184269580Y-78546200D01*
%TO.C,C2*%
X187057219Y-120466857D02*
X187009600Y-120419238D01*
X186961980Y-120324000D01*
X186961980Y-120085904D01*
X187009600Y-119990666D01*
X187057219Y-119943047D01*
X187152457Y-119895428D01*
X187247695Y-119895428D01*
X187390552Y-119943047D01*
X187961980Y-120514476D01*
X187961980Y-119895428D01*
X187057219Y-119514476D02*
X187009600Y-119466857D01*
X186961980Y-119371619D01*
X186961980Y-119133523D01*
X187009600Y-119038285D01*
X187057219Y-118990666D01*
X187152457Y-118943047D01*
X187247695Y-118943047D01*
X187390552Y-118990666D01*
X187961980Y-119562095D01*
X187961980Y-118943047D01*
X187295314Y-118514476D02*
X188295314Y-118514476D01*
X187342933Y-118514476D02*
X187295314Y-118419238D01*
X187295314Y-118228761D01*
X187342933Y-118133523D01*
X187390552Y-118085904D01*
X187485790Y-118038285D01*
X187771504Y-118038285D01*
X187866742Y-118085904D01*
X187914361Y-118133523D01*
X187961980Y-118228761D01*
X187961980Y-118419238D01*
X187914361Y-118514476D01*
X187438171Y-117276380D02*
X187438171Y-117609714D01*
X187961980Y-117609714D02*
X186961980Y-117609714D01*
X186961980Y-117133523D01*
%TO.C,C1*%
X185032619Y-98142857D02*
X184985000Y-98095238D01*
X184937380Y-98000000D01*
X184937380Y-97761904D01*
X184985000Y-97666666D01*
X185032619Y-97619047D01*
X185127857Y-97571428D01*
X185223095Y-97571428D01*
X185365952Y-97619047D01*
X185937380Y-98190476D01*
X185937380Y-97571428D01*
X185032619Y-97190476D02*
X184985000Y-97142857D01*
X184937380Y-97047619D01*
X184937380Y-96809523D01*
X184985000Y-96714285D01*
X185032619Y-96666666D01*
X185127857Y-96619047D01*
X185223095Y-96619047D01*
X185365952Y-96666666D01*
X185937380Y-97238095D01*
X185937380Y-96619047D01*
X185270714Y-96190476D02*
X186270714Y-96190476D01*
X185318333Y-96190476D02*
X185270714Y-96095238D01*
X185270714Y-95904761D01*
X185318333Y-95809523D01*
X185365952Y-95761904D01*
X185461190Y-95714285D01*
X185746904Y-95714285D01*
X185842142Y-95761904D01*
X185889761Y-95809523D01*
X185937380Y-95904761D01*
X185937380Y-96095238D01*
X185889761Y-96190476D01*
X185413571Y-94952380D02*
X185413571Y-95285714D01*
X185937380Y-95285714D02*
X184937380Y-95285714D01*
X184937380Y-94809523D01*
%TD*%
M02*
