%TF.GenerationSoftware,KiCad,Pcbnew,(5.1.6-0-10_14)*%
%TF.CreationDate,2020-09-02T17:46:37+08:00*%
%TF.ProjectId,EngineerPad,456e6769-6e65-4657-9250-61642e6b6963,v0.3*%
%TF.SameCoordinates,Original*%
%TF.FileFunction,Legend,Bot*%
%TF.FilePolarity,Positive*%
%FSLAX46Y46*%
G04 Gerber Fmt 4.6, Leading zero omitted, Abs format (unit mm)*
G04 Created by KiCad (PCBNEW (5.1.6-0-10_14)) date 2020-09-02 17:46:37*
%MOMM*%
%LPD*%
G01*
G04 APERTURE LIST*
%ADD10C,0.300000*%
%ADD11C,0.200000*%
%ADD12C,0.010000*%
G04 APERTURE END LIST*
D10*
X161860705Y-118628941D02*
X161860705Y-116628941D01*
X161432134Y-116628941D01*
X161174991Y-116724180D01*
X161003562Y-116914656D01*
X160917848Y-117105132D01*
X160832134Y-117486084D01*
X160832134Y-117771799D01*
X160917848Y-118152751D01*
X161003562Y-118343227D01*
X161174991Y-118533703D01*
X161432134Y-118628941D01*
X161860705Y-118628941D01*
X159374991Y-118533703D02*
X159546420Y-118628941D01*
X159889277Y-118628941D01*
X160060705Y-118533703D01*
X160146420Y-118343227D01*
X160146420Y-117581322D01*
X160060705Y-117390846D01*
X159889277Y-117295608D01*
X159546420Y-117295608D01*
X159374991Y-117390846D01*
X159289277Y-117581322D01*
X159289277Y-117771799D01*
X160146420Y-117962275D01*
X158603562Y-118533703D02*
X158432134Y-118628941D01*
X158089277Y-118628941D01*
X157917848Y-118533703D01*
X157832134Y-118343227D01*
X157832134Y-118247989D01*
X157917848Y-118057513D01*
X158089277Y-117962275D01*
X158346420Y-117962275D01*
X158517848Y-117867037D01*
X158603562Y-117676560D01*
X158603562Y-117581322D01*
X158517848Y-117390846D01*
X158346420Y-117295608D01*
X158089277Y-117295608D01*
X157917848Y-117390846D01*
X157060705Y-118628941D02*
X157060705Y-117295608D01*
X157060705Y-116628941D02*
X157146420Y-116724180D01*
X157060705Y-116819418D01*
X156974991Y-116724180D01*
X157060705Y-116628941D01*
X157060705Y-116819418D01*
X155432134Y-117295608D02*
X155432134Y-118914656D01*
X155517848Y-119105132D01*
X155603562Y-119200370D01*
X155774991Y-119295608D01*
X156032134Y-119295608D01*
X156203562Y-119200370D01*
X155432134Y-118533703D02*
X155603562Y-118628941D01*
X155946420Y-118628941D01*
X156117848Y-118533703D01*
X156203562Y-118438465D01*
X156289277Y-118247989D01*
X156289277Y-117676560D01*
X156203562Y-117486084D01*
X156117848Y-117390846D01*
X155946420Y-117295608D01*
X155603562Y-117295608D01*
X155432134Y-117390846D01*
X154574991Y-117295608D02*
X154574991Y-118628941D01*
X154574991Y-117486084D02*
X154489277Y-117390846D01*
X154317848Y-117295608D01*
X154060705Y-117295608D01*
X153889277Y-117390846D01*
X153803562Y-117581322D01*
X153803562Y-118628941D01*
X151746420Y-117295608D02*
X151403562Y-118628941D01*
X151060705Y-117676560D01*
X150717848Y-118628941D01*
X150374991Y-117295608D01*
X149689277Y-118628941D02*
X149689277Y-117295608D01*
X149689277Y-116628941D02*
X149774991Y-116724180D01*
X149689277Y-116819418D01*
X149603562Y-116724180D01*
X149689277Y-116628941D01*
X149689277Y-116819418D01*
X149089277Y-117295608D02*
X148403562Y-117295608D01*
X148832134Y-116628941D02*
X148832134Y-118343227D01*
X148746420Y-118533703D01*
X148574991Y-118628941D01*
X148403562Y-118628941D01*
X147803562Y-118628941D02*
X147803562Y-116628941D01*
X147032134Y-118628941D02*
X147032134Y-117581322D01*
X147117848Y-117390846D01*
X147289277Y-117295608D01*
X147546420Y-117295608D01*
X147717848Y-117390846D01*
X147803562Y-117486084D01*
D11*
X182844948Y-62006260D02*
X183178281Y-61530070D01*
X183416377Y-62006260D02*
X183416377Y-61006260D01*
X183035424Y-61006260D01*
X182940186Y-61053880D01*
X182892567Y-61101499D01*
X182844948Y-61196737D01*
X182844948Y-61339594D01*
X182892567Y-61434832D01*
X182940186Y-61482451D01*
X183035424Y-61530070D01*
X183416377Y-61530070D01*
X182035424Y-61958641D02*
X182130662Y-62006260D01*
X182321139Y-62006260D01*
X182416377Y-61958641D01*
X182463996Y-61863403D01*
X182463996Y-61482451D01*
X182416377Y-61387213D01*
X182321139Y-61339594D01*
X182130662Y-61339594D01*
X182035424Y-61387213D01*
X181987805Y-61482451D01*
X181987805Y-61577689D01*
X182463996Y-61672927D01*
X181654472Y-61339594D02*
X181416377Y-62006260D01*
X181178281Y-61339594D01*
X179844948Y-61006260D02*
X179749710Y-61006260D01*
X179654472Y-61053880D01*
X179606853Y-61101499D01*
X179559234Y-61196737D01*
X179511615Y-61387213D01*
X179511615Y-61625308D01*
X179559234Y-61815784D01*
X179606853Y-61911022D01*
X179654472Y-61958641D01*
X179749710Y-62006260D01*
X179844948Y-62006260D01*
X179940186Y-61958641D01*
X179987805Y-61911022D01*
X180035424Y-61815784D01*
X180083043Y-61625308D01*
X180083043Y-61387213D01*
X180035424Y-61196737D01*
X179987805Y-61101499D01*
X179940186Y-61053880D01*
X179844948Y-61006260D01*
X179083043Y-61911022D02*
X179035424Y-61958641D01*
X179083043Y-62006260D01*
X179130662Y-61958641D01*
X179083043Y-61911022D01*
X179083043Y-62006260D01*
X178702091Y-61006260D02*
X178083043Y-61006260D01*
X178416377Y-61387213D01*
X178273520Y-61387213D01*
X178178281Y-61434832D01*
X178130662Y-61482451D01*
X178083043Y-61577689D01*
X178083043Y-61815784D01*
X178130662Y-61911022D01*
X178178281Y-61958641D01*
X178273520Y-62006260D01*
X178559234Y-62006260D01*
X178654472Y-61958641D01*
X178702091Y-61911022D01*
X184225900Y-63658641D02*
X184083043Y-63706260D01*
X183844948Y-63706260D01*
X183749710Y-63658641D01*
X183702091Y-63611022D01*
X183654472Y-63515784D01*
X183654472Y-63420546D01*
X183702091Y-63325308D01*
X183749710Y-63277689D01*
X183844948Y-63230070D01*
X184035424Y-63182451D01*
X184130662Y-63134832D01*
X184178281Y-63087213D01*
X184225900Y-62991975D01*
X184225900Y-62896737D01*
X184178281Y-62801499D01*
X184130662Y-62753880D01*
X184035424Y-62706260D01*
X183797329Y-62706260D01*
X183654472Y-62753880D01*
X182844948Y-63658641D02*
X182940186Y-63706260D01*
X183130662Y-63706260D01*
X183225900Y-63658641D01*
X183273520Y-63563403D01*
X183273520Y-63182451D01*
X183225900Y-63087213D01*
X183130662Y-63039594D01*
X182940186Y-63039594D01*
X182844948Y-63087213D01*
X182797329Y-63182451D01*
X182797329Y-63277689D01*
X183273520Y-63372927D01*
X182368758Y-63039594D02*
X182368758Y-64039594D01*
X182368758Y-63087213D02*
X182273520Y-63039594D01*
X182083043Y-63039594D01*
X181987805Y-63087213D01*
X181940186Y-63134832D01*
X181892567Y-63230070D01*
X181892567Y-63515784D01*
X181940186Y-63611022D01*
X181987805Y-63658641D01*
X182083043Y-63706260D01*
X182273520Y-63706260D01*
X182368758Y-63658641D01*
X180749710Y-62801499D02*
X180702091Y-62753880D01*
X180606853Y-62706260D01*
X180368758Y-62706260D01*
X180273520Y-62753880D01*
X180225900Y-62801499D01*
X180178281Y-62896737D01*
X180178281Y-62991975D01*
X180225900Y-63134832D01*
X180797329Y-63706260D01*
X180178281Y-63706260D01*
X179559234Y-62706260D02*
X179463996Y-62706260D01*
X179368758Y-62753880D01*
X179321139Y-62801499D01*
X179273520Y-62896737D01*
X179225900Y-63087213D01*
X179225900Y-63325308D01*
X179273520Y-63515784D01*
X179321139Y-63611022D01*
X179368758Y-63658641D01*
X179463996Y-63706260D01*
X179559234Y-63706260D01*
X179654472Y-63658641D01*
X179702091Y-63611022D01*
X179749710Y-63515784D01*
X179797329Y-63325308D01*
X179797329Y-63087213D01*
X179749710Y-62896737D01*
X179702091Y-62801499D01*
X179654472Y-62753880D01*
X179559234Y-62706260D01*
X178844948Y-62801499D02*
X178797329Y-62753880D01*
X178702091Y-62706260D01*
X178463996Y-62706260D01*
X178368758Y-62753880D01*
X178321139Y-62801499D01*
X178273520Y-62896737D01*
X178273520Y-62991975D01*
X178321139Y-63134832D01*
X178892567Y-63706260D01*
X178273520Y-63706260D01*
X177654472Y-62706260D02*
X177559234Y-62706260D01*
X177463996Y-62753880D01*
X177416377Y-62801499D01*
X177368758Y-62896737D01*
X177321139Y-63087213D01*
X177321139Y-63325308D01*
X177368758Y-63515784D01*
X177416377Y-63611022D01*
X177463996Y-63658641D01*
X177559234Y-63706260D01*
X177654472Y-63706260D01*
X177749710Y-63658641D01*
X177797329Y-63611022D01*
X177844948Y-63515784D01*
X177892567Y-63325308D01*
X177892567Y-63087213D01*
X177844948Y-62896737D01*
X177797329Y-62801499D01*
X177749710Y-62753880D01*
X177654472Y-62706260D01*
X183892567Y-64406260D02*
X183892567Y-65120546D01*
X183940186Y-65263403D01*
X184035424Y-65358641D01*
X184178281Y-65406260D01*
X184273520Y-65406260D01*
X182987805Y-65406260D02*
X182987805Y-64882451D01*
X183035424Y-64787213D01*
X183130662Y-64739594D01*
X183321139Y-64739594D01*
X183416377Y-64787213D01*
X182987805Y-65358641D02*
X183083043Y-65406260D01*
X183321139Y-65406260D01*
X183416377Y-65358641D01*
X183463996Y-65263403D01*
X183463996Y-65168165D01*
X183416377Y-65072927D01*
X183321139Y-65025308D01*
X183083043Y-65025308D01*
X182987805Y-64977689D01*
X182511615Y-65406260D02*
X182511615Y-64739594D01*
X182511615Y-64834832D02*
X182463996Y-64787213D01*
X182368758Y-64739594D01*
X182225900Y-64739594D01*
X182130662Y-64787213D01*
X182083043Y-64882451D01*
X182083043Y-65406260D01*
X182083043Y-64882451D02*
X182035424Y-64787213D01*
X181940186Y-64739594D01*
X181797329Y-64739594D01*
X181702091Y-64787213D01*
X181654472Y-64882451D01*
X181654472Y-65406260D01*
X180797329Y-65358641D02*
X180892567Y-65406260D01*
X181083043Y-65406260D01*
X181178281Y-65358641D01*
X181225900Y-65263403D01*
X181225900Y-64882451D01*
X181178281Y-64787213D01*
X181083043Y-64739594D01*
X180892567Y-64739594D01*
X180797329Y-64787213D01*
X180749710Y-64882451D01*
X180749710Y-64977689D01*
X181225900Y-65072927D01*
X180368758Y-65358641D02*
X180273520Y-65406260D01*
X180083043Y-65406260D01*
X179987805Y-65358641D01*
X179940186Y-65263403D01*
X179940186Y-65215784D01*
X179987805Y-65120546D01*
X180083043Y-65072927D01*
X180225900Y-65072927D01*
X180321139Y-65025308D01*
X180368758Y-64930070D01*
X180368758Y-64882451D01*
X180321139Y-64787213D01*
X180225900Y-64739594D01*
X180083043Y-64739594D01*
X179987805Y-64787213D01*
X178797329Y-65358641D02*
X178654472Y-65406260D01*
X178416377Y-65406260D01*
X178321139Y-65358641D01*
X178273520Y-65311022D01*
X178225900Y-65215784D01*
X178225900Y-65120546D01*
X178273520Y-65025308D01*
X178321139Y-64977689D01*
X178416377Y-64930070D01*
X178606853Y-64882451D01*
X178702091Y-64834832D01*
X178749710Y-64787213D01*
X178797329Y-64691975D01*
X178797329Y-64596737D01*
X178749710Y-64501499D01*
X178702091Y-64453880D01*
X178606853Y-64406260D01*
X178368758Y-64406260D01*
X178225900Y-64453880D01*
X177368758Y-65406260D02*
X177368758Y-64882451D01*
X177416377Y-64787213D01*
X177511615Y-64739594D01*
X177702091Y-64739594D01*
X177797329Y-64787213D01*
X177368758Y-65358641D02*
X177463996Y-65406260D01*
X177702091Y-65406260D01*
X177797329Y-65358641D01*
X177844948Y-65263403D01*
X177844948Y-65168165D01*
X177797329Y-65072927D01*
X177702091Y-65025308D01*
X177463996Y-65025308D01*
X177368758Y-64977689D01*
D12*
%TO.C,Logo_KiCad*%
G36*
X147497734Y-122420100D02*
G01*
X147155897Y-122538622D01*
X146837634Y-122725175D01*
X146553398Y-122979735D01*
X146313639Y-123302278D01*
X146205939Y-123505575D01*
X146112730Y-123789932D01*
X146067552Y-124118211D01*
X146072556Y-124455702D01*
X146128104Y-124761526D01*
X146279929Y-125135233D01*
X146500090Y-125459397D01*
X146777396Y-125727639D01*
X147100656Y-125933582D01*
X147458683Y-126070847D01*
X147840285Y-126133055D01*
X148234272Y-126113830D01*
X148428478Y-126072743D01*
X148806968Y-125925511D01*
X149143129Y-125700843D01*
X149428851Y-125405665D01*
X149656026Y-125046904D01*
X149675246Y-125007725D01*
X149741689Y-124860702D01*
X149783408Y-124736877D01*
X149806058Y-124606252D01*
X149815296Y-124438826D01*
X149816829Y-124256650D01*
X149814294Y-124037774D01*
X149802850Y-123879542D01*
X149776743Y-123751614D01*
X149730214Y-123623649D01*
X149672781Y-123497399D01*
X149458556Y-123139010D01*
X149194746Y-122848826D01*
X148891804Y-122626821D01*
X148560181Y-122472970D01*
X148210327Y-122387250D01*
X147852694Y-122369635D01*
X147497734Y-122420100D01*
G37*
X147497734Y-122420100D02*
X147155897Y-122538622D01*
X146837634Y-122725175D01*
X146553398Y-122979735D01*
X146313639Y-123302278D01*
X146205939Y-123505575D01*
X146112730Y-123789932D01*
X146067552Y-124118211D01*
X146072556Y-124455702D01*
X146128104Y-124761526D01*
X146279929Y-125135233D01*
X146500090Y-125459397D01*
X146777396Y-125727639D01*
X147100656Y-125933582D01*
X147458683Y-126070847D01*
X147840285Y-126133055D01*
X148234272Y-126113830D01*
X148428478Y-126072743D01*
X148806968Y-125925511D01*
X149143129Y-125700843D01*
X149428851Y-125405665D01*
X149656026Y-125046904D01*
X149675246Y-125007725D01*
X149741689Y-124860702D01*
X149783408Y-124736877D01*
X149806058Y-124606252D01*
X149815296Y-124438826D01*
X149816829Y-124256650D01*
X149814294Y-124037774D01*
X149802850Y-123879542D01*
X149776743Y-123751614D01*
X149730214Y-123623649D01*
X149672781Y-123497399D01*
X149458556Y-123139010D01*
X149194746Y-122848826D01*
X148891804Y-122626821D01*
X148560181Y-122472970D01*
X148210327Y-122387250D01*
X147852694Y-122369635D01*
X147497734Y-122420100D01*
G36*
X115774715Y-125471390D02*
G01*
X115387570Y-125472978D01*
X115255987Y-125473780D01*
X113446578Y-125485682D01*
X113423818Y-132427439D01*
X113420812Y-133368761D01*
X113418146Y-134223467D01*
X113415650Y-134995979D01*
X113413150Y-135690716D01*
X113410478Y-136312102D01*
X113407460Y-136864558D01*
X113403927Y-137352504D01*
X113399706Y-137780363D01*
X113394627Y-138152556D01*
X113388518Y-138473505D01*
X113381208Y-138747631D01*
X113372526Y-138979356D01*
X113362300Y-139173101D01*
X113350360Y-139333287D01*
X113336534Y-139464337D01*
X113320651Y-139570671D01*
X113302539Y-139656712D01*
X113282028Y-139726880D01*
X113258946Y-139785598D01*
X113233122Y-139837286D01*
X113204385Y-139886367D01*
X113172563Y-139937261D01*
X113137485Y-139994391D01*
X113130295Y-140006559D01*
X113009667Y-140212396D01*
X116496399Y-140188550D01*
X116519159Y-139805597D01*
X116531551Y-139621815D01*
X116544465Y-139515564D01*
X116561988Y-139473404D01*
X116588206Y-139481897D01*
X116610198Y-139506190D01*
X116705999Y-139594679D01*
X116862138Y-139708421D01*
X117056618Y-139833826D01*
X117267441Y-139957304D01*
X117472607Y-140065265D01*
X117630138Y-140136295D01*
X117999203Y-140253018D01*
X118422649Y-140335700D01*
X118869216Y-140381184D01*
X119307642Y-140386308D01*
X119706668Y-140347914D01*
X119713238Y-140346815D01*
X120259238Y-140209809D01*
X120770347Y-139991527D01*
X121241636Y-139696661D01*
X121668173Y-139329903D01*
X122045030Y-138895945D01*
X122367277Y-138399480D01*
X122629984Y-137845199D01*
X122773020Y-137434607D01*
X122867345Y-137091102D01*
X122937296Y-136758472D01*
X122985011Y-136416510D01*
X123012629Y-136045011D01*
X123022289Y-135623768D01*
X123018011Y-135279796D01*
X119659117Y-135279796D01*
X119643223Y-135856580D01*
X119593082Y-136352805D01*
X119507154Y-136772876D01*
X119383896Y-137121196D01*
X119221764Y-137402171D01*
X119019216Y-137620203D01*
X118785417Y-137774335D01*
X118663760Y-137831875D01*
X118558248Y-137866372D01*
X118440614Y-137882154D01*
X118282589Y-137883552D01*
X118112349Y-137877407D01*
X117777558Y-137847877D01*
X117512769Y-137790049D01*
X117429553Y-137761082D01*
X117239535Y-137675530D01*
X117039122Y-137568098D01*
X116951596Y-137514320D01*
X116723997Y-137365035D01*
X116723997Y-132633203D01*
X116974356Y-132483135D01*
X117323507Y-132313564D01*
X117680229Y-132213279D01*
X118031477Y-132181686D01*
X118364205Y-132218196D01*
X118665365Y-132322215D01*
X118921912Y-132493153D01*
X119004691Y-132575203D01*
X119204223Y-132844046D01*
X119365720Y-133169478D01*
X119490531Y-133557078D01*
X119580005Y-134012424D01*
X119635494Y-134541095D01*
X119658345Y-135148667D01*
X119659117Y-135279796D01*
X123018011Y-135279796D01*
X123016229Y-135136620D01*
X122977856Y-134387291D01*
X122900697Y-133711406D01*
X122782719Y-133099121D01*
X122621891Y-132540589D01*
X122416181Y-132025965D01*
X122342774Y-131873396D01*
X122047092Y-131375854D01*
X121689776Y-130933706D01*
X121279228Y-130554089D01*
X120823847Y-130244140D01*
X120332037Y-130010997D01*
X120037228Y-129914824D01*
X119747696Y-129857730D01*
X119399319Y-129823761D01*
X119021303Y-129812902D01*
X118642852Y-129825137D01*
X118293173Y-129860451D01*
X118012407Y-129915852D01*
X117678231Y-130024496D01*
X117354335Y-130164205D01*
X117070952Y-130320826D01*
X116920125Y-130427123D01*
X116816087Y-130506166D01*
X116743238Y-130554295D01*
X116726667Y-130561130D01*
X116721529Y-130517095D01*
X116716738Y-130390925D01*
X116712401Y-130191524D01*
X116708624Y-129927797D01*
X116705513Y-129608649D01*
X116703175Y-129242983D01*
X116701714Y-128839704D01*
X116701238Y-128428938D01*
X116701504Y-127902819D01*
X116702813Y-127459255D01*
X116705929Y-127089761D01*
X116711618Y-126785853D01*
X116720645Y-126539047D01*
X116733774Y-126340858D01*
X116751771Y-126182802D01*
X116775401Y-126056394D01*
X116805428Y-125953150D01*
X116842618Y-125864586D01*
X116887737Y-125782218D01*
X116941548Y-125697561D01*
X116948471Y-125687079D01*
X117017875Y-125577435D01*
X117059777Y-125502039D01*
X117065395Y-125486136D01*
X117021489Y-125481118D01*
X116896212Y-125477036D01*
X116699231Y-125473957D01*
X116440211Y-125471945D01*
X116128817Y-125471067D01*
X115774715Y-125471390D01*
G37*
X115774715Y-125471390D02*
X115387570Y-125472978D01*
X115255987Y-125473780D01*
X113446578Y-125485682D01*
X113423818Y-132427439D01*
X113420812Y-133368761D01*
X113418146Y-134223467D01*
X113415650Y-134995979D01*
X113413150Y-135690716D01*
X113410478Y-136312102D01*
X113407460Y-136864558D01*
X113403927Y-137352504D01*
X113399706Y-137780363D01*
X113394627Y-138152556D01*
X113388518Y-138473505D01*
X113381208Y-138747631D01*
X113372526Y-138979356D01*
X113362300Y-139173101D01*
X113350360Y-139333287D01*
X113336534Y-139464337D01*
X113320651Y-139570671D01*
X113302539Y-139656712D01*
X113282028Y-139726880D01*
X113258946Y-139785598D01*
X113233122Y-139837286D01*
X113204385Y-139886367D01*
X113172563Y-139937261D01*
X113137485Y-139994391D01*
X113130295Y-140006559D01*
X113009667Y-140212396D01*
X116496399Y-140188550D01*
X116519159Y-139805597D01*
X116531551Y-139621815D01*
X116544465Y-139515564D01*
X116561988Y-139473404D01*
X116588206Y-139481897D01*
X116610198Y-139506190D01*
X116705999Y-139594679D01*
X116862138Y-139708421D01*
X117056618Y-139833826D01*
X117267441Y-139957304D01*
X117472607Y-140065265D01*
X117630138Y-140136295D01*
X117999203Y-140253018D01*
X118422649Y-140335700D01*
X118869216Y-140381184D01*
X119307642Y-140386308D01*
X119706668Y-140347914D01*
X119713238Y-140346815D01*
X120259238Y-140209809D01*
X120770347Y-139991527D01*
X121241636Y-139696661D01*
X121668173Y-139329903D01*
X122045030Y-138895945D01*
X122367277Y-138399480D01*
X122629984Y-137845199D01*
X122773020Y-137434607D01*
X122867345Y-137091102D01*
X122937296Y-136758472D01*
X122985011Y-136416510D01*
X123012629Y-136045011D01*
X123022289Y-135623768D01*
X123018011Y-135279796D01*
X119659117Y-135279796D01*
X119643223Y-135856580D01*
X119593082Y-136352805D01*
X119507154Y-136772876D01*
X119383896Y-137121196D01*
X119221764Y-137402171D01*
X119019216Y-137620203D01*
X118785417Y-137774335D01*
X118663760Y-137831875D01*
X118558248Y-137866372D01*
X118440614Y-137882154D01*
X118282589Y-137883552D01*
X118112349Y-137877407D01*
X117777558Y-137847877D01*
X117512769Y-137790049D01*
X117429553Y-137761082D01*
X117239535Y-137675530D01*
X117039122Y-137568098D01*
X116951596Y-137514320D01*
X116723997Y-137365035D01*
X116723997Y-132633203D01*
X116974356Y-132483135D01*
X117323507Y-132313564D01*
X117680229Y-132213279D01*
X118031477Y-132181686D01*
X118364205Y-132218196D01*
X118665365Y-132322215D01*
X118921912Y-132493153D01*
X119004691Y-132575203D01*
X119204223Y-132844046D01*
X119365720Y-133169478D01*
X119490531Y-133557078D01*
X119580005Y-134012424D01*
X119635494Y-134541095D01*
X119658345Y-135148667D01*
X119659117Y-135279796D01*
X123018011Y-135279796D01*
X123016229Y-135136620D01*
X122977856Y-134387291D01*
X122900697Y-133711406D01*
X122782719Y-133099121D01*
X122621891Y-132540589D01*
X122416181Y-132025965D01*
X122342774Y-131873396D01*
X122047092Y-131375854D01*
X121689776Y-130933706D01*
X121279228Y-130554089D01*
X120823847Y-130244140D01*
X120332037Y-130010997D01*
X120037228Y-129914824D01*
X119747696Y-129857730D01*
X119399319Y-129823761D01*
X119021303Y-129812902D01*
X118642852Y-129825137D01*
X118293173Y-129860451D01*
X118012407Y-129915852D01*
X117678231Y-130024496D01*
X117354335Y-130164205D01*
X117070952Y-130320826D01*
X116920125Y-130427123D01*
X116816087Y-130506166D01*
X116743238Y-130554295D01*
X116726667Y-130561130D01*
X116721529Y-130517095D01*
X116716738Y-130390925D01*
X116712401Y-130191524D01*
X116708624Y-129927797D01*
X116705513Y-129608649D01*
X116703175Y-129242983D01*
X116701714Y-128839704D01*
X116701238Y-128428938D01*
X116701504Y-127902819D01*
X116702813Y-127459255D01*
X116705929Y-127089761D01*
X116711618Y-126785853D01*
X116720645Y-126539047D01*
X116733774Y-126340858D01*
X116751771Y-126182802D01*
X116775401Y-126056394D01*
X116805428Y-125953150D01*
X116842618Y-125864586D01*
X116887737Y-125782218D01*
X116941548Y-125697561D01*
X116948471Y-125687079D01*
X117017875Y-125577435D01*
X117059777Y-125502039D01*
X117065395Y-125486136D01*
X117021489Y-125481118D01*
X116896212Y-125477036D01*
X116699231Y-125473957D01*
X116440211Y-125471945D01*
X116128817Y-125471067D01*
X115774715Y-125471390D01*
G36*
X127958075Y-129805973D02*
G01*
X127732540Y-129823045D01*
X127087257Y-129908897D01*
X126515791Y-130045831D01*
X126015360Y-130235731D01*
X125583179Y-130480480D01*
X125216466Y-130781963D01*
X124912437Y-131142064D01*
X124668308Y-131562667D01*
X124490041Y-132017761D01*
X124444791Y-132162929D01*
X124405387Y-132298872D01*
X124371365Y-132432908D01*
X124342261Y-132572358D01*
X124317610Y-132724540D01*
X124296947Y-132896772D01*
X124279809Y-133096375D01*
X124265730Y-133330665D01*
X124254246Y-133606963D01*
X124244892Y-133932587D01*
X124237204Y-134314856D01*
X124230717Y-134761089D01*
X124224968Y-135278605D01*
X124219490Y-135874723D01*
X124215574Y-136342134D01*
X124189230Y-139551274D01*
X124018531Y-139860099D01*
X123937701Y-140008878D01*
X123877550Y-140124440D01*
X123848854Y-140185950D01*
X123847833Y-140190117D01*
X123891693Y-140194885D01*
X124016642Y-140199279D01*
X124212725Y-140203174D01*
X124469993Y-140206448D01*
X124778493Y-140208976D01*
X125128272Y-140210635D01*
X125509381Y-140211302D01*
X125554822Y-140211310D01*
X127261811Y-140211310D01*
X127261811Y-139824392D01*
X127264722Y-139649538D01*
X127272489Y-139515811D01*
X127283666Y-139444112D01*
X127288606Y-139437474D01*
X127333788Y-139465277D01*
X127426775Y-139538245D01*
X127547634Y-139640719D01*
X127550344Y-139643090D01*
X127770897Y-139807293D01*
X128049438Y-139972175D01*
X128354493Y-140121537D01*
X128654589Y-140239181D01*
X128786721Y-140279384D01*
X129049675Y-140330446D01*
X129372331Y-140363030D01*
X129725154Y-140376671D01*
X130078607Y-140370905D01*
X130403153Y-140345268D01*
X130630270Y-140308378D01*
X131187236Y-140144820D01*
X131688655Y-139911725D01*
X132131261Y-139611983D01*
X132511792Y-139248487D01*
X132826983Y-138824129D01*
X133073572Y-138341800D01*
X133179952Y-138049123D01*
X133246622Y-137764654D01*
X133290805Y-137423157D01*
X133311248Y-137056133D01*
X133310576Y-137002727D01*
X130231972Y-137002727D01*
X130206443Y-137275448D01*
X130121435Y-137502097D01*
X129964319Y-137712373D01*
X129903975Y-137774032D01*
X129689460Y-137940728D01*
X129441519Y-138047516D01*
X129144471Y-138099209D01*
X128831662Y-138103014D01*
X128534970Y-138077883D01*
X128307806Y-138028728D01*
X128209150Y-137991808D01*
X128031335Y-137891186D01*
X127842931Y-137749675D01*
X127671035Y-137590852D01*
X127542742Y-137438293D01*
X127508675Y-137382329D01*
X127482192Y-137303955D01*
X127463363Y-137179248D01*
X127451312Y-136996293D01*
X127445160Y-136743180D01*
X127443890Y-136502285D01*
X127444750Y-136221433D01*
X127448226Y-136018358D01*
X127455657Y-135879803D01*
X127468384Y-135792514D01*
X127487749Y-135743236D01*
X127515092Y-135718714D01*
X127523549Y-135714809D01*
X127597042Y-135702781D01*
X127741992Y-135692943D01*
X127938826Y-135686182D01*
X128167970Y-135683385D01*
X128217725Y-135683382D01*
X128524017Y-135688270D01*
X128760648Y-135702809D01*
X128948675Y-135728988D01*
X129103989Y-135767223D01*
X129489250Y-135912919D01*
X129791371Y-136092044D01*
X130012969Y-136307463D01*
X130156658Y-136562043D01*
X130225056Y-136858647D01*
X130231972Y-137002727D01*
X133310576Y-137002727D01*
X133306700Y-136695083D01*
X133275906Y-136371508D01*
X133251886Y-136240780D01*
X133098510Y-135755389D01*
X132865287Y-135308783D01*
X132556621Y-134905246D01*
X132176913Y-134549062D01*
X131730565Y-134244513D01*
X131221981Y-133995884D01*
X130789589Y-133844905D01*
X130500603Y-133765586D01*
X130224190Y-133703952D01*
X129942445Y-133658002D01*
X129637464Y-133625734D01*
X129291344Y-133605146D01*
X128886181Y-133594237D01*
X128519873Y-133591165D01*
X127433670Y-133588191D01*
X127454477Y-133261690D01*
X127513565Y-132907431D01*
X127639258Y-132602932D01*
X127826205Y-132355796D01*
X128069054Y-132173626D01*
X128282887Y-132084733D01*
X128589268Y-132028709D01*
X128954003Y-132020664D01*
X129359994Y-132057632D01*
X129790142Y-132136646D01*
X130227351Y-132254742D01*
X130654523Y-132408952D01*
X130964953Y-132549990D01*
X131114308Y-132622412D01*
X131228229Y-132672994D01*
X131286164Y-132692731D01*
X131289309Y-132692098D01*
X131309301Y-132647889D01*
X131359223Y-132530710D01*
X131434377Y-132351785D01*
X131530065Y-132122343D01*
X131641590Y-131853609D01*
X131754953Y-131579352D01*
X132208165Y-130480907D01*
X131885794Y-130427958D01*
X131746069Y-130401391D01*
X131536022Y-130356772D01*
X131273647Y-130298149D01*
X130976938Y-130229574D01*
X130663888Y-130155097D01*
X130539230Y-130124831D01*
X129999930Y-129999745D01*
X129527773Y-129905964D01*
X129105135Y-129841591D01*
X128714390Y-129804731D01*
X128337912Y-129793490D01*
X127958075Y-129805973D01*
G37*
X127958075Y-129805973D02*
X127732540Y-129823045D01*
X127087257Y-129908897D01*
X126515791Y-130045831D01*
X126015360Y-130235731D01*
X125583179Y-130480480D01*
X125216466Y-130781963D01*
X124912437Y-131142064D01*
X124668308Y-131562667D01*
X124490041Y-132017761D01*
X124444791Y-132162929D01*
X124405387Y-132298872D01*
X124371365Y-132432908D01*
X124342261Y-132572358D01*
X124317610Y-132724540D01*
X124296947Y-132896772D01*
X124279809Y-133096375D01*
X124265730Y-133330665D01*
X124254246Y-133606963D01*
X124244892Y-133932587D01*
X124237204Y-134314856D01*
X124230717Y-134761089D01*
X124224968Y-135278605D01*
X124219490Y-135874723D01*
X124215574Y-136342134D01*
X124189230Y-139551274D01*
X124018531Y-139860099D01*
X123937701Y-140008878D01*
X123877550Y-140124440D01*
X123848854Y-140185950D01*
X123847833Y-140190117D01*
X123891693Y-140194885D01*
X124016642Y-140199279D01*
X124212725Y-140203174D01*
X124469993Y-140206448D01*
X124778493Y-140208976D01*
X125128272Y-140210635D01*
X125509381Y-140211302D01*
X125554822Y-140211310D01*
X127261811Y-140211310D01*
X127261811Y-139824392D01*
X127264722Y-139649538D01*
X127272489Y-139515811D01*
X127283666Y-139444112D01*
X127288606Y-139437474D01*
X127333788Y-139465277D01*
X127426775Y-139538245D01*
X127547634Y-139640719D01*
X127550344Y-139643090D01*
X127770897Y-139807293D01*
X128049438Y-139972175D01*
X128354493Y-140121537D01*
X128654589Y-140239181D01*
X128786721Y-140279384D01*
X129049675Y-140330446D01*
X129372331Y-140363030D01*
X129725154Y-140376671D01*
X130078607Y-140370905D01*
X130403153Y-140345268D01*
X130630270Y-140308378D01*
X131187236Y-140144820D01*
X131688655Y-139911725D01*
X132131261Y-139611983D01*
X132511792Y-139248487D01*
X132826983Y-138824129D01*
X133073572Y-138341800D01*
X133179952Y-138049123D01*
X133246622Y-137764654D01*
X133290805Y-137423157D01*
X133311248Y-137056133D01*
X133310576Y-137002727D01*
X130231972Y-137002727D01*
X130206443Y-137275448D01*
X130121435Y-137502097D01*
X129964319Y-137712373D01*
X129903975Y-137774032D01*
X129689460Y-137940728D01*
X129441519Y-138047516D01*
X129144471Y-138099209D01*
X128831662Y-138103014D01*
X128534970Y-138077883D01*
X128307806Y-138028728D01*
X128209150Y-137991808D01*
X128031335Y-137891186D01*
X127842931Y-137749675D01*
X127671035Y-137590852D01*
X127542742Y-137438293D01*
X127508675Y-137382329D01*
X127482192Y-137303955D01*
X127463363Y-137179248D01*
X127451312Y-136996293D01*
X127445160Y-136743180D01*
X127443890Y-136502285D01*
X127444750Y-136221433D01*
X127448226Y-136018358D01*
X127455657Y-135879803D01*
X127468384Y-135792514D01*
X127487749Y-135743236D01*
X127515092Y-135718714D01*
X127523549Y-135714809D01*
X127597042Y-135702781D01*
X127741992Y-135692943D01*
X127938826Y-135686182D01*
X128167970Y-135683385D01*
X128217725Y-135683382D01*
X128524017Y-135688270D01*
X128760648Y-135702809D01*
X128948675Y-135728988D01*
X129103989Y-135767223D01*
X129489250Y-135912919D01*
X129791371Y-136092044D01*
X130012969Y-136307463D01*
X130156658Y-136562043D01*
X130225056Y-136858647D01*
X130231972Y-137002727D01*
X133310576Y-137002727D01*
X133306700Y-136695083D01*
X133275906Y-136371508D01*
X133251886Y-136240780D01*
X133098510Y-135755389D01*
X132865287Y-135308783D01*
X132556621Y-134905246D01*
X132176913Y-134549062D01*
X131730565Y-134244513D01*
X131221981Y-133995884D01*
X130789589Y-133844905D01*
X130500603Y-133765586D01*
X130224190Y-133703952D01*
X129942445Y-133658002D01*
X129637464Y-133625734D01*
X129291344Y-133605146D01*
X128886181Y-133594237D01*
X128519873Y-133591165D01*
X127433670Y-133588191D01*
X127454477Y-133261690D01*
X127513565Y-132907431D01*
X127639258Y-132602932D01*
X127826205Y-132355796D01*
X128069054Y-132173626D01*
X128282887Y-132084733D01*
X128589268Y-132028709D01*
X128954003Y-132020664D01*
X129359994Y-132057632D01*
X129790142Y-132136646D01*
X130227351Y-132254742D01*
X130654523Y-132408952D01*
X130964953Y-132549990D01*
X131114308Y-132622412D01*
X131228229Y-132672994D01*
X131286164Y-132692731D01*
X131289309Y-132692098D01*
X131309301Y-132647889D01*
X131359223Y-132530710D01*
X131434377Y-132351785D01*
X131530065Y-132122343D01*
X131641590Y-131853609D01*
X131754953Y-131579352D01*
X132208165Y-130480907D01*
X131885794Y-130427958D01*
X131746069Y-130401391D01*
X131536022Y-130356772D01*
X131273647Y-130298149D01*
X130976938Y-130229574D01*
X130663888Y-130155097D01*
X130539230Y-130124831D01*
X129999930Y-129999745D01*
X129527773Y-129905964D01*
X129105135Y-129841591D01*
X128714390Y-129804731D01*
X128337912Y-129793490D01*
X127958075Y-129805973D01*
G36*
X137001005Y-126146655D02*
G01*
X136510150Y-126200392D01*
X136034594Y-126296576D01*
X135554993Y-126440222D01*
X135052000Y-126636349D01*
X134506270Y-126889972D01*
X134407991Y-126939099D01*
X134182454Y-127050210D01*
X133969741Y-127150259D01*
X133790847Y-127229692D01*
X133666766Y-127278952D01*
X133647705Y-127285154D01*
X133465037Y-127339883D01*
X134282734Y-128529449D01*
X134482650Y-128820185D01*
X134665429Y-129085810D01*
X134824855Y-129317307D01*
X134954712Y-129505657D01*
X135048785Y-129641843D01*
X135100858Y-129716845D01*
X135109318Y-129728724D01*
X135143679Y-129703888D01*
X135228261Y-129629227D01*
X135347937Y-129518302D01*
X135413984Y-129455605D01*
X135788189Y-129157973D01*
X136208449Y-128931806D01*
X136570592Y-128807922D01*
X136787981Y-128769015D01*
X137060171Y-128745306D01*
X137355149Y-128737233D01*
X137640900Y-128745237D01*
X137885412Y-128769757D01*
X137982982Y-128788535D01*
X138422748Y-128939834D01*
X138819030Y-129170853D01*
X139171534Y-129481168D01*
X139479966Y-129870358D01*
X139744034Y-130338000D01*
X139963444Y-130883672D01*
X140137903Y-131506951D01*
X140241585Y-132040521D01*
X140268636Y-132276071D01*
X140287066Y-132580367D01*
X140297055Y-132931542D01*
X140298781Y-133307730D01*
X140292421Y-133687063D01*
X140278154Y-134047674D01*
X140256158Y-134367697D01*
X140226610Y-134625264D01*
X140220214Y-134665004D01*
X140079242Y-135305127D01*
X139887167Y-135871666D01*
X139642822Y-136367157D01*
X139345036Y-136794140D01*
X139133660Y-137024985D01*
X138753784Y-137338406D01*
X138337180Y-137570727D01*
X137890876Y-137720685D01*
X137421899Y-137787016D01*
X136937277Y-137768455D01*
X136444038Y-137663737D01*
X136152427Y-137561272D01*
X135748884Y-137356087D01*
X135332960Y-137061755D01*
X135099978Y-136862713D01*
X134969158Y-136747511D01*
X134866376Y-136662992D01*
X134807872Y-136622266D01*
X134800610Y-136621023D01*
X134774498Y-136662638D01*
X134706839Y-136772607D01*
X134603398Y-136941502D01*
X134469938Y-137159896D01*
X134312222Y-137418360D01*
X134136016Y-137707468D01*
X134037937Y-137868520D01*
X133288782Y-139099029D01*
X134224132Y-139561276D01*
X134562320Y-139727314D01*
X134836281Y-139858242D01*
X135062761Y-139960564D01*
X135258508Y-140040782D01*
X135440266Y-140105398D01*
X135624783Y-140160915D01*
X135828804Y-140213836D01*
X136024356Y-140260309D01*
X136198168Y-140296269D01*
X136379940Y-140323445D01*
X136587871Y-140343345D01*
X136840155Y-140357476D01*
X137154992Y-140367347D01*
X137367187Y-140371608D01*
X137669955Y-140374516D01*
X137960271Y-140373050D01*
X138218922Y-140367627D01*
X138426697Y-140358666D01*
X138564383Y-140346585D01*
X138572542Y-140345380D01*
X139287508Y-140190701D01*
X139958911Y-139956109D01*
X140586513Y-139641758D01*
X141170079Y-139247804D01*
X141709373Y-138774400D01*
X142204159Y-138221702D01*
X142562495Y-137730485D01*
X142943975Y-137087524D01*
X143252345Y-136408519D01*
X143489096Y-135688027D01*
X143655720Y-134920603D01*
X143753707Y-134100805D01*
X143784578Y-133268359D01*
X143759188Y-132463083D01*
X143679400Y-131720097D01*
X143542679Y-131026869D01*
X143346488Y-130370866D01*
X143088294Y-129739556D01*
X143057464Y-129674151D01*
X142717817Y-129062759D01*
X142300656Y-128480959D01*
X141817801Y-127940793D01*
X141281070Y-127454304D01*
X140702283Y-127033534D01*
X140162971Y-126724884D01*
X139618153Y-126483143D01*
X139072178Y-126308032D01*
X138503912Y-126194781D01*
X137892218Y-126138627D01*
X137526506Y-126130347D01*
X137001005Y-126146655D01*
G37*
X137001005Y-126146655D02*
X136510150Y-126200392D01*
X136034594Y-126296576D01*
X135554993Y-126440222D01*
X135052000Y-126636349D01*
X134506270Y-126889972D01*
X134407991Y-126939099D01*
X134182454Y-127050210D01*
X133969741Y-127150259D01*
X133790847Y-127229692D01*
X133666766Y-127278952D01*
X133647705Y-127285154D01*
X133465037Y-127339883D01*
X134282734Y-128529449D01*
X134482650Y-128820185D01*
X134665429Y-129085810D01*
X134824855Y-129317307D01*
X134954712Y-129505657D01*
X135048785Y-129641843D01*
X135100858Y-129716845D01*
X135109318Y-129728724D01*
X135143679Y-129703888D01*
X135228261Y-129629227D01*
X135347937Y-129518302D01*
X135413984Y-129455605D01*
X135788189Y-129157973D01*
X136208449Y-128931806D01*
X136570592Y-128807922D01*
X136787981Y-128769015D01*
X137060171Y-128745306D01*
X137355149Y-128737233D01*
X137640900Y-128745237D01*
X137885412Y-128769757D01*
X137982982Y-128788535D01*
X138422748Y-128939834D01*
X138819030Y-129170853D01*
X139171534Y-129481168D01*
X139479966Y-129870358D01*
X139744034Y-130338000D01*
X139963444Y-130883672D01*
X140137903Y-131506951D01*
X140241585Y-132040521D01*
X140268636Y-132276071D01*
X140287066Y-132580367D01*
X140297055Y-132931542D01*
X140298781Y-133307730D01*
X140292421Y-133687063D01*
X140278154Y-134047674D01*
X140256158Y-134367697D01*
X140226610Y-134625264D01*
X140220214Y-134665004D01*
X140079242Y-135305127D01*
X139887167Y-135871666D01*
X139642822Y-136367157D01*
X139345036Y-136794140D01*
X139133660Y-137024985D01*
X138753784Y-137338406D01*
X138337180Y-137570727D01*
X137890876Y-137720685D01*
X137421899Y-137787016D01*
X136937277Y-137768455D01*
X136444038Y-137663737D01*
X136152427Y-137561272D01*
X135748884Y-137356087D01*
X135332960Y-137061755D01*
X135099978Y-136862713D01*
X134969158Y-136747511D01*
X134866376Y-136662992D01*
X134807872Y-136622266D01*
X134800610Y-136621023D01*
X134774498Y-136662638D01*
X134706839Y-136772607D01*
X134603398Y-136941502D01*
X134469938Y-137159896D01*
X134312222Y-137418360D01*
X134136016Y-137707468D01*
X134037937Y-137868520D01*
X133288782Y-139099029D01*
X134224132Y-139561276D01*
X134562320Y-139727314D01*
X134836281Y-139858242D01*
X135062761Y-139960564D01*
X135258508Y-140040782D01*
X135440266Y-140105398D01*
X135624783Y-140160915D01*
X135828804Y-140213836D01*
X136024356Y-140260309D01*
X136198168Y-140296269D01*
X136379940Y-140323445D01*
X136587871Y-140343345D01*
X136840155Y-140357476D01*
X137154992Y-140367347D01*
X137367187Y-140371608D01*
X137669955Y-140374516D01*
X137960271Y-140373050D01*
X138218922Y-140367627D01*
X138426697Y-140358666D01*
X138564383Y-140346585D01*
X138572542Y-140345380D01*
X139287508Y-140190701D01*
X139958911Y-139956109D01*
X140586513Y-139641758D01*
X141170079Y-139247804D01*
X141709373Y-138774400D01*
X142204159Y-138221702D01*
X142562495Y-137730485D01*
X142943975Y-137087524D01*
X143252345Y-136408519D01*
X143489096Y-135688027D01*
X143655720Y-134920603D01*
X143753707Y-134100805D01*
X143784578Y-133268359D01*
X143759188Y-132463083D01*
X143679400Y-131720097D01*
X143542679Y-131026869D01*
X143346488Y-130370866D01*
X143088294Y-129739556D01*
X143057464Y-129674151D01*
X142717817Y-129062759D01*
X142300656Y-128480959D01*
X141817801Y-127940793D01*
X141281070Y-127454304D01*
X140702283Y-127033534D01*
X140162971Y-126724884D01*
X139618153Y-126483143D01*
X139072178Y-126308032D01*
X138503912Y-126194781D01*
X137892218Y-126138627D01*
X137526506Y-126130347D01*
X137001005Y-126146655D01*
G36*
X158205403Y-123869596D02*
G01*
X157328399Y-123869714D01*
X156920165Y-123869732D01*
X150385825Y-123869732D01*
X150385825Y-124254916D01*
X150344713Y-124723653D01*
X150220633Y-125155958D01*
X150012470Y-125554400D01*
X149719110Y-125921549D01*
X149619857Y-126020709D01*
X149262819Y-126301978D01*
X148869142Y-126507114D01*
X148450521Y-126636210D01*
X148018648Y-126689359D01*
X147585215Y-126666654D01*
X147161915Y-126568188D01*
X146760441Y-126394056D01*
X146392486Y-126144348D01*
X146227232Y-125993695D01*
X145919282Y-125624320D01*
X145693466Y-125218129D01*
X145551754Y-124779764D01*
X145496113Y-124313870D01*
X145495374Y-124268037D01*
X145492456Y-123869747D01*
X145317401Y-123869740D01*
X145162110Y-123890815D01*
X145020253Y-123942094D01*
X145010878Y-123947392D01*
X144978839Y-123964016D01*
X144949417Y-123976963D01*
X144922507Y-123990004D01*
X144898002Y-124006910D01*
X144875795Y-124031452D01*
X144855780Y-124067401D01*
X144837852Y-124118529D01*
X144821903Y-124188605D01*
X144807828Y-124281403D01*
X144795519Y-124400692D01*
X144784872Y-124550244D01*
X144775778Y-124733829D01*
X144768133Y-124955220D01*
X144761829Y-125218187D01*
X144756760Y-125526501D01*
X144752821Y-125883933D01*
X144749904Y-126294255D01*
X144747904Y-126761238D01*
X144746714Y-127288652D01*
X144746227Y-127880269D01*
X144746338Y-128539861D01*
X144746939Y-129271197D01*
X144747926Y-130078049D01*
X144749191Y-130964189D01*
X144750628Y-131933388D01*
X144752130Y-132989416D01*
X144752305Y-133118075D01*
X144753652Y-134180838D01*
X144754795Y-135156331D01*
X144755855Y-136048324D01*
X144756954Y-136860586D01*
X144758211Y-137596888D01*
X144759748Y-138260997D01*
X144761687Y-138856684D01*
X144764148Y-139387719D01*
X144767252Y-139857869D01*
X144771120Y-140270906D01*
X144775874Y-140630598D01*
X144781635Y-140940715D01*
X144788523Y-141205026D01*
X144796660Y-141427300D01*
X144806166Y-141611308D01*
X144817163Y-141760818D01*
X144829772Y-141879600D01*
X144844114Y-141971423D01*
X144860310Y-142040056D01*
X144878481Y-142089270D01*
X144898748Y-142122834D01*
X144921232Y-142144516D01*
X144946054Y-142158086D01*
X144973336Y-142167315D01*
X145003198Y-142175970D01*
X145035761Y-142187822D01*
X145043716Y-142191430D01*
X145068717Y-142199537D01*
X145110561Y-142206986D01*
X145172903Y-142213803D01*
X145259396Y-142220015D01*
X145373693Y-142225648D01*
X145519448Y-142230728D01*
X145700316Y-142235283D01*
X145919950Y-142239339D01*
X146182003Y-142242921D01*
X146490129Y-142246058D01*
X146847982Y-142248775D01*
X147259216Y-142251099D01*
X147727484Y-142253056D01*
X148256440Y-142254672D01*
X148849737Y-142255976D01*
X149511030Y-142256992D01*
X150243973Y-142257747D01*
X151052218Y-142258269D01*
X151939420Y-142258583D01*
X152909231Y-142258715D01*
X153965307Y-142258694D01*
X154307400Y-142258660D01*
X155386904Y-142258487D01*
X156379067Y-142258204D01*
X157287585Y-142257781D01*
X158116155Y-142257191D01*
X158868476Y-142256404D01*
X159548245Y-142255391D01*
X160159159Y-142254123D01*
X160704916Y-142252572D01*
X161189212Y-142250709D01*
X161615746Y-142248504D01*
X161988215Y-142245929D01*
X162310316Y-142242955D01*
X162585747Y-142239553D01*
X162818205Y-142235694D01*
X163011388Y-142231350D01*
X163168992Y-142226490D01*
X163294716Y-142221087D01*
X163392257Y-142215112D01*
X163465312Y-142208536D01*
X163517579Y-142201329D01*
X163552755Y-142193463D01*
X163571931Y-142186260D01*
X163606012Y-142171887D01*
X163637305Y-142161288D01*
X163665927Y-142150699D01*
X163691997Y-142136355D01*
X163715634Y-142114493D01*
X163736955Y-142081349D01*
X163756080Y-142033159D01*
X163773127Y-141966158D01*
X163788214Y-141876582D01*
X163801460Y-141760668D01*
X163812983Y-141614650D01*
X163822902Y-141434767D01*
X163831335Y-141217252D01*
X163838401Y-140958342D01*
X163844218Y-140654273D01*
X163848905Y-140301281D01*
X163850132Y-140165790D01*
X162635261Y-140165790D01*
X158341305Y-140165790D01*
X158423928Y-140040611D01*
X158506122Y-139911973D01*
X158575726Y-139789476D01*
X158633728Y-139664547D01*
X158681121Y-139528615D01*
X158718893Y-139373106D01*
X158748035Y-139189448D01*
X158769536Y-138969068D01*
X158784388Y-138703393D01*
X158793579Y-138383852D01*
X158798100Y-138001872D01*
X158798941Y-137548879D01*
X158797092Y-137016303D01*
X158796043Y-136818580D01*
X158784212Y-134698899D01*
X157441381Y-136527044D01*
X157060959Y-137045666D01*
X156731369Y-137497265D01*
X156449051Y-137887824D01*
X156210449Y-138223327D01*
X156012001Y-138509755D01*
X155850151Y-138753093D01*
X155721338Y-138959324D01*
X155622004Y-139134429D01*
X155548591Y-139284393D01*
X155497539Y-139415198D01*
X155465290Y-139532827D01*
X155448285Y-139643263D01*
X155442965Y-139752489D01*
X155445772Y-139866488D01*
X155446488Y-139880817D01*
X155461273Y-140165981D01*
X153108387Y-140165885D01*
X150755501Y-140165790D01*
X151105520Y-139812859D01*
X151200500Y-139716330D01*
X151290603Y-139622402D01*
X151379786Y-139525897D01*
X151472000Y-139421634D01*
X151571202Y-139304432D01*
X151681345Y-139169112D01*
X151806383Y-139010494D01*
X151950272Y-138823398D01*
X152116964Y-138602643D01*
X152310416Y-138343049D01*
X152534580Y-138039437D01*
X152793411Y-137686626D01*
X153090864Y-137279437D01*
X153430892Y-136812688D01*
X153817451Y-136281201D01*
X154134296Y-135845226D01*
X154531947Y-135297513D01*
X154878840Y-134818622D01*
X155178117Y-134404005D01*
X155432921Y-134049116D01*
X155646394Y-133749409D01*
X155821679Y-133500337D01*
X155961919Y-133297353D01*
X156070255Y-133135911D01*
X156149831Y-133011464D01*
X156203788Y-132919465D01*
X156235270Y-132855367D01*
X156247419Y-132814624D01*
X156243767Y-132793204D01*
X156199515Y-132736200D01*
X156103840Y-132615540D01*
X155962515Y-132438394D01*
X155781313Y-132211935D01*
X155566006Y-131943334D01*
X155322369Y-131639764D01*
X155056174Y-131308397D01*
X154773194Y-130956405D01*
X154479202Y-130590959D01*
X154179971Y-130219232D01*
X154015385Y-130014894D01*
X149928906Y-130014894D01*
X149589230Y-130629410D01*
X149589230Y-139551274D01*
X149928906Y-140165790D01*
X147919845Y-140165790D01*
X147440228Y-140165650D01*
X147044071Y-140165021D01*
X146723796Y-140163585D01*
X146471823Y-140161026D01*
X146280574Y-140157027D01*
X146142469Y-140151271D01*
X146049929Y-140143441D01*
X145995376Y-140133222D01*
X145971231Y-140120295D01*
X145969914Y-140104345D01*
X145983848Y-140085055D01*
X145983992Y-140084896D01*
X146041386Y-140001872D01*
X146117388Y-139866877D01*
X146184506Y-139732118D01*
X146311811Y-139460234D01*
X146324795Y-134737564D01*
X146337778Y-130014894D01*
X149928906Y-130014894D01*
X154015385Y-130014894D01*
X153881275Y-129848395D01*
X153588886Y-129485621D01*
X153308576Y-129138082D01*
X153046121Y-128812949D01*
X152807291Y-128517395D01*
X152597861Y-128258591D01*
X152423603Y-128043710D01*
X152290291Y-127879923D01*
X152211989Y-127784428D01*
X151907932Y-127427327D01*
X151615413Y-127105077D01*
X151344686Y-126828226D01*
X151106001Y-126607326D01*
X150936612Y-126471895D01*
X150736324Y-126327797D01*
X155342726Y-126327797D01*
X155341433Y-126598104D01*
X155354307Y-126796831D01*
X155402707Y-126981071D01*
X155477630Y-127155720D01*
X155526333Y-127254386D01*
X155578698Y-127352151D01*
X155639507Y-127455504D01*
X155713545Y-127570936D01*
X155805595Y-127704936D01*
X155920441Y-127863996D01*
X156062865Y-128054604D01*
X156237652Y-128283252D01*
X156449585Y-128556430D01*
X156703448Y-128880627D01*
X157004024Y-129262334D01*
X157356096Y-129708041D01*
X157395861Y-129758332D01*
X158784212Y-131514018D01*
X158797653Y-129569563D01*
X158800359Y-128987142D01*
X158799783Y-128494077D01*
X158795896Y-128088743D01*
X158788671Y-127769514D01*
X158778078Y-127534766D01*
X158764091Y-127382873D01*
X158759390Y-127354060D01*
X158685633Y-127050555D01*
X158588996Y-126776944D01*
X158478721Y-126556950D01*
X158412472Y-126463646D01*
X158298163Y-126327797D01*
X160467082Y-126327797D01*
X160984468Y-126328239D01*
X161417122Y-126329679D01*
X161771349Y-126332284D01*
X162053454Y-126336222D01*
X162269740Y-126341661D01*
X162426511Y-126348769D01*
X162530073Y-126357714D01*
X162586729Y-126368665D01*
X162602783Y-126381790D01*
X162601673Y-126384697D01*
X162555694Y-126454099D01*
X162478933Y-126564107D01*
X162439219Y-126619744D01*
X162398158Y-126675266D01*
X162361252Y-126724917D01*
X162328266Y-126773582D01*
X162298969Y-126826149D01*
X162273128Y-126887504D01*
X162250511Y-126962532D01*
X162230886Y-127056119D01*
X162214020Y-127173152D01*
X162199681Y-127318517D01*
X162187636Y-127497099D01*
X162177653Y-127713785D01*
X162169500Y-127973462D01*
X162162945Y-128281014D01*
X162157754Y-128641329D01*
X162153696Y-129059292D01*
X162150539Y-129539790D01*
X162148049Y-130087708D01*
X162145995Y-130707932D01*
X162144143Y-131405349D01*
X162142263Y-132184846D01*
X162140506Y-132900950D01*
X162138846Y-133699281D01*
X162137984Y-134460964D01*
X162137895Y-135181133D01*
X162138556Y-135854923D01*
X162139946Y-136477468D01*
X162142041Y-137043904D01*
X162144817Y-137549366D01*
X162148253Y-137988988D01*
X162152325Y-138357905D01*
X162157010Y-138651252D01*
X162162286Y-138864164D01*
X162168129Y-138991776D01*
X162169235Y-139005262D01*
X162209501Y-139314640D01*
X162272366Y-139563104D01*
X162368099Y-139779944D01*
X162506974Y-139994447D01*
X162524345Y-140017851D01*
X162635261Y-140165790D01*
X163850132Y-140165790D01*
X163852580Y-139895602D01*
X163855361Y-139433471D01*
X163857367Y-138911125D01*
X163858717Y-138324800D01*
X163859529Y-137670731D01*
X163859920Y-136945155D01*
X163860011Y-136144307D01*
X163859920Y-135264423D01*
X163859764Y-134301739D01*
X163859663Y-133252492D01*
X163859660Y-133044195D01*
X163859601Y-131983897D01*
X163859404Y-131010902D01*
X163859040Y-130121473D01*
X163858480Y-129311875D01*
X163857696Y-128578369D01*
X163856657Y-127917220D01*
X163855336Y-127324692D01*
X163853703Y-126797047D01*
X163851729Y-126330549D01*
X163849386Y-125921462D01*
X163846644Y-125566049D01*
X163843474Y-125260574D01*
X163839847Y-125001300D01*
X163835735Y-124784490D01*
X163831108Y-124606409D01*
X163825938Y-124463319D01*
X163820195Y-124351484D01*
X163813851Y-124267167D01*
X163806876Y-124206633D01*
X163799241Y-124166144D01*
X163790918Y-124141964D01*
X163790610Y-124141361D01*
X163773467Y-124104422D01*
X163759189Y-124070980D01*
X163743395Y-124040862D01*
X163721702Y-124013894D01*
X163689732Y-123989903D01*
X163643102Y-123968716D01*
X163577431Y-123950160D01*
X163488339Y-123934061D01*
X163371444Y-123920246D01*
X163222366Y-123908543D01*
X163036722Y-123898777D01*
X162810133Y-123890776D01*
X162538218Y-123884366D01*
X162216594Y-123879375D01*
X161840882Y-123875629D01*
X161406699Y-123872954D01*
X160909666Y-123871178D01*
X160345401Y-123870127D01*
X159709522Y-123869629D01*
X158997650Y-123869509D01*
X158205403Y-123869596D01*
G37*
X158205403Y-123869596D02*
X157328399Y-123869714D01*
X156920165Y-123869732D01*
X150385825Y-123869732D01*
X150385825Y-124254916D01*
X150344713Y-124723653D01*
X150220633Y-125155958D01*
X150012470Y-125554400D01*
X149719110Y-125921549D01*
X149619857Y-126020709D01*
X149262819Y-126301978D01*
X148869142Y-126507114D01*
X148450521Y-126636210D01*
X148018648Y-126689359D01*
X147585215Y-126666654D01*
X147161915Y-126568188D01*
X146760441Y-126394056D01*
X146392486Y-126144348D01*
X146227232Y-125993695D01*
X145919282Y-125624320D01*
X145693466Y-125218129D01*
X145551754Y-124779764D01*
X145496113Y-124313870D01*
X145495374Y-124268037D01*
X145492456Y-123869747D01*
X145317401Y-123869740D01*
X145162110Y-123890815D01*
X145020253Y-123942094D01*
X145010878Y-123947392D01*
X144978839Y-123964016D01*
X144949417Y-123976963D01*
X144922507Y-123990004D01*
X144898002Y-124006910D01*
X144875795Y-124031452D01*
X144855780Y-124067401D01*
X144837852Y-124118529D01*
X144821903Y-124188605D01*
X144807828Y-124281403D01*
X144795519Y-124400692D01*
X144784872Y-124550244D01*
X144775778Y-124733829D01*
X144768133Y-124955220D01*
X144761829Y-125218187D01*
X144756760Y-125526501D01*
X144752821Y-125883933D01*
X144749904Y-126294255D01*
X144747904Y-126761238D01*
X144746714Y-127288652D01*
X144746227Y-127880269D01*
X144746338Y-128539861D01*
X144746939Y-129271197D01*
X144747926Y-130078049D01*
X144749191Y-130964189D01*
X144750628Y-131933388D01*
X144752130Y-132989416D01*
X144752305Y-133118075D01*
X144753652Y-134180838D01*
X144754795Y-135156331D01*
X144755855Y-136048324D01*
X144756954Y-136860586D01*
X144758211Y-137596888D01*
X144759748Y-138260997D01*
X144761687Y-138856684D01*
X144764148Y-139387719D01*
X144767252Y-139857869D01*
X144771120Y-140270906D01*
X144775874Y-140630598D01*
X144781635Y-140940715D01*
X144788523Y-141205026D01*
X144796660Y-141427300D01*
X144806166Y-141611308D01*
X144817163Y-141760818D01*
X144829772Y-141879600D01*
X144844114Y-141971423D01*
X144860310Y-142040056D01*
X144878481Y-142089270D01*
X144898748Y-142122834D01*
X144921232Y-142144516D01*
X144946054Y-142158086D01*
X144973336Y-142167315D01*
X145003198Y-142175970D01*
X145035761Y-142187822D01*
X145043716Y-142191430D01*
X145068717Y-142199537D01*
X145110561Y-142206986D01*
X145172903Y-142213803D01*
X145259396Y-142220015D01*
X145373693Y-142225648D01*
X145519448Y-142230728D01*
X145700316Y-142235283D01*
X145919950Y-142239339D01*
X146182003Y-142242921D01*
X146490129Y-142246058D01*
X146847982Y-142248775D01*
X147259216Y-142251099D01*
X147727484Y-142253056D01*
X148256440Y-142254672D01*
X148849737Y-142255976D01*
X149511030Y-142256992D01*
X150243973Y-142257747D01*
X151052218Y-142258269D01*
X151939420Y-142258583D01*
X152909231Y-142258715D01*
X153965307Y-142258694D01*
X154307400Y-142258660D01*
X155386904Y-142258487D01*
X156379067Y-142258204D01*
X157287585Y-142257781D01*
X158116155Y-142257191D01*
X158868476Y-142256404D01*
X159548245Y-142255391D01*
X160159159Y-142254123D01*
X160704916Y-142252572D01*
X161189212Y-142250709D01*
X161615746Y-142248504D01*
X161988215Y-142245929D01*
X162310316Y-142242955D01*
X162585747Y-142239553D01*
X162818205Y-142235694D01*
X163011388Y-142231350D01*
X163168992Y-142226490D01*
X163294716Y-142221087D01*
X163392257Y-142215112D01*
X163465312Y-142208536D01*
X163517579Y-142201329D01*
X163552755Y-142193463D01*
X163571931Y-142186260D01*
X163606012Y-142171887D01*
X163637305Y-142161288D01*
X163665927Y-142150699D01*
X163691997Y-142136355D01*
X163715634Y-142114493D01*
X163736955Y-142081349D01*
X163756080Y-142033159D01*
X163773127Y-141966158D01*
X163788214Y-141876582D01*
X163801460Y-141760668D01*
X163812983Y-141614650D01*
X163822902Y-141434767D01*
X163831335Y-141217252D01*
X163838401Y-140958342D01*
X163844218Y-140654273D01*
X163848905Y-140301281D01*
X163850132Y-140165790D01*
X162635261Y-140165790D01*
X158341305Y-140165790D01*
X158423928Y-140040611D01*
X158506122Y-139911973D01*
X158575726Y-139789476D01*
X158633728Y-139664547D01*
X158681121Y-139528615D01*
X158718893Y-139373106D01*
X158748035Y-139189448D01*
X158769536Y-138969068D01*
X158784388Y-138703393D01*
X158793579Y-138383852D01*
X158798100Y-138001872D01*
X158798941Y-137548879D01*
X158797092Y-137016303D01*
X158796043Y-136818580D01*
X158784212Y-134698899D01*
X157441381Y-136527044D01*
X157060959Y-137045666D01*
X156731369Y-137497265D01*
X156449051Y-137887824D01*
X156210449Y-138223327D01*
X156012001Y-138509755D01*
X155850151Y-138753093D01*
X155721338Y-138959324D01*
X155622004Y-139134429D01*
X155548591Y-139284393D01*
X155497539Y-139415198D01*
X155465290Y-139532827D01*
X155448285Y-139643263D01*
X155442965Y-139752489D01*
X155445772Y-139866488D01*
X155446488Y-139880817D01*
X155461273Y-140165981D01*
X153108387Y-140165885D01*
X150755501Y-140165790D01*
X151105520Y-139812859D01*
X151200500Y-139716330D01*
X151290603Y-139622402D01*
X151379786Y-139525897D01*
X151472000Y-139421634D01*
X151571202Y-139304432D01*
X151681345Y-139169112D01*
X151806383Y-139010494D01*
X151950272Y-138823398D01*
X152116964Y-138602643D01*
X152310416Y-138343049D01*
X152534580Y-138039437D01*
X152793411Y-137686626D01*
X153090864Y-137279437D01*
X153430892Y-136812688D01*
X153817451Y-136281201D01*
X154134296Y-135845226D01*
X154531947Y-135297513D01*
X154878840Y-134818622D01*
X155178117Y-134404005D01*
X155432921Y-134049116D01*
X155646394Y-133749409D01*
X155821679Y-133500337D01*
X155961919Y-133297353D01*
X156070255Y-133135911D01*
X156149831Y-133011464D01*
X156203788Y-132919465D01*
X156235270Y-132855367D01*
X156247419Y-132814624D01*
X156243767Y-132793204D01*
X156199515Y-132736200D01*
X156103840Y-132615540D01*
X155962515Y-132438394D01*
X155781313Y-132211935D01*
X155566006Y-131943334D01*
X155322369Y-131639764D01*
X155056174Y-131308397D01*
X154773194Y-130956405D01*
X154479202Y-130590959D01*
X154179971Y-130219232D01*
X154015385Y-130014894D01*
X149928906Y-130014894D01*
X149589230Y-130629410D01*
X149589230Y-139551274D01*
X149928906Y-140165790D01*
X147919845Y-140165790D01*
X147440228Y-140165650D01*
X147044071Y-140165021D01*
X146723796Y-140163585D01*
X146471823Y-140161026D01*
X146280574Y-140157027D01*
X146142469Y-140151271D01*
X146049929Y-140143441D01*
X145995376Y-140133222D01*
X145971231Y-140120295D01*
X145969914Y-140104345D01*
X145983848Y-140085055D01*
X145983992Y-140084896D01*
X146041386Y-140001872D01*
X146117388Y-139866877D01*
X146184506Y-139732118D01*
X146311811Y-139460234D01*
X146324795Y-134737564D01*
X146337778Y-130014894D01*
X149928906Y-130014894D01*
X154015385Y-130014894D01*
X153881275Y-129848395D01*
X153588886Y-129485621D01*
X153308576Y-129138082D01*
X153046121Y-128812949D01*
X152807291Y-128517395D01*
X152597861Y-128258591D01*
X152423603Y-128043710D01*
X152290291Y-127879923D01*
X152211989Y-127784428D01*
X151907932Y-127427327D01*
X151615413Y-127105077D01*
X151344686Y-126828226D01*
X151106001Y-126607326D01*
X150936612Y-126471895D01*
X150736324Y-126327797D01*
X155342726Y-126327797D01*
X155341433Y-126598104D01*
X155354307Y-126796831D01*
X155402707Y-126981071D01*
X155477630Y-127155720D01*
X155526333Y-127254386D01*
X155578698Y-127352151D01*
X155639507Y-127455504D01*
X155713545Y-127570936D01*
X155805595Y-127704936D01*
X155920441Y-127863996D01*
X156062865Y-128054604D01*
X156237652Y-128283252D01*
X156449585Y-128556430D01*
X156703448Y-128880627D01*
X157004024Y-129262334D01*
X157356096Y-129708041D01*
X157395861Y-129758332D01*
X158784212Y-131514018D01*
X158797653Y-129569563D01*
X158800359Y-128987142D01*
X158799783Y-128494077D01*
X158795896Y-128088743D01*
X158788671Y-127769514D01*
X158778078Y-127534766D01*
X158764091Y-127382873D01*
X158759390Y-127354060D01*
X158685633Y-127050555D01*
X158588996Y-126776944D01*
X158478721Y-126556950D01*
X158412472Y-126463646D01*
X158298163Y-126327797D01*
X160467082Y-126327797D01*
X160984468Y-126328239D01*
X161417122Y-126329679D01*
X161771349Y-126332284D01*
X162053454Y-126336222D01*
X162269740Y-126341661D01*
X162426511Y-126348769D01*
X162530073Y-126357714D01*
X162586729Y-126368665D01*
X162602783Y-126381790D01*
X162601673Y-126384697D01*
X162555694Y-126454099D01*
X162478933Y-126564107D01*
X162439219Y-126619744D01*
X162398158Y-126675266D01*
X162361252Y-126724917D01*
X162328266Y-126773582D01*
X162298969Y-126826149D01*
X162273128Y-126887504D01*
X162250511Y-126962532D01*
X162230886Y-127056119D01*
X162214020Y-127173152D01*
X162199681Y-127318517D01*
X162187636Y-127497099D01*
X162177653Y-127713785D01*
X162169500Y-127973462D01*
X162162945Y-128281014D01*
X162157754Y-128641329D01*
X162153696Y-129059292D01*
X162150539Y-129539790D01*
X162148049Y-130087708D01*
X162145995Y-130707932D01*
X162144143Y-131405349D01*
X162142263Y-132184846D01*
X162140506Y-132900950D01*
X162138846Y-133699281D01*
X162137984Y-134460964D01*
X162137895Y-135181133D01*
X162138556Y-135854923D01*
X162139946Y-136477468D01*
X162142041Y-137043904D01*
X162144817Y-137549366D01*
X162148253Y-137988988D01*
X162152325Y-138357905D01*
X162157010Y-138651252D01*
X162162286Y-138864164D01*
X162168129Y-138991776D01*
X162169235Y-139005262D01*
X162209501Y-139314640D01*
X162272366Y-139563104D01*
X162368099Y-139779944D01*
X162506974Y-139994447D01*
X162524345Y-140017851D01*
X162635261Y-140165790D01*
X163850132Y-140165790D01*
X163852580Y-139895602D01*
X163855361Y-139433471D01*
X163857367Y-138911125D01*
X163858717Y-138324800D01*
X163859529Y-137670731D01*
X163859920Y-136945155D01*
X163860011Y-136144307D01*
X163859920Y-135264423D01*
X163859764Y-134301739D01*
X163859663Y-133252492D01*
X163859660Y-133044195D01*
X163859601Y-131983897D01*
X163859404Y-131010902D01*
X163859040Y-130121473D01*
X163858480Y-129311875D01*
X163857696Y-128578369D01*
X163856657Y-127917220D01*
X163855336Y-127324692D01*
X163853703Y-126797047D01*
X163851729Y-126330549D01*
X163849386Y-125921462D01*
X163846644Y-125566049D01*
X163843474Y-125260574D01*
X163839847Y-125001300D01*
X163835735Y-124784490D01*
X163831108Y-124606409D01*
X163825938Y-124463319D01*
X163820195Y-124351484D01*
X163813851Y-124267167D01*
X163806876Y-124206633D01*
X163799241Y-124166144D01*
X163790918Y-124141964D01*
X163790610Y-124141361D01*
X163773467Y-124104422D01*
X163759189Y-124070980D01*
X163743395Y-124040862D01*
X163721702Y-124013894D01*
X163689732Y-123989903D01*
X163643102Y-123968716D01*
X163577431Y-123950160D01*
X163488339Y-123934061D01*
X163371444Y-123920246D01*
X163222366Y-123908543D01*
X163036722Y-123898777D01*
X162810133Y-123890776D01*
X162538218Y-123884366D01*
X162216594Y-123879375D01*
X161840882Y-123875629D01*
X161406699Y-123872954D01*
X160909666Y-123871178D01*
X160345401Y-123870127D01*
X159709522Y-123869629D01*
X158997650Y-123869509D01*
X158205403Y-123869596D01*
%TO.C,OSHW_Logo*%
G36*
X94289766Y-121682395D02*
G01*
X93894785Y-121684558D01*
X93608932Y-121690413D01*
X93413783Y-121701805D01*
X93290915Y-121720575D01*
X93221902Y-121748566D01*
X93188321Y-121787621D01*
X93171748Y-121839582D01*
X93170137Y-121846308D01*
X93144962Y-121967683D01*
X93098363Y-122207162D01*
X93035187Y-122539257D01*
X92960282Y-122938477D01*
X92878496Y-123379334D01*
X92875640Y-123394817D01*
X92793717Y-123826854D01*
X92717068Y-124208572D01*
X92650641Y-124517078D01*
X92599382Y-124729477D01*
X92568236Y-124822875D01*
X92566751Y-124824530D01*
X92475002Y-124870139D01*
X92285836Y-124946142D01*
X92040105Y-125036132D01*
X92038737Y-125036613D01*
X91729219Y-125152955D01*
X91364311Y-125301160D01*
X91020347Y-125450172D01*
X91004068Y-125457540D01*
X90443825Y-125711814D01*
X89203254Y-124864643D01*
X88822686Y-124606380D01*
X88477948Y-124375493D01*
X88189013Y-124185110D01*
X87975853Y-124048363D01*
X87858440Y-123978382D01*
X87847290Y-123973192D01*
X87761964Y-123996299D01*
X87602597Y-124107790D01*
X87362973Y-124312922D01*
X87036877Y-124616952D01*
X86703979Y-124940412D01*
X86383065Y-125259154D01*
X86095848Y-125550015D01*
X85859619Y-125795031D01*
X85691668Y-125976241D01*
X85609286Y-126075683D01*
X85606221Y-126080802D01*
X85597114Y-126149041D01*
X85631424Y-126260484D01*
X85717628Y-126430179D01*
X85864202Y-126673178D01*
X86079624Y-127004528D01*
X86366801Y-127431089D01*
X86621666Y-127806538D01*
X86849493Y-128143274D01*
X87037119Y-128421749D01*
X87171377Y-128622412D01*
X87239101Y-128725713D01*
X87243364Y-128732726D01*
X87235096Y-128831702D01*
X87172418Y-129024072D01*
X87067805Y-129273479D01*
X87030520Y-129353128D01*
X86867835Y-129707965D01*
X86694270Y-130110584D01*
X86553278Y-130458952D01*
X86451683Y-130717510D01*
X86370986Y-130914004D01*
X86324355Y-131016700D01*
X86318557Y-131024613D01*
X86232794Y-131037720D01*
X86030628Y-131073634D01*
X85738942Y-131127242D01*
X85384614Y-131193433D01*
X84994525Y-131267092D01*
X84595556Y-131343108D01*
X84214587Y-131416370D01*
X83878499Y-131481763D01*
X83614171Y-131534176D01*
X83448485Y-131568497D01*
X83407846Y-131578201D01*
X83365867Y-131602151D01*
X83334179Y-131656240D01*
X83311356Y-131758728D01*
X83295972Y-131927872D01*
X83286601Y-132181929D01*
X83281819Y-132539157D01*
X83280200Y-133017813D01*
X83280116Y-133214012D01*
X83280116Y-134809666D01*
X83663306Y-134885299D01*
X83876495Y-134926310D01*
X84194626Y-134986173D01*
X84579012Y-135057667D01*
X84990964Y-135133568D01*
X85104829Y-135154416D01*
X85484969Y-135228326D01*
X85816130Y-135301005D01*
X86070516Y-135365722D01*
X86220331Y-135415744D01*
X86245287Y-135430653D01*
X86306567Y-135536236D01*
X86394431Y-135740824D01*
X86491868Y-136004108D01*
X86511195Y-136060820D01*
X86638900Y-136412444D01*
X86797416Y-136809186D01*
X86952541Y-137165462D01*
X86953305Y-137167116D01*
X87211632Y-137725999D01*
X86362015Y-138975739D01*
X85512399Y-140225480D01*
X86603247Y-141318150D01*
X86933179Y-141643352D01*
X87234103Y-141930021D01*
X87489118Y-142162854D01*
X87681323Y-142326545D01*
X87793817Y-142405792D01*
X87809954Y-142410820D01*
X87904700Y-142371224D01*
X88098031Y-142261140D01*
X88368828Y-142093625D01*
X88695970Y-141881736D01*
X89049670Y-141644440D01*
X89408647Y-141402395D01*
X89728712Y-141191778D01*
X89989538Y-141025546D01*
X90170800Y-140916656D01*
X90251906Y-140878061D01*
X90350860Y-140910720D01*
X90538503Y-140996776D01*
X90776131Y-141118350D01*
X90801321Y-141131863D01*
X91121322Y-141292350D01*
X91340755Y-141371057D01*
X91477231Y-141371894D01*
X91548362Y-141298769D01*
X91548776Y-141297745D01*
X91584331Y-141211145D01*
X91669128Y-141005572D01*
X91796590Y-140696935D01*
X91960144Y-140301146D01*
X92153215Y-139834116D01*
X92369228Y-139311755D01*
X92578424Y-138806015D01*
X92808331Y-138247899D01*
X93019424Y-137730880D01*
X93205378Y-137270806D01*
X93359864Y-136883527D01*
X93476557Y-136584891D01*
X93549130Y-136390747D01*
X93571495Y-136318291D01*
X93515409Y-136235175D01*
X93368704Y-136102707D01*
X93173079Y-135956661D01*
X92615966Y-135494780D01*
X92180506Y-134965356D01*
X91871916Y-134379541D01*
X91695416Y-133748486D01*
X91656224Y-133083343D01*
X91684711Y-132776337D01*
X91839926Y-132139384D01*
X92107242Y-131576904D01*
X92470078Y-131094444D01*
X92911856Y-130697552D01*
X93415994Y-130391775D01*
X93965914Y-130182662D01*
X94545036Y-130075761D01*
X95136779Y-130076618D01*
X95724564Y-130190781D01*
X96291811Y-130423798D01*
X96821940Y-130781218D01*
X97043210Y-130983358D01*
X97467577Y-131502419D01*
X97763053Y-132069638D01*
X97931605Y-132668483D01*
X97975200Y-133282417D01*
X97895805Y-133894908D01*
X97695387Y-134489419D01*
X97375913Y-135049417D01*
X96939351Y-135558367D01*
X96451521Y-135956661D01*
X96248323Y-136108906D01*
X96104777Y-136239937D01*
X96053105Y-136318415D01*
X96080160Y-136403997D01*
X96157107Y-136608447D01*
X96277615Y-136915917D01*
X96435354Y-137310558D01*
X96623995Y-137776523D01*
X96837206Y-138297964D01*
X97046754Y-138806139D01*
X97277939Y-139364733D01*
X97492077Y-139882361D01*
X97682595Y-140343116D01*
X97842917Y-140731088D01*
X97966471Y-141030370D01*
X98046681Y-141225052D01*
X98076402Y-141297745D01*
X98146615Y-141371594D01*
X98282427Y-141371377D01*
X98501314Y-141293215D01*
X98820753Y-141133224D01*
X98823279Y-141131863D01*
X99063795Y-141007704D01*
X99258222Y-140917263D01*
X99367857Y-140878419D01*
X99372695Y-140878061D01*
X99455227Y-140917461D01*
X99637436Y-141027024D01*
X99898994Y-141193793D01*
X100219576Y-141404809D01*
X100574930Y-141644440D01*
X100936718Y-141887068D01*
X101262790Y-142098074D01*
X101532025Y-142264402D01*
X101723304Y-142372995D01*
X101814646Y-142410820D01*
X101898755Y-142361104D01*
X102067861Y-142222159D01*
X102305067Y-142009285D01*
X102593475Y-141737782D01*
X102916188Y-141422954D01*
X103021728Y-141317774D01*
X104112952Y-140224728D01*
X103282358Y-139005750D01*
X103029935Y-138631413D01*
X102808395Y-138295449D01*
X102630166Y-138017323D01*
X102507676Y-137816497D01*
X102453355Y-137712435D01*
X102451764Y-137705032D01*
X102480401Y-137606946D01*
X102557427Y-137409637D01*
X102669511Y-137146172D01*
X102748183Y-136969786D01*
X102895281Y-136632091D01*
X103033811Y-136290922D01*
X103141210Y-136002658D01*
X103170384Y-135914843D01*
X103253272Y-135680334D01*
X103334298Y-135499136D01*
X103378802Y-135430653D01*
X103477014Y-135388741D01*
X103691365Y-135329326D01*
X103994042Y-135259143D01*
X104357233Y-135184924D01*
X104519771Y-135154416D01*
X104932517Y-135078571D01*
X105328419Y-135005133D01*
X105668790Y-134941322D01*
X105914942Y-134894362D01*
X105961294Y-134885299D01*
X106344484Y-134809666D01*
X106344484Y-133214012D01*
X106343623Y-132689324D01*
X106340091Y-132292350D01*
X106332461Y-132004833D01*
X106319309Y-131808516D01*
X106299208Y-131685139D01*
X106270732Y-131616447D01*
X106232457Y-131584182D01*
X106216754Y-131578201D01*
X106122039Y-131556984D01*
X105912789Y-131514650D01*
X105615884Y-131456314D01*
X105258204Y-131387087D01*
X104866630Y-131312082D01*
X104468043Y-131236411D01*
X104089322Y-131165187D01*
X103757348Y-131103522D01*
X103499002Y-131056528D01*
X103341163Y-131029317D01*
X103306043Y-131024613D01*
X103274226Y-130961659D01*
X103203799Y-130793954D01*
X103107929Y-130553232D01*
X103071322Y-130458952D01*
X102923671Y-130094704D01*
X102749800Y-129692277D01*
X102594080Y-129353128D01*
X102479499Y-129093803D01*
X102403267Y-128880715D01*
X102377820Y-128750216D01*
X102381877Y-128732726D01*
X102435659Y-128650155D01*
X102558463Y-128466508D01*
X102737108Y-128201343D01*
X102958414Y-127874215D01*
X103209197Y-127504680D01*
X103258786Y-127431736D01*
X103549770Y-126999559D01*
X103763669Y-126670465D01*
X103909010Y-126429302D01*
X103994320Y-126260919D01*
X104028127Y-126150164D01*
X104018959Y-126081884D01*
X104018725Y-126081449D01*
X103946568Y-125991765D01*
X103786967Y-125818378D01*
X103557223Y-125579264D01*
X103274634Y-125292397D01*
X102956498Y-124975752D01*
X102920621Y-124940412D01*
X102519694Y-124552158D01*
X102210288Y-124267075D01*
X101986189Y-124079905D01*
X101841180Y-123985391D01*
X101777310Y-123973192D01*
X101684095Y-124026408D01*
X101490657Y-124149334D01*
X101216967Y-124328837D01*
X100883000Y-124551789D01*
X100508725Y-124805057D01*
X100421346Y-124864643D01*
X99180775Y-125711814D01*
X98620532Y-125457540D01*
X98279827Y-125309357D01*
X97914109Y-125160326D01*
X97599713Y-125041501D01*
X97585863Y-125036613D01*
X97339943Y-124946593D01*
X97150373Y-124870473D01*
X97058006Y-124824662D01*
X97057849Y-124824530D01*
X97028540Y-124741722D01*
X96978719Y-124538068D01*
X96913332Y-124236463D01*
X96837324Y-123859798D01*
X96755643Y-123430969D01*
X96748960Y-123394817D01*
X96667024Y-122952988D01*
X96591805Y-122551926D01*
X96528148Y-122217119D01*
X96480903Y-121974058D01*
X96454917Y-121848230D01*
X96454463Y-121846308D01*
X96438649Y-121792782D01*
X96407897Y-121752369D01*
X96343785Y-121723227D01*
X96227887Y-121703512D01*
X96041779Y-121691383D01*
X95767037Y-121684997D01*
X95385237Y-121682512D01*
X94877954Y-121682085D01*
X94812300Y-121682084D01*
X94289766Y-121682395D01*
G37*
X94289766Y-121682395D02*
X93894785Y-121684558D01*
X93608932Y-121690413D01*
X93413783Y-121701805D01*
X93290915Y-121720575D01*
X93221902Y-121748566D01*
X93188321Y-121787621D01*
X93171748Y-121839582D01*
X93170137Y-121846308D01*
X93144962Y-121967683D01*
X93098363Y-122207162D01*
X93035187Y-122539257D01*
X92960282Y-122938477D01*
X92878496Y-123379334D01*
X92875640Y-123394817D01*
X92793717Y-123826854D01*
X92717068Y-124208572D01*
X92650641Y-124517078D01*
X92599382Y-124729477D01*
X92568236Y-124822875D01*
X92566751Y-124824530D01*
X92475002Y-124870139D01*
X92285836Y-124946142D01*
X92040105Y-125036132D01*
X92038737Y-125036613D01*
X91729219Y-125152955D01*
X91364311Y-125301160D01*
X91020347Y-125450172D01*
X91004068Y-125457540D01*
X90443825Y-125711814D01*
X89203254Y-124864643D01*
X88822686Y-124606380D01*
X88477948Y-124375493D01*
X88189013Y-124185110D01*
X87975853Y-124048363D01*
X87858440Y-123978382D01*
X87847290Y-123973192D01*
X87761964Y-123996299D01*
X87602597Y-124107790D01*
X87362973Y-124312922D01*
X87036877Y-124616952D01*
X86703979Y-124940412D01*
X86383065Y-125259154D01*
X86095848Y-125550015D01*
X85859619Y-125795031D01*
X85691668Y-125976241D01*
X85609286Y-126075683D01*
X85606221Y-126080802D01*
X85597114Y-126149041D01*
X85631424Y-126260484D01*
X85717628Y-126430179D01*
X85864202Y-126673178D01*
X86079624Y-127004528D01*
X86366801Y-127431089D01*
X86621666Y-127806538D01*
X86849493Y-128143274D01*
X87037119Y-128421749D01*
X87171377Y-128622412D01*
X87239101Y-128725713D01*
X87243364Y-128732726D01*
X87235096Y-128831702D01*
X87172418Y-129024072D01*
X87067805Y-129273479D01*
X87030520Y-129353128D01*
X86867835Y-129707965D01*
X86694270Y-130110584D01*
X86553278Y-130458952D01*
X86451683Y-130717510D01*
X86370986Y-130914004D01*
X86324355Y-131016700D01*
X86318557Y-131024613D01*
X86232794Y-131037720D01*
X86030628Y-131073634D01*
X85738942Y-131127242D01*
X85384614Y-131193433D01*
X84994525Y-131267092D01*
X84595556Y-131343108D01*
X84214587Y-131416370D01*
X83878499Y-131481763D01*
X83614171Y-131534176D01*
X83448485Y-131568497D01*
X83407846Y-131578201D01*
X83365867Y-131602151D01*
X83334179Y-131656240D01*
X83311356Y-131758728D01*
X83295972Y-131927872D01*
X83286601Y-132181929D01*
X83281819Y-132539157D01*
X83280200Y-133017813D01*
X83280116Y-133214012D01*
X83280116Y-134809666D01*
X83663306Y-134885299D01*
X83876495Y-134926310D01*
X84194626Y-134986173D01*
X84579012Y-135057667D01*
X84990964Y-135133568D01*
X85104829Y-135154416D01*
X85484969Y-135228326D01*
X85816130Y-135301005D01*
X86070516Y-135365722D01*
X86220331Y-135415744D01*
X86245287Y-135430653D01*
X86306567Y-135536236D01*
X86394431Y-135740824D01*
X86491868Y-136004108D01*
X86511195Y-136060820D01*
X86638900Y-136412444D01*
X86797416Y-136809186D01*
X86952541Y-137165462D01*
X86953305Y-137167116D01*
X87211632Y-137725999D01*
X86362015Y-138975739D01*
X85512399Y-140225480D01*
X86603247Y-141318150D01*
X86933179Y-141643352D01*
X87234103Y-141930021D01*
X87489118Y-142162854D01*
X87681323Y-142326545D01*
X87793817Y-142405792D01*
X87809954Y-142410820D01*
X87904700Y-142371224D01*
X88098031Y-142261140D01*
X88368828Y-142093625D01*
X88695970Y-141881736D01*
X89049670Y-141644440D01*
X89408647Y-141402395D01*
X89728712Y-141191778D01*
X89989538Y-141025546D01*
X90170800Y-140916656D01*
X90251906Y-140878061D01*
X90350860Y-140910720D01*
X90538503Y-140996776D01*
X90776131Y-141118350D01*
X90801321Y-141131863D01*
X91121322Y-141292350D01*
X91340755Y-141371057D01*
X91477231Y-141371894D01*
X91548362Y-141298769D01*
X91548776Y-141297745D01*
X91584331Y-141211145D01*
X91669128Y-141005572D01*
X91796590Y-140696935D01*
X91960144Y-140301146D01*
X92153215Y-139834116D01*
X92369228Y-139311755D01*
X92578424Y-138806015D01*
X92808331Y-138247899D01*
X93019424Y-137730880D01*
X93205378Y-137270806D01*
X93359864Y-136883527D01*
X93476557Y-136584891D01*
X93549130Y-136390747D01*
X93571495Y-136318291D01*
X93515409Y-136235175D01*
X93368704Y-136102707D01*
X93173079Y-135956661D01*
X92615966Y-135494780D01*
X92180506Y-134965356D01*
X91871916Y-134379541D01*
X91695416Y-133748486D01*
X91656224Y-133083343D01*
X91684711Y-132776337D01*
X91839926Y-132139384D01*
X92107242Y-131576904D01*
X92470078Y-131094444D01*
X92911856Y-130697552D01*
X93415994Y-130391775D01*
X93965914Y-130182662D01*
X94545036Y-130075761D01*
X95136779Y-130076618D01*
X95724564Y-130190781D01*
X96291811Y-130423798D01*
X96821940Y-130781218D01*
X97043210Y-130983358D01*
X97467577Y-131502419D01*
X97763053Y-132069638D01*
X97931605Y-132668483D01*
X97975200Y-133282417D01*
X97895805Y-133894908D01*
X97695387Y-134489419D01*
X97375913Y-135049417D01*
X96939351Y-135558367D01*
X96451521Y-135956661D01*
X96248323Y-136108906D01*
X96104777Y-136239937D01*
X96053105Y-136318415D01*
X96080160Y-136403997D01*
X96157107Y-136608447D01*
X96277615Y-136915917D01*
X96435354Y-137310558D01*
X96623995Y-137776523D01*
X96837206Y-138297964D01*
X97046754Y-138806139D01*
X97277939Y-139364733D01*
X97492077Y-139882361D01*
X97682595Y-140343116D01*
X97842917Y-140731088D01*
X97966471Y-141030370D01*
X98046681Y-141225052D01*
X98076402Y-141297745D01*
X98146615Y-141371594D01*
X98282427Y-141371377D01*
X98501314Y-141293215D01*
X98820753Y-141133224D01*
X98823279Y-141131863D01*
X99063795Y-141007704D01*
X99258222Y-140917263D01*
X99367857Y-140878419D01*
X99372695Y-140878061D01*
X99455227Y-140917461D01*
X99637436Y-141027024D01*
X99898994Y-141193793D01*
X100219576Y-141404809D01*
X100574930Y-141644440D01*
X100936718Y-141887068D01*
X101262790Y-142098074D01*
X101532025Y-142264402D01*
X101723304Y-142372995D01*
X101814646Y-142410820D01*
X101898755Y-142361104D01*
X102067861Y-142222159D01*
X102305067Y-142009285D01*
X102593475Y-141737782D01*
X102916188Y-141422954D01*
X103021728Y-141317774D01*
X104112952Y-140224728D01*
X103282358Y-139005750D01*
X103029935Y-138631413D01*
X102808395Y-138295449D01*
X102630166Y-138017323D01*
X102507676Y-137816497D01*
X102453355Y-137712435D01*
X102451764Y-137705032D01*
X102480401Y-137606946D01*
X102557427Y-137409637D01*
X102669511Y-137146172D01*
X102748183Y-136969786D01*
X102895281Y-136632091D01*
X103033811Y-136290922D01*
X103141210Y-136002658D01*
X103170384Y-135914843D01*
X103253272Y-135680334D01*
X103334298Y-135499136D01*
X103378802Y-135430653D01*
X103477014Y-135388741D01*
X103691365Y-135329326D01*
X103994042Y-135259143D01*
X104357233Y-135184924D01*
X104519771Y-135154416D01*
X104932517Y-135078571D01*
X105328419Y-135005133D01*
X105668790Y-134941322D01*
X105914942Y-134894362D01*
X105961294Y-134885299D01*
X106344484Y-134809666D01*
X106344484Y-133214012D01*
X106343623Y-132689324D01*
X106340091Y-132292350D01*
X106332461Y-132004833D01*
X106319309Y-131808516D01*
X106299208Y-131685139D01*
X106270732Y-131616447D01*
X106232457Y-131584182D01*
X106216754Y-131578201D01*
X106122039Y-131556984D01*
X105912789Y-131514650D01*
X105615884Y-131456314D01*
X105258204Y-131387087D01*
X104866630Y-131312082D01*
X104468043Y-131236411D01*
X104089322Y-131165187D01*
X103757348Y-131103522D01*
X103499002Y-131056528D01*
X103341163Y-131029317D01*
X103306043Y-131024613D01*
X103274226Y-130961659D01*
X103203799Y-130793954D01*
X103107929Y-130553232D01*
X103071322Y-130458952D01*
X102923671Y-130094704D01*
X102749800Y-129692277D01*
X102594080Y-129353128D01*
X102479499Y-129093803D01*
X102403267Y-128880715D01*
X102377820Y-128750216D01*
X102381877Y-128732726D01*
X102435659Y-128650155D01*
X102558463Y-128466508D01*
X102737108Y-128201343D01*
X102958414Y-127874215D01*
X103209197Y-127504680D01*
X103258786Y-127431736D01*
X103549770Y-126999559D01*
X103763669Y-126670465D01*
X103909010Y-126429302D01*
X103994320Y-126260919D01*
X104028127Y-126150164D01*
X104018959Y-126081884D01*
X104018725Y-126081449D01*
X103946568Y-125991765D01*
X103786967Y-125818378D01*
X103557223Y-125579264D01*
X103274634Y-125292397D01*
X102956498Y-124975752D01*
X102920621Y-124940412D01*
X102519694Y-124552158D01*
X102210288Y-124267075D01*
X101986189Y-124079905D01*
X101841180Y-123985391D01*
X101777310Y-123973192D01*
X101684095Y-124026408D01*
X101490657Y-124149334D01*
X101216967Y-124328837D01*
X100883000Y-124551789D01*
X100508725Y-124805057D01*
X100421346Y-124864643D01*
X99180775Y-125711814D01*
X98620532Y-125457540D01*
X98279827Y-125309357D01*
X97914109Y-125160326D01*
X97599713Y-125041501D01*
X97585863Y-125036613D01*
X97339943Y-124946593D01*
X97150373Y-124870473D01*
X97058006Y-124824662D01*
X97057849Y-124824530D01*
X97028540Y-124741722D01*
X96978719Y-124538068D01*
X96913332Y-124236463D01*
X96837324Y-123859798D01*
X96755643Y-123430969D01*
X96748960Y-123394817D01*
X96667024Y-122952988D01*
X96591805Y-122551926D01*
X96528148Y-122217119D01*
X96480903Y-121974058D01*
X96454917Y-121848230D01*
X96454463Y-121846308D01*
X96438649Y-121792782D01*
X96407897Y-121752369D01*
X96343785Y-121723227D01*
X96227887Y-121703512D01*
X96041779Y-121691383D01*
X95767037Y-121684997D01*
X95385237Y-121682512D01*
X94877954Y-121682085D01*
X94812300Y-121682084D01*
X94289766Y-121682395D01*
G36*
X78953703Y-145441250D02*
G01*
X78664926Y-145629985D01*
X78525640Y-145798944D01*
X78415291Y-146105538D01*
X78406527Y-146348145D01*
X78426381Y-146672540D01*
X79174513Y-146999997D01*
X79538274Y-147167295D01*
X79775957Y-147301875D01*
X79899547Y-147418441D01*
X79921024Y-147531700D01*
X79852370Y-147656356D01*
X79776668Y-147738981D01*
X79556393Y-147871484D01*
X79316809Y-147880768D01*
X79096770Y-147777502D01*
X78935129Y-147572358D01*
X78906218Y-147499919D01*
X78767737Y-147273672D01*
X78608418Y-147177251D01*
X78389886Y-147094764D01*
X78389886Y-147407485D01*
X78409206Y-147620289D01*
X78484886Y-147799745D01*
X78643505Y-148005791D01*
X78667081Y-148032566D01*
X78843518Y-148215879D01*
X78995182Y-148314255D01*
X79184926Y-148359513D01*
X79342224Y-148374334D01*
X79623584Y-148378027D01*
X79823875Y-148331237D01*
X79948826Y-148261768D01*
X80145206Y-148109002D01*
X80281142Y-147943786D01*
X80367171Y-147736003D01*
X80413831Y-147455535D01*
X80431660Y-147072266D01*
X80433083Y-146877741D01*
X80428244Y-146644532D01*
X79987552Y-146644532D01*
X79982441Y-146769641D01*
X79969702Y-146790130D01*
X79885636Y-146762296D01*
X79704724Y-146688633D01*
X79462932Y-146583902D01*
X79412368Y-146561392D01*
X79106792Y-146406006D01*
X78938432Y-146269438D01*
X78901431Y-146141522D01*
X78989933Y-146012091D01*
X79063023Y-145954901D01*
X79326760Y-145840525D01*
X79573610Y-145859421D01*
X79780269Y-145999029D01*
X79923431Y-146246783D01*
X79969330Y-146443435D01*
X79987552Y-146644532D01*
X80428244Y-146644532D01*
X80423652Y-146423278D01*
X80388903Y-146087033D01*
X80320065Y-145842189D01*
X80208370Y-145661928D01*
X80045047Y-145519432D01*
X79973843Y-145473382D01*
X79650394Y-145353454D01*
X79296270Y-145345908D01*
X78953703Y-145441250D01*
G37*
X78953703Y-145441250D02*
X78664926Y-145629985D01*
X78525640Y-145798944D01*
X78415291Y-146105538D01*
X78406527Y-146348145D01*
X78426381Y-146672540D01*
X79174513Y-146999997D01*
X79538274Y-147167295D01*
X79775957Y-147301875D01*
X79899547Y-147418441D01*
X79921024Y-147531700D01*
X79852370Y-147656356D01*
X79776668Y-147738981D01*
X79556393Y-147871484D01*
X79316809Y-147880768D01*
X79096770Y-147777502D01*
X78935129Y-147572358D01*
X78906218Y-147499919D01*
X78767737Y-147273672D01*
X78608418Y-147177251D01*
X78389886Y-147094764D01*
X78389886Y-147407485D01*
X78409206Y-147620289D01*
X78484886Y-147799745D01*
X78643505Y-148005791D01*
X78667081Y-148032566D01*
X78843518Y-148215879D01*
X78995182Y-148314255D01*
X79184926Y-148359513D01*
X79342224Y-148374334D01*
X79623584Y-148378027D01*
X79823875Y-148331237D01*
X79948826Y-148261768D01*
X80145206Y-148109002D01*
X80281142Y-147943786D01*
X80367171Y-147736003D01*
X80413831Y-147455535D01*
X80431660Y-147072266D01*
X80433083Y-146877741D01*
X80428244Y-146644532D01*
X79987552Y-146644532D01*
X79982441Y-146769641D01*
X79969702Y-146790130D01*
X79885636Y-146762296D01*
X79704724Y-146688633D01*
X79462932Y-146583902D01*
X79412368Y-146561392D01*
X79106792Y-146406006D01*
X78938432Y-146269438D01*
X78901431Y-146141522D01*
X78989933Y-146012091D01*
X79063023Y-145954901D01*
X79326760Y-145840525D01*
X79573610Y-145859421D01*
X79780269Y-145999029D01*
X79923431Y-146246783D01*
X79969330Y-146443435D01*
X79987552Y-146644532D01*
X80428244Y-146644532D01*
X80423652Y-146423278D01*
X80388903Y-146087033D01*
X80320065Y-145842189D01*
X80208370Y-145661928D01*
X80045047Y-145519432D01*
X79973843Y-145473382D01*
X79650394Y-145353454D01*
X79296270Y-145345908D01*
X78953703Y-145441250D01*
G36*
X81473076Y-145399946D02*
G01*
X81385837Y-145438073D01*
X81177608Y-145602988D01*
X80999544Y-145841444D01*
X80889419Y-146095916D01*
X80871495Y-146221369D01*
X80931587Y-146396517D01*
X81063399Y-146489193D01*
X81204723Y-146545310D01*
X81269435Y-146555650D01*
X81300945Y-146480607D01*
X81363165Y-146317303D01*
X81390463Y-146243514D01*
X81543529Y-145988269D01*
X81765147Y-145860957D01*
X82049318Y-145864872D01*
X82070366Y-145869886D01*
X82222080Y-145941817D01*
X82333615Y-146082047D01*
X82409794Y-146307808D01*
X82455439Y-146636327D01*
X82475374Y-147084834D01*
X82477243Y-147323484D01*
X82478170Y-147699683D01*
X82484244Y-147956137D01*
X82500401Y-148119081D01*
X82531580Y-148214745D01*
X82582718Y-148269364D01*
X82658753Y-148309169D01*
X82663148Y-148311173D01*
X82809573Y-148373080D01*
X82882114Y-148395877D01*
X82893260Y-148326955D01*
X82902802Y-148136450D01*
X82910053Y-147848752D01*
X82914323Y-147488253D01*
X82915174Y-147224436D01*
X82910831Y-146713932D01*
X82893845Y-146326642D01*
X82858282Y-146039960D01*
X82798206Y-145831279D01*
X82707680Y-145677990D01*
X82580771Y-145557486D01*
X82455452Y-145473382D01*
X82154114Y-145361448D01*
X81803407Y-145336202D01*
X81473076Y-145399946D01*
G37*
X81473076Y-145399946D02*
X81385837Y-145438073D01*
X81177608Y-145602988D01*
X80999544Y-145841444D01*
X80889419Y-146095916D01*
X80871495Y-146221369D01*
X80931587Y-146396517D01*
X81063399Y-146489193D01*
X81204723Y-146545310D01*
X81269435Y-146555650D01*
X81300945Y-146480607D01*
X81363165Y-146317303D01*
X81390463Y-146243514D01*
X81543529Y-145988269D01*
X81765147Y-145860957D01*
X82049318Y-145864872D01*
X82070366Y-145869886D01*
X82222080Y-145941817D01*
X82333615Y-146082047D01*
X82409794Y-146307808D01*
X82455439Y-146636327D01*
X82475374Y-147084834D01*
X82477243Y-147323484D01*
X82478170Y-147699683D01*
X82484244Y-147956137D01*
X82500401Y-148119081D01*
X82531580Y-148214745D01*
X82582718Y-148269364D01*
X82658753Y-148309169D01*
X82663148Y-148311173D01*
X82809573Y-148373080D01*
X82882114Y-148395877D01*
X82893260Y-148326955D01*
X82902802Y-148136450D01*
X82910053Y-147848752D01*
X82914323Y-147488253D01*
X82915174Y-147224436D01*
X82910831Y-146713932D01*
X82893845Y-146326642D01*
X82858282Y-146039960D01*
X82798206Y-145831279D01*
X82707680Y-145677990D01*
X82580771Y-145557486D01*
X82455452Y-145473382D01*
X82154114Y-145361448D01*
X81803407Y-145336202D01*
X81473076Y-145399946D01*
G36*
X84026284Y-145387791D02*
G01*
X83816128Y-145483384D01*
X83651176Y-145599214D01*
X83530314Y-145728730D01*
X83446869Y-145895808D01*
X83394167Y-146124323D01*
X83365533Y-146438152D01*
X83354292Y-146861169D01*
X83353105Y-147139732D01*
X83353105Y-148226469D01*
X83539010Y-148311173D01*
X83685435Y-148373080D01*
X83757976Y-148395877D01*
X83771854Y-148328042D01*
X83782863Y-148145136D01*
X83789604Y-147878058D01*
X83791036Y-147665992D01*
X83797186Y-147359619D01*
X83813769Y-147116569D01*
X83837984Y-146967736D01*
X83857220Y-146936107D01*
X83986522Y-146968406D01*
X84189507Y-147051249D01*
X84424545Y-147163553D01*
X84650007Y-147284237D01*
X84824262Y-147392220D01*
X84905681Y-147466419D01*
X84906003Y-147467222D01*
X84899000Y-147604542D01*
X84836202Y-147735630D01*
X84725948Y-147842103D01*
X84565027Y-147877715D01*
X84427498Y-147873565D01*
X84232714Y-147870512D01*
X84130469Y-147916146D01*
X84069063Y-148036714D01*
X84061320Y-148059450D01*
X84034700Y-148231396D01*
X84105887Y-148335800D01*
X84291440Y-148385557D01*
X84491880Y-148394760D01*
X84852575Y-148326545D01*
X85039294Y-148229126D01*
X85269894Y-148000269D01*
X85392192Y-147719356D01*
X85403166Y-147422528D01*
X85299797Y-147145927D01*
X85144309Y-146972601D01*
X84989066Y-146875563D01*
X84745062Y-146752712D01*
X84460720Y-146628129D01*
X84413325Y-146609092D01*
X84100997Y-146471262D01*
X83920953Y-146349785D01*
X83863049Y-146229019D01*
X83917141Y-146093325D01*
X84010001Y-145987256D01*
X84229482Y-145856655D01*
X84470975Y-145846859D01*
X84692441Y-145947502D01*
X84851836Y-146148216D01*
X84872757Y-146200000D01*
X84994561Y-146390463D01*
X85172388Y-146531863D01*
X85396783Y-146647902D01*
X85396783Y-146318861D01*
X85383575Y-146117819D01*
X85326946Y-145959366D01*
X85201383Y-145790308D01*
X85080846Y-145660090D01*
X84893414Y-145475705D01*
X84747786Y-145376656D01*
X84591370Y-145336925D01*
X84414317Y-145330360D01*
X84026284Y-145387791D01*
G37*
X84026284Y-145387791D02*
X83816128Y-145483384D01*
X83651176Y-145599214D01*
X83530314Y-145728730D01*
X83446869Y-145895808D01*
X83394167Y-146124323D01*
X83365533Y-146438152D01*
X83354292Y-146861169D01*
X83353105Y-147139732D01*
X83353105Y-148226469D01*
X83539010Y-148311173D01*
X83685435Y-148373080D01*
X83757976Y-148395877D01*
X83771854Y-148328042D01*
X83782863Y-148145136D01*
X83789604Y-147878058D01*
X83791036Y-147665992D01*
X83797186Y-147359619D01*
X83813769Y-147116569D01*
X83837984Y-146967736D01*
X83857220Y-146936107D01*
X83986522Y-146968406D01*
X84189507Y-147051249D01*
X84424545Y-147163553D01*
X84650007Y-147284237D01*
X84824262Y-147392220D01*
X84905681Y-147466419D01*
X84906003Y-147467222D01*
X84899000Y-147604542D01*
X84836202Y-147735630D01*
X84725948Y-147842103D01*
X84565027Y-147877715D01*
X84427498Y-147873565D01*
X84232714Y-147870512D01*
X84130469Y-147916146D01*
X84069063Y-148036714D01*
X84061320Y-148059450D01*
X84034700Y-148231396D01*
X84105887Y-148335800D01*
X84291440Y-148385557D01*
X84491880Y-148394760D01*
X84852575Y-148326545D01*
X85039294Y-148229126D01*
X85269894Y-148000269D01*
X85392192Y-147719356D01*
X85403166Y-147422528D01*
X85299797Y-147145927D01*
X85144309Y-146972601D01*
X84989066Y-146875563D01*
X84745062Y-146752712D01*
X84460720Y-146628129D01*
X84413325Y-146609092D01*
X84100997Y-146471262D01*
X83920953Y-146349785D01*
X83863049Y-146229019D01*
X83917141Y-146093325D01*
X84010001Y-145987256D01*
X84229482Y-145856655D01*
X84470975Y-145846859D01*
X84692441Y-145947502D01*
X84851836Y-146148216D01*
X84872757Y-146200000D01*
X84994561Y-146390463D01*
X85172388Y-146531863D01*
X85396783Y-146647902D01*
X85396783Y-146318861D01*
X85383575Y-146117819D01*
X85326946Y-145959366D01*
X85201383Y-145790308D01*
X85080846Y-145660090D01*
X84893414Y-145475705D01*
X84747786Y-145376656D01*
X84591370Y-145336925D01*
X84414317Y-145330360D01*
X84026284Y-145387791D01*
G36*
X85861991Y-145399500D02*
G01*
X85850852Y-145591533D01*
X85842123Y-145883377D01*
X85836513Y-146251953D01*
X85834714Y-146638539D01*
X85834714Y-147946717D01*
X86065688Y-148177692D01*
X86224856Y-148320017D01*
X86364577Y-148377668D01*
X86555545Y-148374019D01*
X86631349Y-148364734D01*
X86868275Y-148337715D01*
X87064245Y-148322232D01*
X87112013Y-148320803D01*
X87273052Y-148330156D01*
X87503372Y-148353635D01*
X87592676Y-148364734D01*
X87812015Y-148381902D01*
X87959417Y-148344612D01*
X88105576Y-148229487D01*
X88158337Y-148177692D01*
X88389312Y-147946717D01*
X88389312Y-145499768D01*
X88203406Y-145415064D01*
X88043326Y-145352324D01*
X87949670Y-145330360D01*
X87925657Y-145399775D01*
X87903213Y-145593726D01*
X87883834Y-145890771D01*
X87869015Y-146269469D01*
X87861868Y-146589412D01*
X87841898Y-147848463D01*
X87667681Y-147873096D01*
X87509227Y-147855873D01*
X87431586Y-147800108D01*
X87409883Y-147695847D01*
X87391354Y-147473759D01*
X87377472Y-147161986D01*
X87369709Y-146788667D01*
X87368590Y-146596552D01*
X87367472Y-145490617D01*
X87137615Y-145410489D01*
X86974927Y-145356009D01*
X86886432Y-145330602D01*
X86883879Y-145330360D01*
X86875001Y-145399423D01*
X86865243Y-145590927D01*
X86855422Y-145881348D01*
X86846360Y-146247161D01*
X86840029Y-146589412D01*
X86820059Y-147848463D01*
X86382128Y-147848463D01*
X86362032Y-146699813D01*
X86341936Y-145551162D01*
X86128444Y-145440761D01*
X85970817Y-145364949D01*
X85877525Y-145330546D01*
X85874833Y-145330360D01*
X85861991Y-145399500D01*
G37*
X85861991Y-145399500D02*
X85850852Y-145591533D01*
X85842123Y-145883377D01*
X85836513Y-146251953D01*
X85834714Y-146638539D01*
X85834714Y-147946717D01*
X86065688Y-148177692D01*
X86224856Y-148320017D01*
X86364577Y-148377668D01*
X86555545Y-148374019D01*
X86631349Y-148364734D01*
X86868275Y-148337715D01*
X87064245Y-148322232D01*
X87112013Y-148320803D01*
X87273052Y-148330156D01*
X87503372Y-148353635D01*
X87592676Y-148364734D01*
X87812015Y-148381902D01*
X87959417Y-148344612D01*
X88105576Y-148229487D01*
X88158337Y-148177692D01*
X88389312Y-147946717D01*
X88389312Y-145499768D01*
X88203406Y-145415064D01*
X88043326Y-145352324D01*
X87949670Y-145330360D01*
X87925657Y-145399775D01*
X87903213Y-145593726D01*
X87883834Y-145890771D01*
X87869015Y-146269469D01*
X87861868Y-146589412D01*
X87841898Y-147848463D01*
X87667681Y-147873096D01*
X87509227Y-147855873D01*
X87431586Y-147800108D01*
X87409883Y-147695847D01*
X87391354Y-147473759D01*
X87377472Y-147161986D01*
X87369709Y-146788667D01*
X87368590Y-146596552D01*
X87367472Y-145490617D01*
X87137615Y-145410489D01*
X86974927Y-145356009D01*
X86886432Y-145330602D01*
X86883879Y-145330360D01*
X86875001Y-145399423D01*
X86865243Y-145590927D01*
X86855422Y-145881348D01*
X86846360Y-146247161D01*
X86840029Y-146589412D01*
X86820059Y-147848463D01*
X86382128Y-147848463D01*
X86362032Y-146699813D01*
X86341936Y-145551162D01*
X86128444Y-145440761D01*
X85970817Y-145364949D01*
X85877525Y-145330546D01*
X85874833Y-145330360D01*
X85861991Y-145399500D01*
G36*
X88827515Y-145936039D02*
G01*
X88828442Y-146481553D01*
X88832030Y-146901198D01*
X88839794Y-147215076D01*
X88853245Y-147443288D01*
X88873896Y-147605938D01*
X88903260Y-147723128D01*
X88942848Y-147814960D01*
X88972825Y-147867378D01*
X89221076Y-148151636D01*
X89535829Y-148329812D01*
X89884072Y-148393746D01*
X90232789Y-148335274D01*
X90440443Y-148230198D01*
X90658438Y-148048429D01*
X90807009Y-147826431D01*
X90896648Y-147535701D01*
X90937847Y-147147738D01*
X90943682Y-146863119D01*
X90942895Y-146842665D01*
X90432990Y-146842665D01*
X90429875Y-147169044D01*
X90415606Y-147385101D01*
X90382789Y-147526446D01*
X90324036Y-147628684D01*
X90253836Y-147705804D01*
X90018081Y-147854663D01*
X89764950Y-147867379D01*
X89525711Y-147743098D01*
X89507090Y-147726258D01*
X89427614Y-147638656D01*
X89377780Y-147534429D01*
X89350801Y-147379304D01*
X89339888Y-147139010D01*
X89338162Y-146873347D01*
X89341903Y-146539601D01*
X89357389Y-146316955D01*
X89391015Y-146170633D01*
X89449174Y-146065855D01*
X89496862Y-146010208D01*
X89718393Y-145869863D01*
X89973531Y-145852988D01*
X90217062Y-145960184D01*
X90264061Y-145999979D01*
X90344068Y-146088354D01*
X90394004Y-146193655D01*
X90420817Y-146350527D01*
X90431452Y-146593619D01*
X90432990Y-146842665D01*
X90942895Y-146842665D01*
X90926041Y-146404768D01*
X90866121Y-146060389D01*
X90753431Y-145801480D01*
X90577479Y-145599540D01*
X90440443Y-145496039D01*
X90191360Y-145384221D01*
X89902663Y-145332319D01*
X89634302Y-145346212D01*
X89484139Y-145402257D01*
X89425212Y-145418207D01*
X89386109Y-145358737D01*
X89358813Y-145199371D01*
X89338162Y-144956618D01*
X89315553Y-144686253D01*
X89284147Y-144523587D01*
X89227002Y-144430569D01*
X89127174Y-144369148D01*
X89064455Y-144341948D01*
X88827243Y-144242579D01*
X88827515Y-145936039D01*
G37*
X88827515Y-145936039D02*
X88828442Y-146481553D01*
X88832030Y-146901198D01*
X88839794Y-147215076D01*
X88853245Y-147443288D01*
X88873896Y-147605938D01*
X88903260Y-147723128D01*
X88942848Y-147814960D01*
X88972825Y-147867378D01*
X89221076Y-148151636D01*
X89535829Y-148329812D01*
X89884072Y-148393746D01*
X90232789Y-148335274D01*
X90440443Y-148230198D01*
X90658438Y-148048429D01*
X90807009Y-147826431D01*
X90896648Y-147535701D01*
X90937847Y-147147738D01*
X90943682Y-146863119D01*
X90942895Y-146842665D01*
X90432990Y-146842665D01*
X90429875Y-147169044D01*
X90415606Y-147385101D01*
X90382789Y-147526446D01*
X90324036Y-147628684D01*
X90253836Y-147705804D01*
X90018081Y-147854663D01*
X89764950Y-147867379D01*
X89525711Y-147743098D01*
X89507090Y-147726258D01*
X89427614Y-147638656D01*
X89377780Y-147534429D01*
X89350801Y-147379304D01*
X89339888Y-147139010D01*
X89338162Y-146873347D01*
X89341903Y-146539601D01*
X89357389Y-146316955D01*
X89391015Y-146170633D01*
X89449174Y-146065855D01*
X89496862Y-146010208D01*
X89718393Y-145869863D01*
X89973531Y-145852988D01*
X90217062Y-145960184D01*
X90264061Y-145999979D01*
X90344068Y-146088354D01*
X90394004Y-146193655D01*
X90420817Y-146350527D01*
X90431452Y-146593619D01*
X90432990Y-146842665D01*
X90942895Y-146842665D01*
X90926041Y-146404768D01*
X90866121Y-146060389D01*
X90753431Y-145801480D01*
X90577479Y-145599540D01*
X90440443Y-145496039D01*
X90191360Y-145384221D01*
X89902663Y-145332319D01*
X89634302Y-145346212D01*
X89484139Y-145402257D01*
X89425212Y-145418207D01*
X89386109Y-145358737D01*
X89358813Y-145199371D01*
X89338162Y-144956618D01*
X89315553Y-144686253D01*
X89284147Y-144523587D01*
X89227002Y-144430569D01*
X89127174Y-144369148D01*
X89064455Y-144341948D01*
X88827243Y-144242579D01*
X88827515Y-145936039D01*
G36*
X92147443Y-145354700D02*
G01*
X91815887Y-145477049D01*
X91547276Y-145693449D01*
X91442221Y-145845780D01*
X91327694Y-146125302D01*
X91330073Y-146327415D01*
X91450280Y-146463346D01*
X91494757Y-146486460D01*
X91686790Y-146558526D01*
X91784860Y-146540063D01*
X91818078Y-146419046D01*
X91819771Y-146352199D01*
X91880586Y-146106271D01*
X92039098Y-145934236D01*
X92259415Y-145851145D01*
X92505642Y-145872053D01*
X92705795Y-145980640D01*
X92773398Y-146042580D01*
X92821316Y-146117723D01*
X92853685Y-146231313D01*
X92874641Y-146408591D01*
X92888319Y-146674799D01*
X92898855Y-147055179D01*
X92901583Y-147175619D01*
X92911534Y-147587637D01*
X92922847Y-147877621D01*
X92939814Y-148069482D01*
X92966724Y-148187133D01*
X93007868Y-148254487D01*
X93067535Y-148295457D01*
X93105736Y-148313557D01*
X93267967Y-148375450D01*
X93363465Y-148395877D01*
X93395020Y-148327657D01*
X93414281Y-148121409D01*
X93421351Y-147774752D01*
X93416334Y-147285306D01*
X93414772Y-147209814D01*
X93403748Y-146763272D01*
X93390712Y-146437208D01*
X93372162Y-146206129D01*
X93344595Y-146044544D01*
X93304508Y-145926962D01*
X93248398Y-145827890D01*
X93219046Y-145785437D01*
X93050752Y-145597600D01*
X92862525Y-145451495D01*
X92839481Y-145438741D01*
X92501967Y-145338049D01*
X92147443Y-145354700D01*
G37*
X92147443Y-145354700D02*
X91815887Y-145477049D01*
X91547276Y-145693449D01*
X91442221Y-145845780D01*
X91327694Y-146125302D01*
X91330073Y-146327415D01*
X91450280Y-146463346D01*
X91494757Y-146486460D01*
X91686790Y-146558526D01*
X91784860Y-146540063D01*
X91818078Y-146419046D01*
X91819771Y-146352199D01*
X91880586Y-146106271D01*
X92039098Y-145934236D01*
X92259415Y-145851145D01*
X92505642Y-145872053D01*
X92705795Y-145980640D01*
X92773398Y-146042580D01*
X92821316Y-146117723D01*
X92853685Y-146231313D01*
X92874641Y-146408591D01*
X92888319Y-146674799D01*
X92898855Y-147055179D01*
X92901583Y-147175619D01*
X92911534Y-147587637D01*
X92922847Y-147877621D01*
X92939814Y-148069482D01*
X92966724Y-148187133D01*
X93007868Y-148254487D01*
X93067535Y-148295457D01*
X93105736Y-148313557D01*
X93267967Y-148375450D01*
X93363465Y-148395877D01*
X93395020Y-148327657D01*
X93414281Y-148121409D01*
X93421351Y-147774752D01*
X93416334Y-147285306D01*
X93414772Y-147209814D01*
X93403748Y-146763272D01*
X93390712Y-146437208D01*
X93372162Y-146206129D01*
X93344595Y-146044544D01*
X93304508Y-145926962D01*
X93248398Y-145827890D01*
X93219046Y-145785437D01*
X93050752Y-145597600D01*
X92862525Y-145451495D01*
X92839481Y-145438741D01*
X92501967Y-145338049D01*
X92147443Y-145354700D01*
G36*
X94612439Y-145360801D02*
G01*
X94326443Y-145467004D01*
X94323171Y-145469046D01*
X94146292Y-145599225D01*
X94015711Y-145751359D01*
X93923872Y-145949618D01*
X93863216Y-146218172D01*
X93826187Y-146581192D01*
X93805227Y-147062849D01*
X93803390Y-147131471D01*
X93777001Y-148166203D01*
X93999072Y-148281040D01*
X94159755Y-148358645D01*
X94256775Y-148395416D01*
X94261262Y-148395877D01*
X94278051Y-148328026D01*
X94291388Y-148145003D01*
X94299592Y-147877602D01*
X94301381Y-147661074D01*
X94301422Y-147310306D01*
X94317457Y-147090028D01*
X94373351Y-146984963D01*
X94492969Y-146979837D01*
X94700177Y-147059375D01*
X95013018Y-147205581D01*
X95243058Y-147327013D01*
X95361373Y-147432366D01*
X95396155Y-147547190D01*
X95396208Y-147552873D01*
X95338812Y-147750677D01*
X95168876Y-147857537D01*
X94908805Y-147873015D01*
X94721476Y-147870330D01*
X94622702Y-147924283D01*
X94561104Y-148053877D01*
X94525652Y-148218981D01*
X94576743Y-148312661D01*
X94595980Y-148326069D01*
X94777093Y-148379915D01*
X95030718Y-148387538D01*
X95291909Y-148351846D01*
X95476987Y-148286620D01*
X95732870Y-148069363D01*
X95878323Y-147766941D01*
X95907128Y-147530669D01*
X95885145Y-147317555D01*
X95805599Y-147143591D01*
X95648091Y-146989081D01*
X95392222Y-146834330D01*
X95017594Y-146659643D01*
X94994771Y-146649770D01*
X94657307Y-146493871D01*
X94449065Y-146366015D01*
X94359807Y-146251121D01*
X94379292Y-146134108D01*
X94497283Y-145999896D01*
X94532566Y-145969009D01*
X94768902Y-145849253D01*
X95013786Y-145854295D01*
X95227059Y-145971710D01*
X95368560Y-146189072D01*
X95381708Y-146231736D01*
X95509743Y-146438660D01*
X95672207Y-146538330D01*
X95907128Y-146637106D01*
X95907128Y-146381545D01*
X95835667Y-146010081D01*
X95623562Y-145669360D01*
X95513187Y-145555377D01*
X95262287Y-145409084D01*
X94943212Y-145342860D01*
X94612439Y-145360801D01*
G37*
X94612439Y-145360801D02*
X94326443Y-145467004D01*
X94323171Y-145469046D01*
X94146292Y-145599225D01*
X94015711Y-145751359D01*
X93923872Y-145949618D01*
X93863216Y-146218172D01*
X93826187Y-146581192D01*
X93805227Y-147062849D01*
X93803390Y-147131471D01*
X93777001Y-148166203D01*
X93999072Y-148281040D01*
X94159755Y-148358645D01*
X94256775Y-148395416D01*
X94261262Y-148395877D01*
X94278051Y-148328026D01*
X94291388Y-148145003D01*
X94299592Y-147877602D01*
X94301381Y-147661074D01*
X94301422Y-147310306D01*
X94317457Y-147090028D01*
X94373351Y-146984963D01*
X94492969Y-146979837D01*
X94700177Y-147059375D01*
X95013018Y-147205581D01*
X95243058Y-147327013D01*
X95361373Y-147432366D01*
X95396155Y-147547190D01*
X95396208Y-147552873D01*
X95338812Y-147750677D01*
X95168876Y-147857537D01*
X94908805Y-147873015D01*
X94721476Y-147870330D01*
X94622702Y-147924283D01*
X94561104Y-148053877D01*
X94525652Y-148218981D01*
X94576743Y-148312661D01*
X94595980Y-148326069D01*
X94777093Y-148379915D01*
X95030718Y-148387538D01*
X95291909Y-148351846D01*
X95476987Y-148286620D01*
X95732870Y-148069363D01*
X95878323Y-147766941D01*
X95907128Y-147530669D01*
X95885145Y-147317555D01*
X95805599Y-147143591D01*
X95648091Y-146989081D01*
X95392222Y-146834330D01*
X95017594Y-146659643D01*
X94994771Y-146649770D01*
X94657307Y-146493871D01*
X94449065Y-146366015D01*
X94359807Y-146251121D01*
X94379292Y-146134108D01*
X94497283Y-145999896D01*
X94532566Y-145969009D01*
X94768902Y-145849253D01*
X95013786Y-145854295D01*
X95227059Y-145971710D01*
X95368560Y-146189072D01*
X95381708Y-146231736D01*
X95509743Y-146438660D01*
X95672207Y-146538330D01*
X95907128Y-146637106D01*
X95907128Y-146381545D01*
X95835667Y-146010081D01*
X95623562Y-145669360D01*
X95513187Y-145555377D01*
X95262287Y-145409084D01*
X94943212Y-145342860D01*
X94612439Y-145360801D01*
G36*
X97950806Y-144859543D02*
G01*
X97929416Y-145157869D01*
X97904848Y-145333666D01*
X97870803Y-145410347D01*
X97820983Y-145411328D01*
X97804829Y-145402174D01*
X97589951Y-145335895D01*
X97310438Y-145339765D01*
X97026264Y-145407898D01*
X96848525Y-145496039D01*
X96666287Y-145636846D01*
X96533067Y-145796197D01*
X96441613Y-145998674D01*
X96384676Y-146268864D01*
X96355003Y-146631350D01*
X96345345Y-147110716D01*
X96345172Y-147202674D01*
X96345059Y-148235620D01*
X96574916Y-148315749D01*
X96738170Y-148370261D01*
X96827739Y-148395642D01*
X96830376Y-148395877D01*
X96839196Y-148327050D01*
X96846703Y-148137208D01*
X96852325Y-147851312D01*
X96855491Y-147494322D01*
X96855978Y-147277278D01*
X96856994Y-146849332D01*
X96862221Y-146542620D01*
X96874933Y-146332401D01*
X96898401Y-146193934D01*
X96935897Y-146102479D01*
X96990694Y-146033297D01*
X97024907Y-145999979D01*
X97259928Y-145865721D01*
X97516389Y-145855667D01*
X97749076Y-145969212D01*
X97792106Y-146010208D01*
X97855221Y-146087293D01*
X97898999Y-146178728D01*
X97926945Y-146310937D01*
X97942559Y-146510342D01*
X97949345Y-146803364D01*
X97950806Y-147207378D01*
X97950806Y-148235620D01*
X98180663Y-148315749D01*
X98343917Y-148370261D01*
X98433487Y-148395642D01*
X98436123Y-148395877D01*
X98442863Y-148326020D01*
X98448938Y-148128976D01*
X98454106Y-147823533D01*
X98458122Y-147428481D01*
X98460742Y-146962607D01*
X98461724Y-146444701D01*
X98461725Y-146421664D01*
X98461725Y-144447451D01*
X98224513Y-144347392D01*
X97987300Y-144247333D01*
X97950806Y-144859543D01*
G37*
X97950806Y-144859543D02*
X97929416Y-145157869D01*
X97904848Y-145333666D01*
X97870803Y-145410347D01*
X97820983Y-145411328D01*
X97804829Y-145402174D01*
X97589951Y-145335895D01*
X97310438Y-145339765D01*
X97026264Y-145407898D01*
X96848525Y-145496039D01*
X96666287Y-145636846D01*
X96533067Y-145796197D01*
X96441613Y-145998674D01*
X96384676Y-146268864D01*
X96355003Y-146631350D01*
X96345345Y-147110716D01*
X96345172Y-147202674D01*
X96345059Y-148235620D01*
X96574916Y-148315749D01*
X96738170Y-148370261D01*
X96827739Y-148395642D01*
X96830376Y-148395877D01*
X96839196Y-148327050D01*
X96846703Y-148137208D01*
X96852325Y-147851312D01*
X96855491Y-147494322D01*
X96855978Y-147277278D01*
X96856994Y-146849332D01*
X96862221Y-146542620D01*
X96874933Y-146332401D01*
X96898401Y-146193934D01*
X96935897Y-146102479D01*
X96990694Y-146033297D01*
X97024907Y-145999979D01*
X97259928Y-145865721D01*
X97516389Y-145855667D01*
X97749076Y-145969212D01*
X97792106Y-146010208D01*
X97855221Y-146087293D01*
X97898999Y-146178728D01*
X97926945Y-146310937D01*
X97942559Y-146510342D01*
X97949345Y-146803364D01*
X97950806Y-147207378D01*
X97950806Y-148235620D01*
X98180663Y-148315749D01*
X98343917Y-148370261D01*
X98433487Y-148395642D01*
X98436123Y-148395877D01*
X98442863Y-148326020D01*
X98448938Y-148128976D01*
X98454106Y-147823533D01*
X98458122Y-147428481D01*
X98460742Y-146962607D01*
X98461724Y-146444701D01*
X98461725Y-146421664D01*
X98461725Y-144447451D01*
X98224513Y-144347392D01*
X97987300Y-144247333D01*
X97950806Y-144859543D01*
G36*
X104023421Y-145261591D02*
G01*
X103735656Y-145455179D01*
X103513273Y-145734773D01*
X103380427Y-146090563D01*
X103353558Y-146352437D01*
X103356610Y-146461716D01*
X103382160Y-146545386D01*
X103452397Y-146620347D01*
X103589510Y-146703499D01*
X103815688Y-146811744D01*
X104153120Y-146961982D01*
X104154829Y-146962736D01*
X104465424Y-147104993D01*
X104720119Y-147231314D01*
X104892883Y-147328099D01*
X104957685Y-147381750D01*
X104957702Y-147382182D01*
X104900588Y-147499011D01*
X104767027Y-147627786D01*
X104613695Y-147720553D01*
X104536012Y-147738981D01*
X104324077Y-147675246D01*
X104141568Y-147515628D01*
X104052518Y-147340134D01*
X103966850Y-147210757D01*
X103799043Y-147063422D01*
X103601781Y-146936140D01*
X103427749Y-146866922D01*
X103391357Y-146863119D01*
X103350393Y-146925702D01*
X103347925Y-147085678D01*
X103378029Y-147301382D01*
X103434784Y-147531152D01*
X103512266Y-147733324D01*
X103516179Y-147741173D01*
X103749347Y-148066735D01*
X104051540Y-148288177D01*
X104394732Y-148396866D01*
X104750900Y-148384165D01*
X105092019Y-148241441D01*
X105107187Y-148231405D01*
X105375525Y-147988216D01*
X105551970Y-147670923D01*
X105649616Y-147253715D01*
X105662721Y-147136497D01*
X105685930Y-146583224D01*
X105658106Y-146325211D01*
X104957702Y-146325211D01*
X104948602Y-146486157D01*
X104898827Y-146533128D01*
X104774736Y-146497988D01*
X104579133Y-146414922D01*
X104360486Y-146310798D01*
X104355052Y-146308041D01*
X104169726Y-146210562D01*
X104095347Y-146145510D01*
X104113688Y-146077313D01*
X104190918Y-145987704D01*
X104387400Y-145858027D01*
X104598994Y-145848499D01*
X104788793Y-145942873D01*
X104919889Y-146124904D01*
X104957702Y-146325211D01*
X105658106Y-146325211D01*
X105638191Y-146140552D01*
X105515714Y-145789472D01*
X105345210Y-145543519D01*
X105037463Y-145294974D01*
X104698479Y-145171678D01*
X104352414Y-145163821D01*
X104023421Y-145261591D01*
G37*
X104023421Y-145261591D02*
X103735656Y-145455179D01*
X103513273Y-145734773D01*
X103380427Y-146090563D01*
X103353558Y-146352437D01*
X103356610Y-146461716D01*
X103382160Y-146545386D01*
X103452397Y-146620347D01*
X103589510Y-146703499D01*
X103815688Y-146811744D01*
X104153120Y-146961982D01*
X104154829Y-146962736D01*
X104465424Y-147104993D01*
X104720119Y-147231314D01*
X104892883Y-147328099D01*
X104957685Y-147381750D01*
X104957702Y-147382182D01*
X104900588Y-147499011D01*
X104767027Y-147627786D01*
X104613695Y-147720553D01*
X104536012Y-147738981D01*
X104324077Y-147675246D01*
X104141568Y-147515628D01*
X104052518Y-147340134D01*
X103966850Y-147210757D01*
X103799043Y-147063422D01*
X103601781Y-146936140D01*
X103427749Y-146866922D01*
X103391357Y-146863119D01*
X103350393Y-146925702D01*
X103347925Y-147085678D01*
X103378029Y-147301382D01*
X103434784Y-147531152D01*
X103512266Y-147733324D01*
X103516179Y-147741173D01*
X103749347Y-148066735D01*
X104051540Y-148288177D01*
X104394732Y-148396866D01*
X104750900Y-148384165D01*
X105092019Y-148241441D01*
X105107187Y-148231405D01*
X105375525Y-147988216D01*
X105551970Y-147670923D01*
X105649616Y-147253715D01*
X105662721Y-147136497D01*
X105685930Y-146583224D01*
X105658106Y-146325211D01*
X104957702Y-146325211D01*
X104948602Y-146486157D01*
X104898827Y-146533128D01*
X104774736Y-146497988D01*
X104579133Y-146414922D01*
X104360486Y-146310798D01*
X104355052Y-146308041D01*
X104169726Y-146210562D01*
X104095347Y-146145510D01*
X104113688Y-146077313D01*
X104190918Y-145987704D01*
X104387400Y-145858027D01*
X104598994Y-145848499D01*
X104788793Y-145942873D01*
X104919889Y-146124904D01*
X104957702Y-146325211D01*
X105658106Y-146325211D01*
X105638191Y-146140552D01*
X105515714Y-145789472D01*
X105345210Y-145543519D01*
X105037463Y-145294974D01*
X104698479Y-145171678D01*
X104352414Y-145163821D01*
X104023421Y-145261591D01*
G36*
X109691749Y-145214937D02*
G01*
X109349647Y-145394820D01*
X109097173Y-145684316D01*
X109007489Y-145870433D01*
X108937702Y-146149880D01*
X108901978Y-146502967D01*
X108898591Y-146888328D01*
X108925813Y-147264598D01*
X108981917Y-147590413D01*
X109065175Y-147824407D01*
X109090763Y-147864706D01*
X109393846Y-148165522D01*
X109753833Y-148345693D01*
X110144452Y-148398420D01*
X110539431Y-148316905D01*
X110649351Y-148268034D01*
X110863410Y-148117430D01*
X111051280Y-147917737D01*
X111069035Y-147892411D01*
X111141203Y-147770353D01*
X111188908Y-147639876D01*
X111217090Y-147468112D01*
X111230689Y-147222195D01*
X111234645Y-146869259D01*
X111234714Y-146790130D01*
X111234532Y-146764948D01*
X110504829Y-146764948D01*
X110500582Y-147098041D01*
X110483869Y-147319085D01*
X110448737Y-147461862D01*
X110389229Y-147560155D01*
X110358852Y-147593004D01*
X110184211Y-147717830D01*
X110014654Y-147712137D01*
X109843214Y-147603860D01*
X109740962Y-147488266D01*
X109680405Y-147319544D01*
X109646398Y-147053482D01*
X109644065Y-147022451D01*
X109638261Y-146540267D01*
X109698926Y-146182150D01*
X109825239Y-145950300D01*
X110016381Y-145846917D01*
X110084611Y-145841279D01*
X110263773Y-145869632D01*
X110386325Y-145967859D01*
X110461256Y-146155715D01*
X110497552Y-146452955D01*
X110504829Y-146764948D01*
X111234532Y-146764948D01*
X111231995Y-146414047D01*
X111220581Y-146151272D01*
X111195579Y-145969186D01*
X111152103Y-145835170D01*
X111085261Y-145716604D01*
X111070490Y-145694560D01*
X110822221Y-145397417D01*
X110551696Y-145224921D01*
X110222348Y-145156447D01*
X110110509Y-145153102D01*
X109691749Y-145214937D01*
G37*
X109691749Y-145214937D02*
X109349647Y-145394820D01*
X109097173Y-145684316D01*
X109007489Y-145870433D01*
X108937702Y-146149880D01*
X108901978Y-146502967D01*
X108898591Y-146888328D01*
X108925813Y-147264598D01*
X108981917Y-147590413D01*
X109065175Y-147824407D01*
X109090763Y-147864706D01*
X109393846Y-148165522D01*
X109753833Y-148345693D01*
X110144452Y-148398420D01*
X110539431Y-148316905D01*
X110649351Y-148268034D01*
X110863410Y-148117430D01*
X111051280Y-147917737D01*
X111069035Y-147892411D01*
X111141203Y-147770353D01*
X111188908Y-147639876D01*
X111217090Y-147468112D01*
X111230689Y-147222195D01*
X111234645Y-146869259D01*
X111234714Y-146790130D01*
X111234532Y-146764948D01*
X110504829Y-146764948D01*
X110500582Y-147098041D01*
X110483869Y-147319085D01*
X110448737Y-147461862D01*
X110389229Y-147560155D01*
X110358852Y-147593004D01*
X110184211Y-147717830D01*
X110014654Y-147712137D01*
X109843214Y-147603860D01*
X109740962Y-147488266D01*
X109680405Y-147319544D01*
X109646398Y-147053482D01*
X109644065Y-147022451D01*
X109638261Y-146540267D01*
X109698926Y-146182150D01*
X109825239Y-145950300D01*
X110016381Y-145846917D01*
X110084611Y-145841279D01*
X110263773Y-145869632D01*
X110386325Y-145967859D01*
X110461256Y-146155715D01*
X110497552Y-146452955D01*
X110504829Y-146764948D01*
X111234532Y-146764948D01*
X111231995Y-146414047D01*
X111220581Y-146151272D01*
X111195579Y-145969186D01*
X111152103Y-145835170D01*
X111085261Y-145716604D01*
X111070490Y-145694560D01*
X110822221Y-145397417D01*
X110551696Y-145224921D01*
X110222348Y-145156447D01*
X110110509Y-145153102D01*
X109691749Y-145214937D01*
G36*
X101268727Y-145244198D02*
G01*
X101034493Y-145379685D01*
X100871639Y-145514167D01*
X100752534Y-145655064D01*
X100670481Y-145827368D01*
X100618785Y-146056071D01*
X100590750Y-146366166D01*
X100579679Y-146782644D01*
X100578392Y-147082028D01*
X100578392Y-148184049D01*
X100888593Y-148323108D01*
X101198794Y-148462168D01*
X101235289Y-147255137D01*
X101250368Y-146804349D01*
X101266187Y-146477152D01*
X101285786Y-146251178D01*
X101312208Y-146104061D01*
X101348492Y-146013432D01*
X101397681Y-145956924D01*
X101413463Y-145944693D01*
X101652581Y-145849166D01*
X101894282Y-145886967D01*
X102038162Y-145987256D01*
X102096689Y-146058324D01*
X102137202Y-146151581D01*
X102162949Y-146292958D01*
X102177178Y-146508386D01*
X102183140Y-146823796D01*
X102184139Y-147152505D01*
X102184335Y-147564899D01*
X102191397Y-147856803D01*
X102215032Y-148053676D01*
X102264950Y-148180977D01*
X102350861Y-148264166D01*
X102482471Y-148328701D01*
X102658258Y-148395761D01*
X102850249Y-148468756D01*
X102827395Y-147173265D01*
X102818192Y-146706247D01*
X102807424Y-146361125D01*
X102791993Y-146113821D01*
X102768796Y-145940263D01*
X102734732Y-145816374D01*
X102686702Y-145718082D01*
X102628796Y-145631360D01*
X102349421Y-145354325D01*
X102008519Y-145194122D01*
X101637738Y-145155747D01*
X101268727Y-145244198D01*
G37*
X101268727Y-145244198D02*
X101034493Y-145379685D01*
X100871639Y-145514167D01*
X100752534Y-145655064D01*
X100670481Y-145827368D01*
X100618785Y-146056071D01*
X100590750Y-146366166D01*
X100579679Y-146782644D01*
X100578392Y-147082028D01*
X100578392Y-148184049D01*
X100888593Y-148323108D01*
X101198794Y-148462168D01*
X101235289Y-147255137D01*
X101250368Y-146804349D01*
X101266187Y-146477152D01*
X101285786Y-146251178D01*
X101312208Y-146104061D01*
X101348492Y-146013432D01*
X101397681Y-145956924D01*
X101413463Y-145944693D01*
X101652581Y-145849166D01*
X101894282Y-145886967D01*
X102038162Y-145987256D01*
X102096689Y-146058324D01*
X102137202Y-146151581D01*
X102162949Y-146292958D01*
X102177178Y-146508386D01*
X102183140Y-146823796D01*
X102184139Y-147152505D01*
X102184335Y-147564899D01*
X102191397Y-147856803D01*
X102215032Y-148053676D01*
X102264950Y-148180977D01*
X102350861Y-148264166D01*
X102482471Y-148328701D01*
X102658258Y-148395761D01*
X102850249Y-148468756D01*
X102827395Y-147173265D01*
X102818192Y-146706247D01*
X102807424Y-146361125D01*
X102791993Y-146113821D01*
X102768796Y-145940263D01*
X102734732Y-145816374D01*
X102686702Y-145718082D01*
X102628796Y-145631360D01*
X102349421Y-145354325D01*
X102008519Y-145194122D01*
X101637738Y-145155747D01*
X101268727Y-145244198D01*
G36*
X106882551Y-145204658D02*
G01*
X106603675Y-145343706D01*
X106357530Y-145599727D01*
X106289743Y-145694560D01*
X106215894Y-145818651D01*
X106167980Y-145953431D01*
X106140568Y-146133311D01*
X106128228Y-146392705D01*
X106125518Y-146735152D01*
X106137755Y-147204439D01*
X106180290Y-147556796D01*
X106261858Y-147819670D01*
X106391196Y-148020507D01*
X106577040Y-148186753D01*
X106590695Y-148196596D01*
X106773849Y-148297284D01*
X106994401Y-148347101D01*
X107274895Y-148359383D01*
X107730882Y-148359383D01*
X107731074Y-148802043D01*
X107735317Y-149048575D01*
X107761174Y-149193184D01*
X107828746Y-149279914D01*
X107958130Y-149352811D01*
X107989202Y-149367704D01*
X108134608Y-149437497D01*
X108247190Y-149481579D01*
X108330904Y-149485386D01*
X108389705Y-149434353D01*
X108427549Y-149313917D01*
X108448393Y-149109514D01*
X108456191Y-148806580D01*
X108454900Y-148390551D01*
X108448477Y-147846863D01*
X108446471Y-147684239D01*
X108439244Y-147123655D01*
X108432770Y-146756953D01*
X107731266Y-146756953D01*
X107727323Y-147068215D01*
X107709800Y-147271867D01*
X107670155Y-147406188D01*
X107599847Y-147509459D01*
X107552112Y-147559827D01*
X107356962Y-147707203D01*
X107184182Y-147719199D01*
X107005900Y-147597495D01*
X107001381Y-147593004D01*
X106928844Y-147498945D01*
X106884718Y-147371111D01*
X106862460Y-147174245D01*
X106855529Y-146873089D01*
X106855404Y-146806370D01*
X106872154Y-146391358D01*
X106926680Y-146103663D01*
X107025389Y-145928035D01*
X107174690Y-145849223D01*
X107260979Y-145841279D01*
X107465774Y-145878550D01*
X107606248Y-146001271D01*
X107690806Y-146225804D01*
X107727851Y-146568514D01*
X107731266Y-146756953D01*
X108432770Y-146756953D01*
X108431584Y-146689781D01*
X108421683Y-146363355D01*
X108407736Y-146125119D01*
X108387935Y-145955810D01*
X108360474Y-145836169D01*
X108323547Y-145746934D01*
X108275346Y-145668844D01*
X108254678Y-145639460D01*
X107980519Y-145361892D01*
X107633887Y-145204518D01*
X107232916Y-145160644D01*
X106882551Y-145204658D01*
G37*
X106882551Y-145204658D02*
X106603675Y-145343706D01*
X106357530Y-145599727D01*
X106289743Y-145694560D01*
X106215894Y-145818651D01*
X106167980Y-145953431D01*
X106140568Y-146133311D01*
X106128228Y-146392705D01*
X106125518Y-146735152D01*
X106137755Y-147204439D01*
X106180290Y-147556796D01*
X106261858Y-147819670D01*
X106391196Y-148020507D01*
X106577040Y-148186753D01*
X106590695Y-148196596D01*
X106773849Y-148297284D01*
X106994401Y-148347101D01*
X107274895Y-148359383D01*
X107730882Y-148359383D01*
X107731074Y-148802043D01*
X107735317Y-149048575D01*
X107761174Y-149193184D01*
X107828746Y-149279914D01*
X107958130Y-149352811D01*
X107989202Y-149367704D01*
X108134608Y-149437497D01*
X108247190Y-149481579D01*
X108330904Y-149485386D01*
X108389705Y-149434353D01*
X108427549Y-149313917D01*
X108448393Y-149109514D01*
X108456191Y-148806580D01*
X108454900Y-148390551D01*
X108448477Y-147846863D01*
X108446471Y-147684239D01*
X108439244Y-147123655D01*
X108432770Y-146756953D01*
X107731266Y-146756953D01*
X107727323Y-147068215D01*
X107709800Y-147271867D01*
X107670155Y-147406188D01*
X107599847Y-147509459D01*
X107552112Y-147559827D01*
X107356962Y-147707203D01*
X107184182Y-147719199D01*
X107005900Y-147597495D01*
X107001381Y-147593004D01*
X106928844Y-147498945D01*
X106884718Y-147371111D01*
X106862460Y-147174245D01*
X106855529Y-146873089D01*
X106855404Y-146806370D01*
X106872154Y-146391358D01*
X106926680Y-146103663D01*
X107025389Y-145928035D01*
X107174690Y-145849223D01*
X107260979Y-145841279D01*
X107465774Y-145878550D01*
X107606248Y-146001271D01*
X107690806Y-146225804D01*
X107727851Y-146568514D01*
X107731266Y-146756953D01*
X108432770Y-146756953D01*
X108431584Y-146689781D01*
X108421683Y-146363355D01*
X108407736Y-146125119D01*
X108387935Y-145955810D01*
X108360474Y-145836169D01*
X108323547Y-145746934D01*
X108275346Y-145668844D01*
X108254678Y-145639460D01*
X107980519Y-145361892D01*
X107633887Y-145204518D01*
X107232916Y-145160644D01*
X106882551Y-145204658D01*
%TD*%
M02*
