%TF.GenerationSoftware,KiCad,Pcbnew,(5.1.6-0-10_14)*%
%TF.CreationDate,2020-09-02T17:46:37+08:00*%
%TF.ProjectId,EngineerPad,456e6769-6e65-4657-9250-61642e6b6963,v0.3*%
%TF.SameCoordinates,Original*%
%TF.FileFunction,Soldermask,Top*%
%TF.FilePolarity,Negative*%
%FSLAX46Y46*%
G04 Gerber Fmt 4.6, Leading zero omitted, Abs format (unit mm)*
G04 Created by KiCad (PCBNEW (5.1.6-0-10_14)) date 2020-09-02 17:46:37*
%MOMM*%
%LPD*%
G01*
G04 APERTURE LIST*
%ADD10C,0.120000*%
%ADD11C,0.400000*%
%ADD12C,1.624000*%
%ADD13R,1.624000X1.624000*%
%ADD14C,3.600000*%
%ADD15C,3.529000*%
%ADD16C,2.132000*%
%ADD17C,1.801800*%
%ADD18C,2.300000*%
%ADD19C,1.800000*%
%ADD20C,4.100000*%
%ADD21O,1.700000X1.700000*%
%ADD22R,1.700000X1.700000*%
%ADD23O,1.500000X1.500000*%
%ADD24C,1.500000*%
%ADD25R,1.800000X1.800000*%
%ADD26O,1.800000X1.800000*%
%ADD27C,1.810000*%
%ADD28C,1.900000*%
%ADD29R,1.900000X1.900000*%
%ADD30C,1.600000*%
%ADD31C,2.100000*%
%ADD32C,1.700000*%
%ADD33C,1.300000*%
%ADD34R,1.300000X1.300000*%
G04 APERTURE END LIST*
D10*
X84665000Y-142700000D02*
X84665000Y-146510000D01*
X104985000Y-146510000D02*
X104985000Y-142700000D01*
X104350000Y-142065000D02*
X85300000Y-142065000D01*
X104350000Y-147145000D02*
X85300000Y-147145000D01*
X104350000Y-142065000D02*
G75*
G02*
X104985000Y-142700000I0J-635000D01*
G01*
X104985000Y-146510000D02*
G75*
G02*
X104350000Y-147145000I-635000J0D01*
G01*
X85300000Y-147145000D02*
G75*
G02*
X84665000Y-146510000I0J635000D01*
G01*
X84665000Y-142700000D02*
G75*
G02*
X85300000Y-142065000I635000J0D01*
G01*
D11*
X86063095Y-144487542D02*
X86729761Y-144487542D01*
X87015476Y-145535161D02*
X86063095Y-145535161D01*
X86063095Y-143535161D01*
X87015476Y-143535161D01*
X87872619Y-144201828D02*
X87872619Y-145535161D01*
X87872619Y-144392304D02*
X87967857Y-144297066D01*
X88158333Y-144201828D01*
X88444047Y-144201828D01*
X88634523Y-144297066D01*
X88729761Y-144487542D01*
X88729761Y-145535161D01*
X90539285Y-144201828D02*
X90539285Y-145820876D01*
X90444047Y-146011352D01*
X90348809Y-146106590D01*
X90158333Y-146201828D01*
X89872619Y-146201828D01*
X89682142Y-146106590D01*
X90539285Y-145439923D02*
X90348809Y-145535161D01*
X89967857Y-145535161D01*
X89777380Y-145439923D01*
X89682142Y-145344685D01*
X89586904Y-145154209D01*
X89586904Y-144582780D01*
X89682142Y-144392304D01*
X89777380Y-144297066D01*
X89967857Y-144201828D01*
X90348809Y-144201828D01*
X90539285Y-144297066D01*
X91491666Y-145535161D02*
X91491666Y-144201828D01*
X91491666Y-143535161D02*
X91396428Y-143630400D01*
X91491666Y-143725638D01*
X91586904Y-143630400D01*
X91491666Y-143535161D01*
X91491666Y-143725638D01*
X92444047Y-144201828D02*
X92444047Y-145535161D01*
X92444047Y-144392304D02*
X92539285Y-144297066D01*
X92729761Y-144201828D01*
X93015476Y-144201828D01*
X93205952Y-144297066D01*
X93301190Y-144487542D01*
X93301190Y-145535161D01*
X95015476Y-145439923D02*
X94825000Y-145535161D01*
X94444047Y-145535161D01*
X94253571Y-145439923D01*
X94158333Y-145249447D01*
X94158333Y-144487542D01*
X94253571Y-144297066D01*
X94444047Y-144201828D01*
X94825000Y-144201828D01*
X95015476Y-144297066D01*
X95110714Y-144487542D01*
X95110714Y-144678019D01*
X94158333Y-144868495D01*
X96729761Y-145439923D02*
X96539285Y-145535161D01*
X96158333Y-145535161D01*
X95967857Y-145439923D01*
X95872619Y-145249447D01*
X95872619Y-144487542D01*
X95967857Y-144297066D01*
X96158333Y-144201828D01*
X96539285Y-144201828D01*
X96729761Y-144297066D01*
X96825000Y-144487542D01*
X96825000Y-144678019D01*
X95872619Y-144868495D01*
X97682142Y-145535161D02*
X97682142Y-144201828D01*
X97682142Y-144582780D02*
X97777380Y-144392304D01*
X97872619Y-144297066D01*
X98063095Y-144201828D01*
X98253571Y-144201828D01*
X98920238Y-145535161D02*
X98920238Y-143535161D01*
X99682142Y-143535161D01*
X99872619Y-143630400D01*
X99967857Y-143725638D01*
X100063095Y-143916114D01*
X100063095Y-144201828D01*
X99967857Y-144392304D01*
X99872619Y-144487542D01*
X99682142Y-144582780D01*
X98920238Y-144582780D01*
X101777380Y-145535161D02*
X101777380Y-144487542D01*
X101682142Y-144297066D01*
X101491666Y-144201828D01*
X101110714Y-144201828D01*
X100920238Y-144297066D01*
X101777380Y-145439923D02*
X101586904Y-145535161D01*
X101110714Y-145535161D01*
X100920238Y-145439923D01*
X100825000Y-145249447D01*
X100825000Y-145058971D01*
X100920238Y-144868495D01*
X101110714Y-144773257D01*
X101586904Y-144773257D01*
X101777380Y-144678019D01*
X103586904Y-145535161D02*
X103586904Y-143535161D01*
X103586904Y-145439923D02*
X103396428Y-145535161D01*
X103015476Y-145535161D01*
X102825000Y-145439923D01*
X102729761Y-145344685D01*
X102634523Y-145154209D01*
X102634523Y-144582780D01*
X102729761Y-144392304D01*
X102825000Y-144297066D01*
X103015476Y-144201828D01*
X103396428Y-144201828D01*
X103586904Y-144297066D01*
D12*
%TO.C,J2*%
X177360000Y-68405000D03*
X179860000Y-68405000D03*
X181860000Y-68405000D03*
D13*
X184360000Y-68405000D03*
D14*
X187430000Y-65695000D03*
X174290000Y-65695000D03*
%TD*%
D15*
%TO.C,SW22*%
X142450000Y-142700000D03*
D16*
X137450000Y-146500000D03*
X142450000Y-148600000D03*
D17*
X147950000Y-142700000D03*
X136950000Y-142700000D03*
%TD*%
D15*
%TO.C,SW23*%
X163913000Y-145494000D03*
D16*
X158099858Y-147870423D03*
X162385968Y-151192962D03*
D17*
X169225592Y-146917505D03*
X158600408Y-144070495D03*
%TD*%
D15*
%TO.C,SW21*%
X120987000Y-145494000D03*
D16*
X117140883Y-150458613D03*
X122514032Y-151192962D03*
D17*
X126299592Y-144070495D03*
X115674408Y-146917505D03*
%TD*%
D18*
%TO.C,H4*%
X151975000Y-133175000D03*
%TD*%
%TO.C,H3*%
X94825000Y-133175000D03*
%TD*%
%TO.C,H2*%
X151975000Y-76025000D03*
%TD*%
%TO.C,H1*%
X94825000Y-76025000D03*
%TD*%
D19*
%TO.C,SW20*%
X166580000Y-123650000D03*
X156420000Y-123650000D03*
D20*
X161500000Y-123650000D03*
D18*
X157690000Y-121110000D03*
X164040000Y-118570000D03*
%TD*%
D19*
%TO.C,SW19*%
X147530000Y-123650000D03*
X137370000Y-123650000D03*
D20*
X142450000Y-123650000D03*
D18*
X138640000Y-121110000D03*
X144990000Y-118570000D03*
%TD*%
D19*
%TO.C,SW18*%
X128480000Y-123650000D03*
X118320000Y-123650000D03*
D20*
X123400000Y-123650000D03*
D18*
X119590000Y-121110000D03*
X125940000Y-118570000D03*
%TD*%
D19*
%TO.C,SW17*%
X109430000Y-123650000D03*
X99270000Y-123650000D03*
D20*
X104350000Y-123650000D03*
D18*
X100540000Y-121110000D03*
X106890000Y-118570000D03*
%TD*%
D19*
%TO.C,SW16*%
X90380000Y-123650000D03*
X80220000Y-123650000D03*
D20*
X85300000Y-123650000D03*
D18*
X81490000Y-121110000D03*
X87840000Y-118570000D03*
%TD*%
D19*
%TO.C,SW15*%
X166580000Y-104600000D03*
X156420000Y-104600000D03*
D20*
X161500000Y-104600000D03*
D18*
X157690000Y-102060000D03*
X164040000Y-99520000D03*
%TD*%
D19*
%TO.C,SW14*%
X147530000Y-104600000D03*
X137370000Y-104600000D03*
D20*
X142450000Y-104600000D03*
D18*
X138640000Y-102060000D03*
X144990000Y-99520000D03*
%TD*%
D19*
%TO.C,SW13*%
X128480000Y-104600000D03*
X118320000Y-104600000D03*
D20*
X123400000Y-104600000D03*
D18*
X119590000Y-102060000D03*
X125940000Y-99520000D03*
%TD*%
D19*
%TO.C,SW12*%
X109430000Y-104600000D03*
X99270000Y-104600000D03*
D20*
X104350000Y-104600000D03*
D18*
X100540000Y-102060000D03*
X106890000Y-99520000D03*
%TD*%
D19*
%TO.C,SW11*%
X90380000Y-104600000D03*
X80220000Y-104600000D03*
D20*
X85300000Y-104600000D03*
D18*
X81490000Y-102060000D03*
X87840000Y-99520000D03*
%TD*%
D19*
%TO.C,SW10*%
X166580000Y-85550000D03*
X156420000Y-85550000D03*
D20*
X161500000Y-85550000D03*
D18*
X157690000Y-83010000D03*
X164040000Y-80470000D03*
%TD*%
D19*
%TO.C,SW9*%
X147530000Y-85550000D03*
X137370000Y-85550000D03*
D20*
X142450000Y-85550000D03*
D18*
X138640000Y-83010000D03*
X144990000Y-80470000D03*
%TD*%
D19*
%TO.C,SW8*%
X128480000Y-85550000D03*
X118320000Y-85550000D03*
D20*
X123400000Y-85550000D03*
D18*
X119590000Y-83010000D03*
X125940000Y-80470000D03*
%TD*%
D19*
%TO.C,SW7*%
X109430000Y-85550000D03*
X99270000Y-85550000D03*
D20*
X104350000Y-85550000D03*
D18*
X100540000Y-83010000D03*
X106890000Y-80470000D03*
%TD*%
D19*
%TO.C,SW6*%
X90380000Y-85550000D03*
X80220000Y-85550000D03*
D20*
X85300000Y-85550000D03*
D18*
X81490000Y-83010000D03*
X87840000Y-80470000D03*
%TD*%
D19*
%TO.C,SW5*%
X166580000Y-66500000D03*
X156420000Y-66500000D03*
D20*
X161500000Y-66500000D03*
D18*
X157690000Y-63960000D03*
X164040000Y-61420000D03*
%TD*%
D19*
%TO.C,SW4*%
X147530000Y-66500000D03*
X137370000Y-66500000D03*
D20*
X142450000Y-66500000D03*
D18*
X138640000Y-63960000D03*
X144990000Y-61420000D03*
%TD*%
D19*
%TO.C,SW3*%
X128480000Y-66500000D03*
X118320000Y-66500000D03*
D20*
X123400000Y-66500000D03*
D18*
X119590000Y-63960000D03*
X125940000Y-61420000D03*
%TD*%
D19*
%TO.C,SW2*%
X109430000Y-66500000D03*
X99270000Y-66500000D03*
D20*
X104350000Y-66500000D03*
D18*
X100540000Y-63960000D03*
X106890000Y-61420000D03*
%TD*%
D19*
%TO.C,SW1*%
X90380000Y-66500000D03*
X80220000Y-66500000D03*
D20*
X85300000Y-66500000D03*
D18*
X81490000Y-63960000D03*
X87840000Y-61420000D03*
%TD*%
D21*
%TO.C,D23*%
X151975000Y-146510000D03*
D22*
X151975000Y-138890000D03*
%TD*%
D21*
%TO.C,D22*%
X138690000Y-152400000D03*
D22*
X146310000Y-152400000D03*
%TD*%
D21*
%TO.C,D21*%
X133000000Y-146510000D03*
D22*
X133000000Y-138890000D03*
%TD*%
D21*
%TO.C,D20*%
X157690000Y-133175000D03*
D22*
X165310000Y-133175000D03*
%TD*%
D21*
%TO.C,D19*%
X138640000Y-133175000D03*
D22*
X146260000Y-133175000D03*
%TD*%
D21*
%TO.C,D18*%
X119590000Y-133175000D03*
D22*
X127210000Y-133175000D03*
%TD*%
D21*
%TO.C,D17*%
X100540000Y-133175000D03*
D22*
X108160000Y-133175000D03*
%TD*%
D21*
%TO.C,D16*%
X81490000Y-133175000D03*
D22*
X89110000Y-133175000D03*
%TD*%
D21*
%TO.C,D15*%
X157690000Y-114125000D03*
D22*
X165310000Y-114125000D03*
%TD*%
D21*
%TO.C,D14*%
X138640000Y-114125000D03*
D22*
X146260000Y-114125000D03*
%TD*%
D21*
%TO.C,D13*%
X119690000Y-114000000D03*
D22*
X127310000Y-114000000D03*
%TD*%
D21*
%TO.C,D12*%
X100540000Y-114125000D03*
D22*
X108160000Y-114125000D03*
%TD*%
D21*
%TO.C,D11*%
X81490000Y-114125000D03*
D22*
X89110000Y-114125000D03*
%TD*%
D21*
%TO.C,D10*%
X157690000Y-95075000D03*
D22*
X165310000Y-95075000D03*
%TD*%
D21*
%TO.C,D9*%
X138640000Y-95000000D03*
D22*
X146260000Y-95000000D03*
%TD*%
D21*
%TO.C,D8*%
X119590000Y-95075000D03*
D22*
X127210000Y-95075000D03*
%TD*%
D21*
%TO.C,D7*%
X100540000Y-95075000D03*
D22*
X108160000Y-95075000D03*
%TD*%
D21*
%TO.C,D6*%
X81490000Y-95075000D03*
D22*
X89110000Y-95075000D03*
%TD*%
D21*
%TO.C,D5*%
X157690000Y-76025000D03*
D22*
X165310000Y-76025000D03*
%TD*%
D21*
%TO.C,D4*%
X138640000Y-76025000D03*
D22*
X146260000Y-76025000D03*
%TD*%
D21*
%TO.C,D3*%
X119590000Y-76025000D03*
D22*
X127210000Y-76025000D03*
%TD*%
D21*
%TO.C,D2*%
X100540000Y-76025000D03*
D22*
X108160000Y-76025000D03*
%TD*%
D21*
%TO.C,D1*%
X81490000Y-76025000D03*
D22*
X89110000Y-76025000D03*
%TD*%
D23*
%TO.C,R6*%
X184360000Y-84915000D03*
D24*
X184360000Y-89995000D03*
%TD*%
D23*
%TO.C,R3*%
X181185000Y-84915000D03*
D24*
X181185000Y-89995000D03*
%TD*%
D23*
%TO.C,R1*%
X174835000Y-84915000D03*
D24*
X174835000Y-89995000D03*
%TD*%
D23*
%TO.C,R2*%
X178010000Y-89995000D03*
D24*
X178010000Y-84915000D03*
%TD*%
D23*
%TO.C,R5*%
X187535000Y-84915000D03*
D24*
X187535000Y-89995000D03*
%TD*%
D25*
%TO.C,J1*%
X180550000Y-145240000D03*
D26*
X183090000Y-145240000D03*
X180550000Y-147780000D03*
X183090000Y-147780000D03*
X180550000Y-150320000D03*
X183090000Y-150320000D03*
%TD*%
D21*
%TO.C,U1*%
X174835000Y-128095000D03*
X182455000Y-95075000D03*
X174835000Y-125555000D03*
X182455000Y-97615000D03*
X174835000Y-123015000D03*
X182455000Y-100155000D03*
X174835000Y-120475000D03*
X182455000Y-102695000D03*
X174835000Y-117935000D03*
X182455000Y-105235000D03*
X174835000Y-115395000D03*
X182455000Y-107775000D03*
X174835000Y-112855000D03*
X182455000Y-110315000D03*
X174835000Y-110315000D03*
X182455000Y-112855000D03*
X174835000Y-107775000D03*
X182455000Y-115395000D03*
X174835000Y-105235000D03*
X182455000Y-117935000D03*
X174835000Y-102695000D03*
X182455000Y-120475000D03*
X174835000Y-100155000D03*
X182455000Y-123015000D03*
X174835000Y-97615000D03*
X182455000Y-125555000D03*
X174835000Y-95075000D03*
D22*
X182455000Y-128095000D03*
%TD*%
D27*
%TO.C,F1*%
X183090000Y-74755000D03*
X181890000Y-79855000D03*
%TD*%
D28*
%TO.C,D26*%
X187535000Y-76025000D03*
D29*
X187535000Y-73485000D03*
%TD*%
D30*
%TO.C,Y1*%
X187535000Y-103070000D03*
X187535000Y-107950000D03*
%TD*%
D31*
%TO.C,Reset1*%
X185145000Y-134445000D03*
X185145000Y-138945000D03*
X178645000Y-134445000D03*
X178645000Y-138945000D03*
%TD*%
D21*
%TO.C,D25*%
X178010000Y-81105000D03*
D22*
X178010000Y-73485000D03*
%TD*%
D21*
%TO.C,D24*%
X174835000Y-81105000D03*
D22*
X174835000Y-73485000D03*
%TD*%
D32*
%TO.C,C5*%
X172092000Y-112950000D03*
X172092000Y-107950000D03*
%TD*%
%TO.C,C4*%
X185224000Y-118037000D03*
X185224000Y-113037000D03*
%TD*%
D33*
%TO.C,C3*%
X187535000Y-81335000D03*
D34*
X187535000Y-79835000D03*
%TD*%
D32*
%TO.C,C2*%
X187535000Y-113030000D03*
X187535000Y-115530000D03*
%TD*%
%TO.C,C1*%
X187535000Y-97750000D03*
X187535000Y-95250000D03*
%TD*%
M02*
