M48
; DRILL file {KiCad (5.1.6-0-10_14)} date Wednesday, September 02, 2020 at 05:46:46 PM
; FORMAT={-:-/ absolute / inch / decimal}
; #@! TF.CreationDate,2020-09-02T17:46:46+08:00
; #@! TF.GenerationSoftware,Kicad,Pcbnew,(5.1.6-0-10_14)
; #@! TF.FileFunction,Plated,1,2,PTH
FMAT,2
INCH
T1C0.0236
T2C0.0276
T3C0.0280
T4C0.0315
T5C0.0354
T6C0.0362
T7C0.0394
T8C0.0433
T9C0.0500
T10C0.0591
T11C0.0906
%
G90
G05
T1
X7.3833Y-3.1431
X7.3833Y-3.2022
T2
X7.2583Y-3.3431
X7.2583Y-3.5431
X7.0083Y-3.3431
X7.0083Y-3.5431
X7.1333Y-3.3431
X7.1333Y-3.5431
X7.3833Y-3.3431
X7.3833Y-3.5431
X6.8833Y-3.3431
X6.8833Y-3.5431
T3
X7.161Y-3.1439
X7.2083Y-2.9431
T4
X5.4583Y-5.2431
X5.7583Y-5.2431
X5.4583Y-2.9931
X5.7583Y-2.9931
X7.0083Y-2.8931
X7.0083Y-3.1931
X5.9833Y-5.4681
X5.9833Y-5.7681
X3.9583Y-2.9931
X4.2583Y-2.9931
X6.8833Y-3.7431
X6.8833Y-3.8431
X6.8833Y-3.9431
X6.8833Y-4.0431
X6.8833Y-4.1431
X6.8833Y-4.2431
X6.8833Y-4.3431
X6.8833Y-4.4431
X6.8833Y-4.5431
X6.8833Y-4.6431
X6.8833Y-4.7431
X6.8833Y-4.8431
X6.8833Y-4.9431
X6.8833Y-5.0431
X7.1833Y-3.7431
X7.1833Y-3.8431
X7.1833Y-3.9431
X7.1833Y-4.0431
X7.1833Y-4.1431
X7.1833Y-4.2431
X7.1833Y-4.3431
X7.1833Y-4.4431
X7.1833Y-4.5431
X7.1833Y-4.6431
X7.1833Y-4.7431
X7.1833Y-4.8431
X7.1833Y-4.9431
X7.1833Y-5.0431
X5.4583Y-4.4931
X5.7583Y-4.4931
X6.2083Y-2.9931
X6.5083Y-2.9931
X7.3833Y-3.75
X7.3833Y-3.8484
X3.2083Y-3.7431
X3.5083Y-3.7431
X7.2923Y-4.4503
X7.2923Y-4.6471
X5.2362Y-5.4681
X5.2362Y-5.7681
X3.9583Y-3.7431
X4.2583Y-3.7431
X3.9583Y-4.4931
X4.2583Y-4.4931
X6.8833Y-2.8931
X6.8833Y-3.1931
X5.4602Y-6.0
X5.7602Y-6.0
X4.7083Y-5.2431
X5.0083Y-5.2431
X4.7083Y-3.7431
X5.0083Y-3.7431
X3.2083Y-2.9931
X3.5083Y-2.9931
X4.7083Y-2.9931
X5.0083Y-2.9931
X4.7122Y-4.4882
X5.0122Y-4.4882
X7.3833Y-4.0579
X7.3833Y-4.25
X5.4583Y-3.7402
X5.7583Y-3.7402
X6.2083Y-5.2431
X6.5083Y-5.2431
X7.3833Y-4.45
X7.3833Y-4.5484
X6.2083Y-3.7431
X6.5083Y-3.7431
X6.2083Y-4.4931
X6.5083Y-4.4931
X3.2083Y-4.4931
X3.5083Y-4.4931
X6.7753Y-4.25
X6.7753Y-4.4469
X3.2083Y-5.2431
X3.5083Y-5.2431
X3.9583Y-5.2431
X4.2583Y-5.2431
T5
X7.3833Y-2.8931
X7.3833Y-2.9931
T6
X6.9827Y-2.6931
X7.0811Y-2.6931
X7.1598Y-2.6931
X7.2583Y-2.6931
T7
X7.1083Y-5.7181
X7.1083Y-5.8181
X7.1083Y-5.9181
X7.2083Y-5.7181
X7.2083Y-5.8181
X7.2083Y-5.9181
T8
X7.0333Y-5.2931
X7.0333Y-5.4703
X7.2892Y-5.2931
X7.2892Y-5.4703
T9
X5.4114Y-5.7677
X5.6083Y-5.8504
X6.2244Y-5.8217
X6.3931Y-5.9525
X4.6118Y-5.9236
X4.8234Y-5.9525
T10
X4.7083Y-4.0181
X4.9583Y-3.9181
X3.2083Y-2.5181
X3.4583Y-2.4181
X4.7083Y-3.2681
X4.9583Y-3.1681
X4.7083Y-4.7681
X4.9583Y-4.6681
X4.7083Y-2.5181
X4.9583Y-2.4181
X5.4583Y-3.2681
X5.7083Y-3.1681
X3.9583Y-4.0181
X4.2083Y-3.9181
X5.4583Y-2.5181
X5.7083Y-2.4181
X6.2083Y-2.5181
X6.4583Y-2.4181
X3.2083Y-4.0181
X3.4583Y-3.9181
X3.9583Y-4.7681
X4.2083Y-4.6681
X5.4583Y-4.0181
X5.7083Y-3.9181
X5.4583Y-4.7681
X5.7083Y-4.6681
X6.2083Y-4.0181
X6.4583Y-3.9181
X3.2083Y-3.2681
X3.4583Y-3.1681
X6.2083Y-4.7681
X6.4583Y-4.6681
X3.2083Y-4.7681
X3.4583Y-4.6681
X6.2083Y-3.2681
X6.4583Y-3.1681
X3.9583Y-3.2681
X4.2083Y-3.1681
X3.9583Y-2.5181
X4.2083Y-2.4181
T11
X6.8618Y-2.5864
X7.3791Y-2.5864
T0
M30
