M48
; DRILL file {KiCad (5.1.7-0-10_14)} date Monday, November 02, 2020 at 04:42:52 PM
; FORMAT={-:-/ absolute / inch / decimal}
; #@! TF.CreationDate,2020-11-02T16:42:52+08:00
; #@! TF.GenerationSoftware,Kicad,Pcbnew,(5.1.7-0-10_14)
; #@! TF.FileFunction,Plated,1,2,PTH
FMAT,2
INCH
T1C0.0236
T2C0.0276
T3C0.0280
T4C0.0315
T5C0.0354
T6C0.0394
T7C0.0433
T8C0.0500
T9C0.0591
%
G90
G05
T1
X7.3992Y-2.7431
X7.4583Y-2.7431
T2
X7.1703Y-2.5931
X7.2018Y-2.5459
X7.2333Y-2.5931
X7.2648Y-2.5459
X7.2963Y-2.5931
T3
X6.9825Y-2.7209
X7.1833Y-2.7681
T4
X4.4833Y-2.5431
X4.4833Y-2.8431
X6.9258Y-4.3181
X6.9258Y-4.515
X5.9833Y-3.9931
X5.9833Y-4.2931
X5.6083Y-5.3681
X5.6083Y-5.6681
X5.2333Y-2.5431
X5.2333Y-2.8431
X7.0833Y-2.9181
X7.0833Y-3.2181
X7.2333Y-3.3681
X7.2333Y-3.6681
X3.7333Y-4.7931
X3.7333Y-5.0931
X7.5333Y-3.3681
X7.5333Y-3.6681
X5.9833Y-2.4931
X5.9833Y-2.7931
X6.9333Y-3.3681
X6.9333Y-3.6681
X6.7333Y-4.0431
X6.7333Y-4.3431
X7.0333Y-3.8181
X7.0333Y-3.9181
X7.0333Y-4.0181
X7.0333Y-4.1181
X7.0333Y-4.2181
X7.0333Y-4.3181
X7.0333Y-4.4181
X7.0333Y-4.5181
X7.0333Y-4.6181
X7.0333Y-4.7181
X7.0333Y-4.8181
X7.0333Y-4.9181
X7.0333Y-5.0181
X7.0333Y-5.1181
X7.3333Y-3.8181
X7.3333Y-3.9181
X7.3333Y-4.0181
X7.3333Y-4.1181
X7.3333Y-4.2181
X7.3333Y-4.3181
X7.3333Y-4.4181
X7.3333Y-4.5181
X7.3333Y-4.6181
X7.3333Y-4.7181
X7.3333Y-4.8181
X7.3333Y-4.9181
X7.3333Y-5.0181
X7.3333Y-5.1181
X4.4833Y-4.7931
X4.4833Y-5.0931
X7.4433Y-4.5181
X7.4433Y-4.715
X6.3583Y-5.3681
X6.3583Y-5.6681
X6.7333Y-2.5431
X6.7333Y-2.8431
X6.7333Y-3.2931
X6.7333Y-3.5931
X3.7333Y-2.4931
X3.7333Y-2.7931
X7.0833Y-3.3681
X7.0833Y-3.6681
X3.7333Y-3.2931
X3.7333Y-3.5931
X6.7333Y-4.7931
X6.7333Y-5.0931
X7.1083Y-5.3681
X7.1083Y-5.6681
X4.4833Y-3.2931
X4.4833Y-3.5931
X7.5083Y-3.8181
X7.5083Y-3.9165
X7.5333Y-4.5181
X7.5333Y-4.6165
X5.2333Y-3.2931
X5.2333Y-3.5931
X6.9333Y-2.9181
X6.9333Y-3.2181
X3.7333Y-3.9931
X3.7333Y-4.2931
X5.9833Y-3.2931
X5.9833Y-3.5931
X4.4833Y-4.0431
X4.4833Y-4.3431
X7.3833Y-3.3681
X7.3833Y-3.6681
X5.9833Y-4.7931
X5.9833Y-5.0931
X7.5083Y-4.1181
X7.5083Y-4.3102
X5.2333Y-4.7931
X5.2333Y-5.0931
X5.2333Y-4.0431
X5.2333Y-4.3431
T5
X6.3083Y-2.4181
X6.4083Y-2.4181
T6
X7.3583Y-5.4187
X7.3583Y-5.5187
X7.3583Y-5.6187
X7.4583Y-5.4187
X7.4583Y-5.5187
X7.4583Y-5.6187
T7
X7.2947Y-2.9431
X7.2947Y-3.199
X7.4719Y-2.9431
X7.4719Y-3.199
T8
X5.9833Y-5.3858
X6.1801Y-5.4685
X6.7333Y-5.3858
X6.9301Y-5.4685
X5.2333Y-5.3858
X5.4301Y-5.4685
T9
X3.2583Y-5.0681
X3.5083Y-4.9681
X4.7583Y-5.0681
X5.0083Y-4.9681
X4.0083Y-2.8181
X4.2583Y-2.7181
X5.5083Y-2.8181
X5.7583Y-2.7181
X3.2583Y-3.5681
X3.5083Y-3.4681
X6.2583Y-5.0681
X6.5083Y-4.9681
X4.7583Y-3.5681
X5.0083Y-3.4681
X6.2583Y-3.5681
X6.5083Y-3.4681
X4.0083Y-4.3181
X4.2583Y-4.2181
X5.5083Y-4.3181
X5.7583Y-4.2181
X4.0083Y-5.0681
X4.2583Y-4.9681
X3.2583Y-2.8181
X3.5083Y-2.7181
X4.7583Y-2.8181
X5.0083Y-2.7181
X6.2583Y-2.8181
X6.5083Y-2.7181
X5.5083Y-5.0681
X5.7583Y-4.9681
X4.0083Y-3.5681
X4.2583Y-3.4681
X5.5083Y-3.5681
X5.7583Y-3.4681
X3.2583Y-4.3181
X3.5083Y-4.2181
X6.2583Y-4.3181
X6.5083Y-4.2181
X4.7583Y-4.3181
X5.0083Y-4.2181
T2
G00X7.0896Y-2.3707
M15
G01X7.0896Y-2.4179
M16
G05
G00X7.377Y-2.3707
M15
G01X7.377Y-2.4179
M16
G05
T0
M30
