%TF.GenerationSoftware,KiCad,Pcbnew,(5.1.7-0-10_14)*%
%TF.CreationDate,2020-11-02T16:42:48+08:00*%
%TF.ProjectId,GreenCircuit,47726565-6e43-4697-9263-7569742e6b69,v0.6*%
%TF.SameCoordinates,Original*%
%TF.FileFunction,Legend,Top*%
%TF.FilePolarity,Positive*%
%FSLAX46Y46*%
G04 Gerber Fmt 4.6, Leading zero omitted, Abs format (unit mm)*
G04 Created by KiCad (PCBNEW (5.1.7-0-10_14)) date 2020-11-02 16:42:48*
%MOMM*%
%LPD*%
G01*
G04 APERTURE LIST*
%ADD10C,0.150000*%
%ADD11C,0.120000*%
%ADD12C,0.100000*%
%ADD13C,0.254000*%
G04 APERTURE END LIST*
D10*
X189141514Y-108568571D02*
X189179609Y-108606666D01*
X189217704Y-108720952D01*
X189217704Y-108797142D01*
X189179609Y-108911428D01*
X189103419Y-108987619D01*
X189027228Y-109025714D01*
X188874847Y-109063809D01*
X188760561Y-109063809D01*
X188608180Y-109025714D01*
X188531990Y-108987619D01*
X188455800Y-108911428D01*
X188417704Y-108797142D01*
X188417704Y-108720952D01*
X188455800Y-108606666D01*
X188493895Y-108568571D01*
X189217704Y-108225714D02*
X188684371Y-108225714D01*
X188836752Y-108225714D02*
X188760561Y-108187619D01*
X188722466Y-108149523D01*
X188684371Y-108073333D01*
X188684371Y-107997142D01*
X188684371Y-107806666D02*
X189217704Y-107616190D01*
X188684371Y-107425714D02*
X189217704Y-107616190D01*
X189408180Y-107692380D01*
X189446276Y-107730476D01*
X189484371Y-107806666D01*
X189179609Y-107159047D02*
X189217704Y-107082857D01*
X189217704Y-106930476D01*
X189179609Y-106854285D01*
X189103419Y-106816190D01*
X189065323Y-106816190D01*
X188989133Y-106854285D01*
X188951038Y-106930476D01*
X188951038Y-107044761D01*
X188912942Y-107120952D01*
X188836752Y-107159047D01*
X188798657Y-107159047D01*
X188722466Y-107120952D01*
X188684371Y-107044761D01*
X188684371Y-106930476D01*
X188722466Y-106854285D01*
X188684371Y-106587619D02*
X188684371Y-106282857D01*
X188417704Y-106473333D02*
X189103419Y-106473333D01*
X189179609Y-106435238D01*
X189217704Y-106359047D01*
X189217704Y-106282857D01*
X189217704Y-105673333D02*
X188798657Y-105673333D01*
X188722466Y-105711428D01*
X188684371Y-105787619D01*
X188684371Y-105940000D01*
X188722466Y-106016190D01*
X189179609Y-105673333D02*
X189217704Y-105749523D01*
X189217704Y-105940000D01*
X189179609Y-106016190D01*
X189103419Y-106054285D01*
X189027228Y-106054285D01*
X188951038Y-106016190D01*
X188912942Y-105940000D01*
X188912942Y-105749523D01*
X188874847Y-105673333D01*
X189217704Y-105178095D02*
X189179609Y-105254285D01*
X189103419Y-105292380D01*
X188417704Y-105292380D01*
X173652380Y-82787142D02*
X173652380Y-82120476D01*
X174652380Y-82787142D01*
X174652380Y-82120476D01*
X174604761Y-81358571D02*
X174652380Y-81453809D01*
X174652380Y-81644285D01*
X174604761Y-81739523D01*
X174509523Y-81787142D01*
X174128571Y-81787142D01*
X174033333Y-81739523D01*
X173985714Y-81644285D01*
X173985714Y-81453809D01*
X174033333Y-81358571D01*
X174128571Y-81310952D01*
X174223809Y-81310952D01*
X174319047Y-81787142D01*
X173985714Y-80882380D02*
X174652380Y-80882380D01*
X174080952Y-80882380D02*
X174033333Y-80834761D01*
X173985714Y-80739523D01*
X173985714Y-80596666D01*
X174033333Y-80501428D01*
X174128571Y-80453809D01*
X174652380Y-80453809D01*
X173985714Y-79977619D02*
X174652380Y-79977619D01*
X174080952Y-79977619D02*
X174033333Y-79930000D01*
X173985714Y-79834761D01*
X173985714Y-79691904D01*
X174033333Y-79596666D01*
X174128571Y-79549047D01*
X174652380Y-79549047D01*
X174604761Y-78691904D02*
X174652380Y-78787142D01*
X174652380Y-78977619D01*
X174604761Y-79072857D01*
X174509523Y-79120476D01*
X174128571Y-79120476D01*
X174033333Y-79072857D01*
X173985714Y-78977619D01*
X173985714Y-78787142D01*
X174033333Y-78691904D01*
X174128571Y-78644285D01*
X174223809Y-78644285D01*
X174319047Y-79120476D01*
X174652380Y-78215714D02*
X173985714Y-78215714D01*
X174176190Y-78215714D02*
X174080952Y-78168095D01*
X174033333Y-78120476D01*
X173985714Y-78025238D01*
X173985714Y-77930000D01*
X174652380Y-76834761D02*
X173652380Y-76834761D01*
X173652380Y-76596666D01*
X173700000Y-76453809D01*
X173795238Y-76358571D01*
X173890476Y-76310952D01*
X174080952Y-76263333D01*
X174223809Y-76263333D01*
X174414285Y-76310952D01*
X174509523Y-76358571D01*
X174604761Y-76453809D01*
X174652380Y-76596666D01*
X174652380Y-76834761D01*
X174652380Y-75834761D02*
X173985714Y-75834761D01*
X173652380Y-75834761D02*
X173700000Y-75882380D01*
X173747619Y-75834761D01*
X173700000Y-75787142D01*
X173652380Y-75834761D01*
X173747619Y-75834761D01*
X174652380Y-75215714D02*
X174604761Y-75310952D01*
X174557142Y-75358571D01*
X174461904Y-75406190D01*
X174176190Y-75406190D01*
X174080952Y-75358571D01*
X174033333Y-75310952D01*
X173985714Y-75215714D01*
X173985714Y-75072857D01*
X174033333Y-74977619D01*
X174080952Y-74930000D01*
X174176190Y-74882380D01*
X174461904Y-74882380D01*
X174557142Y-74930000D01*
X174604761Y-74977619D01*
X174652380Y-75072857D01*
X174652380Y-75215714D01*
X174652380Y-74025238D02*
X173652380Y-74025238D01*
X174604761Y-74025238D02*
X174652380Y-74120476D01*
X174652380Y-74310952D01*
X174604761Y-74406190D01*
X174557142Y-74453809D01*
X174461904Y-74501428D01*
X174176190Y-74501428D01*
X174080952Y-74453809D01*
X174033333Y-74406190D01*
X173985714Y-74310952D01*
X173985714Y-74120476D01*
X174033333Y-74025238D01*
X174604761Y-73168095D02*
X174652380Y-73263333D01*
X174652380Y-73453809D01*
X174604761Y-73549047D01*
X174509523Y-73596666D01*
X174128571Y-73596666D01*
X174033333Y-73549047D01*
X173985714Y-73453809D01*
X173985714Y-73263333D01*
X174033333Y-73168095D01*
X174128571Y-73120476D01*
X174223809Y-73120476D01*
X174319047Y-73596666D01*
D11*
%TO.C,D15*%
X172145000Y-104385000D02*
X169905000Y-104385000D01*
X169905000Y-104385000D02*
X169905000Y-108625000D01*
X169905000Y-108625000D02*
X172145000Y-108625000D01*
X172145000Y-108625000D02*
X172145000Y-104385000D01*
X171025000Y-103735000D02*
X171025000Y-104385000D01*
X171025000Y-109275000D02*
X171025000Y-108625000D01*
X172145000Y-105105000D02*
X169905000Y-105105000D01*
X172145000Y-105225000D02*
X169905000Y-105225000D01*
X172145000Y-104985000D02*
X169905000Y-104985000D01*
%TO.C,SW15*%
X168485000Y-108410000D02*
X168485000Y-111585000D01*
X165310000Y-97615000D02*
X168485000Y-97615000D01*
X154515000Y-100790000D02*
X154515000Y-97615000D01*
X168485000Y-111585000D02*
X165310000Y-111585000D01*
X157690000Y-111585000D02*
X154515000Y-111585000D01*
X168485000Y-97615000D02*
X168485000Y-100790000D01*
X157690000Y-97615000D02*
X154515000Y-97615000D01*
X154515000Y-108410000D02*
X154515000Y-111585000D01*
%TO.C,D26*%
X159940000Y-60184000D02*
X159940000Y-60340000D01*
X159940000Y-62500000D02*
X159940000Y-62656000D01*
X162541130Y-62499837D02*
G75*
G02*
X160459039Y-62500000I-1041130J1079837D01*
G01*
X162541130Y-60340163D02*
G75*
G03*
X160459039Y-60340000I-1041130J-1079837D01*
G01*
X163172335Y-62498608D02*
G75*
G02*
X159940000Y-62655516I-1672335J1078608D01*
G01*
X163172335Y-60341392D02*
G75*
G03*
X159940000Y-60184484I-1672335J-1078608D01*
G01*
%TO.C,R1*%
X185095000Y-86090000D02*
X184765000Y-86090000D01*
X185095000Y-92630000D02*
X185095000Y-86090000D01*
X184765000Y-92630000D02*
X185095000Y-92630000D01*
X182355000Y-86090000D02*
X182685000Y-86090000D01*
X182355000Y-92630000D02*
X182355000Y-86090000D01*
X182685000Y-92630000D02*
X182355000Y-92630000D01*
%TO.C,R2*%
X178545000Y-92630000D02*
X178875000Y-92630000D01*
X178545000Y-86090000D02*
X178545000Y-92630000D01*
X178875000Y-86090000D02*
X178545000Y-86090000D01*
X181285000Y-92630000D02*
X180955000Y-92630000D01*
X181285000Y-86090000D02*
X181285000Y-92630000D01*
X180955000Y-86090000D02*
X181285000Y-86090000D01*
%TO.C,R3*%
X177475000Y-86090000D02*
X177145000Y-86090000D01*
X177475000Y-92630000D02*
X177475000Y-86090000D01*
X177145000Y-92630000D02*
X177475000Y-92630000D01*
X174735000Y-86090000D02*
X175065000Y-86090000D01*
X174735000Y-92630000D02*
X174735000Y-86090000D01*
X175065000Y-92630000D02*
X174735000Y-92630000D01*
%TO.C,R5*%
X188905000Y-86090000D02*
X188575000Y-86090000D01*
X188905000Y-92630000D02*
X188905000Y-86090000D01*
X188575000Y-92630000D02*
X188905000Y-92630000D01*
X186165000Y-86090000D02*
X186495000Y-86090000D01*
X186165000Y-92630000D02*
X186165000Y-86090000D01*
X186495000Y-92630000D02*
X186165000Y-92630000D01*
%TO.C,R6*%
X192715000Y-86090000D02*
X192385000Y-86090000D01*
X192715000Y-92630000D02*
X192715000Y-86090000D01*
X192385000Y-92630000D02*
X192715000Y-92630000D01*
X189975000Y-86090000D02*
X190305000Y-86090000D01*
X189975000Y-92630000D02*
X189975000Y-86090000D01*
X190305000Y-92630000D02*
X189975000Y-92630000D01*
%TO.C,Reset1*%
X184285000Y-75755000D02*
X184285000Y-80255000D01*
X188285000Y-74505000D02*
X186785000Y-74505000D01*
X190785000Y-80255000D02*
X190785000Y-75755000D01*
X186785000Y-81505000D02*
X188285000Y-81505000D01*
%TO.C,J2*%
X185570000Y-136305000D02*
X186900000Y-136305000D01*
X185570000Y-137635000D02*
X185570000Y-136305000D01*
X188170000Y-136305000D02*
X190770000Y-136305000D01*
X188170000Y-138905000D02*
X188170000Y-136305000D01*
X185570000Y-138905000D02*
X188170000Y-138905000D01*
X190770000Y-136305000D02*
X190770000Y-144045000D01*
X185570000Y-138905000D02*
X185570000Y-144045000D01*
X185570000Y-144045000D02*
X190770000Y-144045000D01*
D12*
%TO.C,J1*%
X187700000Y-66190000D02*
X187225000Y-66190000D01*
X187700000Y-65615000D02*
X187700000Y-66190000D01*
X187700000Y-56940000D02*
X187075000Y-56940000D01*
X187700000Y-57865000D02*
X187700000Y-56940000D01*
X179750000Y-56940000D02*
X180375000Y-56940000D01*
X179750000Y-57790000D02*
X179750000Y-56940000D01*
X179750000Y-65315000D02*
X179750000Y-66165000D01*
X180400000Y-66190000D02*
X179750000Y-66190000D01*
X179750000Y-66190000D02*
X179750000Y-66165000D01*
D10*
%TO.C,SW22*%
X158975000Y-148700000D02*
X158975000Y-149700000D01*
X158975000Y-135700000D02*
X157975000Y-135700000D01*
X157975000Y-149700000D02*
X158975000Y-149700000D01*
X158975000Y-135700000D02*
X158975000Y-136700000D01*
X144975000Y-136700000D02*
X144975000Y-135700000D01*
X144975000Y-149700000D02*
X145975000Y-149700000D01*
X145975000Y-135700000D02*
X144975000Y-135700000D01*
X144975000Y-149700000D02*
X144975000Y-148700000D01*
%TO.C,SW23*%
X178025000Y-148700000D02*
X178025000Y-149700000D01*
X178025000Y-135700000D02*
X177025000Y-135700000D01*
X177025000Y-149700000D02*
X178025000Y-149700000D01*
X178025000Y-135700000D02*
X178025000Y-136700000D01*
X164025000Y-136700000D02*
X164025000Y-135700000D01*
X164025000Y-149700000D02*
X165025000Y-149700000D01*
X165025000Y-135700000D02*
X164025000Y-135700000D01*
X164025000Y-149700000D02*
X164025000Y-148700000D01*
%TO.C,SW21*%
X139925000Y-148700000D02*
X139925000Y-149700000D01*
X139925000Y-135700000D02*
X138925000Y-135700000D01*
X138925000Y-149700000D02*
X139925000Y-149700000D01*
X139925000Y-135700000D02*
X139925000Y-136700000D01*
X125925000Y-136700000D02*
X125925000Y-135700000D01*
X125925000Y-149700000D02*
X126925000Y-149700000D01*
X126925000Y-135700000D02*
X125925000Y-135700000D01*
X125925000Y-149700000D02*
X125925000Y-148700000D01*
D11*
%TO.C,SW20*%
X168485000Y-127460000D02*
X168485000Y-130635000D01*
X165310000Y-116665000D02*
X168485000Y-116665000D01*
X154515000Y-119840000D02*
X154515000Y-116665000D01*
X168485000Y-130635000D02*
X165310000Y-130635000D01*
X157690000Y-130635000D02*
X154515000Y-130635000D01*
X168485000Y-116665000D02*
X168485000Y-119840000D01*
X157690000Y-116665000D02*
X154515000Y-116665000D01*
X154515000Y-127460000D02*
X154515000Y-130635000D01*
%TO.C,SW19*%
X149435000Y-127460000D02*
X149435000Y-130635000D01*
X146260000Y-116665000D02*
X149435000Y-116665000D01*
X135465000Y-119840000D02*
X135465000Y-116665000D01*
X149435000Y-130635000D02*
X146260000Y-130635000D01*
X138640000Y-130635000D02*
X135465000Y-130635000D01*
X149435000Y-116665000D02*
X149435000Y-119840000D01*
X138640000Y-116665000D02*
X135465000Y-116665000D01*
X135465000Y-127460000D02*
X135465000Y-130635000D01*
%TO.C,SW18*%
X130385000Y-127460000D02*
X130385000Y-130635000D01*
X127210000Y-116665000D02*
X130385000Y-116665000D01*
X116415000Y-119840000D02*
X116415000Y-116665000D01*
X130385000Y-130635000D02*
X127210000Y-130635000D01*
X119590000Y-130635000D02*
X116415000Y-130635000D01*
X130385000Y-116665000D02*
X130385000Y-119840000D01*
X119590000Y-116665000D02*
X116415000Y-116665000D01*
X116415000Y-127460000D02*
X116415000Y-130635000D01*
%TO.C,SW17*%
X111335000Y-127460000D02*
X111335000Y-130635000D01*
X108160000Y-116665000D02*
X111335000Y-116665000D01*
X97365000Y-119840000D02*
X97365000Y-116665000D01*
X111335000Y-130635000D02*
X108160000Y-130635000D01*
X100540000Y-130635000D02*
X97365000Y-130635000D01*
X111335000Y-116665000D02*
X111335000Y-119840000D01*
X100540000Y-116665000D02*
X97365000Y-116665000D01*
X97365000Y-127460000D02*
X97365000Y-130635000D01*
%TO.C,SW16*%
X92285000Y-127460000D02*
X92285000Y-130635000D01*
X89110000Y-116665000D02*
X92285000Y-116665000D01*
X78315000Y-119840000D02*
X78315000Y-116665000D01*
X92285000Y-130635000D02*
X89110000Y-130635000D01*
X81490000Y-130635000D02*
X78315000Y-130635000D01*
X92285000Y-116665000D02*
X92285000Y-119840000D01*
X81490000Y-116665000D02*
X78315000Y-116665000D01*
X78315000Y-127460000D02*
X78315000Y-130635000D01*
%TO.C,SW14*%
X149435000Y-108410000D02*
X149435000Y-111585000D01*
X146260000Y-97615000D02*
X149435000Y-97615000D01*
X135465000Y-100790000D02*
X135465000Y-97615000D01*
X149435000Y-111585000D02*
X146260000Y-111585000D01*
X138640000Y-111585000D02*
X135465000Y-111585000D01*
X149435000Y-97615000D02*
X149435000Y-100790000D01*
X138640000Y-97615000D02*
X135465000Y-97615000D01*
X135465000Y-108410000D02*
X135465000Y-111585000D01*
%TO.C,SW13*%
X130385000Y-108410000D02*
X130385000Y-111585000D01*
X127210000Y-97615000D02*
X130385000Y-97615000D01*
X116415000Y-100790000D02*
X116415000Y-97615000D01*
X130385000Y-111585000D02*
X127210000Y-111585000D01*
X119590000Y-111585000D02*
X116415000Y-111585000D01*
X130385000Y-97615000D02*
X130385000Y-100790000D01*
X119590000Y-97615000D02*
X116415000Y-97615000D01*
X116415000Y-108410000D02*
X116415000Y-111585000D01*
%TO.C,SW12*%
X111335000Y-108410000D02*
X111335000Y-111585000D01*
X108160000Y-97615000D02*
X111335000Y-97615000D01*
X97365000Y-100790000D02*
X97365000Y-97615000D01*
X111335000Y-111585000D02*
X108160000Y-111585000D01*
X100540000Y-111585000D02*
X97365000Y-111585000D01*
X111335000Y-97615000D02*
X111335000Y-100790000D01*
X100540000Y-97615000D02*
X97365000Y-97615000D01*
X97365000Y-108410000D02*
X97365000Y-111585000D01*
%TO.C,SW11*%
X92285000Y-108410000D02*
X92285000Y-111585000D01*
X89110000Y-97615000D02*
X92285000Y-97615000D01*
X78315000Y-100790000D02*
X78315000Y-97615000D01*
X92285000Y-111585000D02*
X89110000Y-111585000D01*
X81490000Y-111585000D02*
X78315000Y-111585000D01*
X92285000Y-97615000D02*
X92285000Y-100790000D01*
X81490000Y-97615000D02*
X78315000Y-97615000D01*
X78315000Y-108410000D02*
X78315000Y-111585000D01*
%TO.C,SW10*%
X168485000Y-89360000D02*
X168485000Y-92535000D01*
X165310000Y-78565000D02*
X168485000Y-78565000D01*
X154515000Y-81740000D02*
X154515000Y-78565000D01*
X168485000Y-92535000D02*
X165310000Y-92535000D01*
X157690000Y-92535000D02*
X154515000Y-92535000D01*
X168485000Y-78565000D02*
X168485000Y-81740000D01*
X157690000Y-78565000D02*
X154515000Y-78565000D01*
X154515000Y-89360000D02*
X154515000Y-92535000D01*
%TO.C,SW9*%
X149435000Y-89360000D02*
X149435000Y-92535000D01*
X146260000Y-78565000D02*
X149435000Y-78565000D01*
X135465000Y-81740000D02*
X135465000Y-78565000D01*
X149435000Y-92535000D02*
X146260000Y-92535000D01*
X138640000Y-92535000D02*
X135465000Y-92535000D01*
X149435000Y-78565000D02*
X149435000Y-81740000D01*
X138640000Y-78565000D02*
X135465000Y-78565000D01*
X135465000Y-89360000D02*
X135465000Y-92535000D01*
%TO.C,SW8*%
X130385000Y-89360000D02*
X130385000Y-92535000D01*
X127210000Y-78565000D02*
X130385000Y-78565000D01*
X116415000Y-81740000D02*
X116415000Y-78565000D01*
X130385000Y-92535000D02*
X127210000Y-92535000D01*
X119590000Y-92535000D02*
X116415000Y-92535000D01*
X130385000Y-78565000D02*
X130385000Y-81740000D01*
X119590000Y-78565000D02*
X116415000Y-78565000D01*
X116415000Y-89360000D02*
X116415000Y-92535000D01*
%TO.C,SW7*%
X111335000Y-89360000D02*
X111335000Y-92535000D01*
X108160000Y-78565000D02*
X111335000Y-78565000D01*
X97365000Y-81740000D02*
X97365000Y-78565000D01*
X111335000Y-92535000D02*
X108160000Y-92535000D01*
X100540000Y-92535000D02*
X97365000Y-92535000D01*
X111335000Y-78565000D02*
X111335000Y-81740000D01*
X100540000Y-78565000D02*
X97365000Y-78565000D01*
X97365000Y-89360000D02*
X97365000Y-92535000D01*
%TO.C,SW6*%
X92285000Y-89360000D02*
X92285000Y-92535000D01*
X89110000Y-78565000D02*
X92285000Y-78565000D01*
X78315000Y-81740000D02*
X78315000Y-78565000D01*
X92285000Y-92535000D02*
X89110000Y-92535000D01*
X81490000Y-92535000D02*
X78315000Y-92535000D01*
X92285000Y-78565000D02*
X92285000Y-81740000D01*
X81490000Y-78565000D02*
X78315000Y-78565000D01*
X78315000Y-89360000D02*
X78315000Y-92535000D01*
%TO.C,SW5*%
X168485000Y-70310000D02*
X168485000Y-73485000D01*
X165310000Y-59515000D02*
X168485000Y-59515000D01*
X154515000Y-62690000D02*
X154515000Y-59515000D01*
X168485000Y-73485000D02*
X165310000Y-73485000D01*
X157690000Y-73485000D02*
X154515000Y-73485000D01*
X168485000Y-59515000D02*
X168485000Y-62690000D01*
X157690000Y-59515000D02*
X154515000Y-59515000D01*
X154515000Y-70310000D02*
X154515000Y-73485000D01*
%TO.C,SW4*%
X149435000Y-70310000D02*
X149435000Y-73485000D01*
X146260000Y-59515000D02*
X149435000Y-59515000D01*
X135465000Y-62690000D02*
X135465000Y-59515000D01*
X149435000Y-73485000D02*
X146260000Y-73485000D01*
X138640000Y-73485000D02*
X135465000Y-73485000D01*
X149435000Y-59515000D02*
X149435000Y-62690000D01*
X138640000Y-59515000D02*
X135465000Y-59515000D01*
X135465000Y-70310000D02*
X135465000Y-73485000D01*
%TO.C,SW3*%
X130385000Y-70310000D02*
X130385000Y-73485000D01*
X127210000Y-59515000D02*
X130385000Y-59515000D01*
X116415000Y-62690000D02*
X116415000Y-59515000D01*
X130385000Y-73485000D02*
X127210000Y-73485000D01*
X119590000Y-73485000D02*
X116415000Y-73485000D01*
X130385000Y-59515000D02*
X130385000Y-62690000D01*
X119590000Y-59515000D02*
X116415000Y-59515000D01*
X116415000Y-70310000D02*
X116415000Y-73485000D01*
%TO.C,SW2*%
X111335000Y-70310000D02*
X111335000Y-73485000D01*
X108160000Y-59515000D02*
X111335000Y-59515000D01*
X97365000Y-62690000D02*
X97365000Y-59515000D01*
X111335000Y-73485000D02*
X108160000Y-73485000D01*
X100540000Y-73485000D02*
X97365000Y-73485000D01*
X111335000Y-59515000D02*
X111335000Y-62690000D01*
X100540000Y-59515000D02*
X97365000Y-59515000D01*
X97365000Y-70310000D02*
X97365000Y-73485000D01*
%TO.C,SW1*%
X92285000Y-70310000D02*
X92285000Y-73485000D01*
X89110000Y-59515000D02*
X92285000Y-59515000D01*
X78315000Y-62690000D02*
X78315000Y-59515000D01*
X92285000Y-73485000D02*
X89110000Y-73485000D01*
X81490000Y-73485000D02*
X78315000Y-73485000D01*
X92285000Y-59515000D02*
X92285000Y-62690000D01*
X81490000Y-59515000D02*
X78315000Y-59515000D01*
X78315000Y-70310000D02*
X78315000Y-73485000D01*
%TO.C,D23*%
X181670000Y-138040000D02*
X179430000Y-138040000D01*
X179430000Y-138040000D02*
X179430000Y-142280000D01*
X179430000Y-142280000D02*
X181670000Y-142280000D01*
X181670000Y-142280000D02*
X181670000Y-138040000D01*
X180550000Y-137390000D02*
X180550000Y-138040000D01*
X180550000Y-142930000D02*
X180550000Y-142280000D01*
X181670000Y-138760000D02*
X179430000Y-138760000D01*
X181670000Y-138880000D02*
X179430000Y-138880000D01*
X181670000Y-138640000D02*
X179430000Y-138640000D01*
%TO.C,D22*%
X162620000Y-138040000D02*
X160380000Y-138040000D01*
X160380000Y-138040000D02*
X160380000Y-142280000D01*
X160380000Y-142280000D02*
X162620000Y-142280000D01*
X162620000Y-142280000D02*
X162620000Y-138040000D01*
X161500000Y-137390000D02*
X161500000Y-138040000D01*
X161500000Y-142930000D02*
X161500000Y-142280000D01*
X162620000Y-138760000D02*
X160380000Y-138760000D01*
X162620000Y-138880000D02*
X160380000Y-138880000D01*
X162620000Y-138640000D02*
X160380000Y-138640000D01*
%TO.C,D21*%
X143570000Y-138040000D02*
X141330000Y-138040000D01*
X141330000Y-138040000D02*
X141330000Y-142280000D01*
X141330000Y-142280000D02*
X143570000Y-142280000D01*
X143570000Y-142280000D02*
X143570000Y-138040000D01*
X142450000Y-137390000D02*
X142450000Y-138040000D01*
X142450000Y-142930000D02*
X142450000Y-142280000D01*
X143570000Y-138760000D02*
X141330000Y-138760000D01*
X143570000Y-138880000D02*
X141330000Y-138880000D01*
X143570000Y-138640000D02*
X141330000Y-138640000D01*
%TO.C,D20*%
X172145000Y-123435000D02*
X169905000Y-123435000D01*
X169905000Y-123435000D02*
X169905000Y-127675000D01*
X169905000Y-127675000D02*
X172145000Y-127675000D01*
X172145000Y-127675000D02*
X172145000Y-123435000D01*
X171025000Y-122785000D02*
X171025000Y-123435000D01*
X171025000Y-128325000D02*
X171025000Y-127675000D01*
X172145000Y-124155000D02*
X169905000Y-124155000D01*
X172145000Y-124275000D02*
X169905000Y-124275000D01*
X172145000Y-124035000D02*
X169905000Y-124035000D01*
%TO.C,D19*%
X153095000Y-123435000D02*
X150855000Y-123435000D01*
X150855000Y-123435000D02*
X150855000Y-127675000D01*
X150855000Y-127675000D02*
X153095000Y-127675000D01*
X153095000Y-127675000D02*
X153095000Y-123435000D01*
X151975000Y-122785000D02*
X151975000Y-123435000D01*
X151975000Y-128325000D02*
X151975000Y-127675000D01*
X153095000Y-124155000D02*
X150855000Y-124155000D01*
X153095000Y-124275000D02*
X150855000Y-124275000D01*
X153095000Y-124035000D02*
X150855000Y-124035000D01*
%TO.C,D18*%
X134045000Y-123435000D02*
X131805000Y-123435000D01*
X131805000Y-123435000D02*
X131805000Y-127675000D01*
X131805000Y-127675000D02*
X134045000Y-127675000D01*
X134045000Y-127675000D02*
X134045000Y-123435000D01*
X132925000Y-122785000D02*
X132925000Y-123435000D01*
X132925000Y-128325000D02*
X132925000Y-127675000D01*
X134045000Y-124155000D02*
X131805000Y-124155000D01*
X134045000Y-124275000D02*
X131805000Y-124275000D01*
X134045000Y-124035000D02*
X131805000Y-124035000D01*
%TO.C,D17*%
X114995000Y-123435000D02*
X112755000Y-123435000D01*
X112755000Y-123435000D02*
X112755000Y-127675000D01*
X112755000Y-127675000D02*
X114995000Y-127675000D01*
X114995000Y-127675000D02*
X114995000Y-123435000D01*
X113875000Y-122785000D02*
X113875000Y-123435000D01*
X113875000Y-128325000D02*
X113875000Y-127675000D01*
X114995000Y-124155000D02*
X112755000Y-124155000D01*
X114995000Y-124275000D02*
X112755000Y-124275000D01*
X114995000Y-124035000D02*
X112755000Y-124035000D01*
%TO.C,D16*%
X95945000Y-123435000D02*
X93705000Y-123435000D01*
X93705000Y-123435000D02*
X93705000Y-127675000D01*
X93705000Y-127675000D02*
X95945000Y-127675000D01*
X95945000Y-127675000D02*
X95945000Y-123435000D01*
X94825000Y-122785000D02*
X94825000Y-123435000D01*
X94825000Y-128325000D02*
X94825000Y-127675000D01*
X95945000Y-124155000D02*
X93705000Y-124155000D01*
X95945000Y-124275000D02*
X93705000Y-124275000D01*
X95945000Y-124035000D02*
X93705000Y-124035000D01*
%TO.C,D14*%
X153095000Y-103115000D02*
X150855000Y-103115000D01*
X150855000Y-103115000D02*
X150855000Y-107355000D01*
X150855000Y-107355000D02*
X153095000Y-107355000D01*
X153095000Y-107355000D02*
X153095000Y-103115000D01*
X151975000Y-102465000D02*
X151975000Y-103115000D01*
X151975000Y-108005000D02*
X151975000Y-107355000D01*
X153095000Y-103835000D02*
X150855000Y-103835000D01*
X153095000Y-103955000D02*
X150855000Y-103955000D01*
X153095000Y-103715000D02*
X150855000Y-103715000D01*
%TO.C,D13*%
X134045000Y-104385000D02*
X131805000Y-104385000D01*
X131805000Y-104385000D02*
X131805000Y-108625000D01*
X131805000Y-108625000D02*
X134045000Y-108625000D01*
X134045000Y-108625000D02*
X134045000Y-104385000D01*
X132925000Y-103735000D02*
X132925000Y-104385000D01*
X132925000Y-109275000D02*
X132925000Y-108625000D01*
X134045000Y-105105000D02*
X131805000Y-105105000D01*
X134045000Y-105225000D02*
X131805000Y-105225000D01*
X134045000Y-104985000D02*
X131805000Y-104985000D01*
%TO.C,D12*%
X114995000Y-104385000D02*
X112755000Y-104385000D01*
X112755000Y-104385000D02*
X112755000Y-108625000D01*
X112755000Y-108625000D02*
X114995000Y-108625000D01*
X114995000Y-108625000D02*
X114995000Y-104385000D01*
X113875000Y-103735000D02*
X113875000Y-104385000D01*
X113875000Y-109275000D02*
X113875000Y-108625000D01*
X114995000Y-105105000D02*
X112755000Y-105105000D01*
X114995000Y-105225000D02*
X112755000Y-105225000D01*
X114995000Y-104985000D02*
X112755000Y-104985000D01*
%TO.C,D11*%
X95945000Y-103115000D02*
X93705000Y-103115000D01*
X93705000Y-103115000D02*
X93705000Y-107355000D01*
X93705000Y-107355000D02*
X95945000Y-107355000D01*
X95945000Y-107355000D02*
X95945000Y-103115000D01*
X94825000Y-102465000D02*
X94825000Y-103115000D01*
X94825000Y-108005000D02*
X94825000Y-107355000D01*
X95945000Y-103835000D02*
X93705000Y-103835000D01*
X95945000Y-103955000D02*
X93705000Y-103955000D01*
X95945000Y-103715000D02*
X93705000Y-103715000D01*
%TO.C,D10*%
X172145000Y-85335000D02*
X169905000Y-85335000D01*
X169905000Y-85335000D02*
X169905000Y-89575000D01*
X169905000Y-89575000D02*
X172145000Y-89575000D01*
X172145000Y-89575000D02*
X172145000Y-85335000D01*
X171025000Y-84685000D02*
X171025000Y-85335000D01*
X171025000Y-90225000D02*
X171025000Y-89575000D01*
X172145000Y-86055000D02*
X169905000Y-86055000D01*
X172145000Y-86175000D02*
X169905000Y-86175000D01*
X172145000Y-85935000D02*
X169905000Y-85935000D01*
%TO.C,D9*%
X153095000Y-85335000D02*
X150855000Y-85335000D01*
X150855000Y-85335000D02*
X150855000Y-89575000D01*
X150855000Y-89575000D02*
X153095000Y-89575000D01*
X153095000Y-89575000D02*
X153095000Y-85335000D01*
X151975000Y-84685000D02*
X151975000Y-85335000D01*
X151975000Y-90225000D02*
X151975000Y-89575000D01*
X153095000Y-86055000D02*
X150855000Y-86055000D01*
X153095000Y-86175000D02*
X150855000Y-86175000D01*
X153095000Y-85935000D02*
X150855000Y-85935000D01*
%TO.C,D8*%
X134045000Y-85335000D02*
X131805000Y-85335000D01*
X131805000Y-85335000D02*
X131805000Y-89575000D01*
X131805000Y-89575000D02*
X134045000Y-89575000D01*
X134045000Y-89575000D02*
X134045000Y-85335000D01*
X132925000Y-84685000D02*
X132925000Y-85335000D01*
X132925000Y-90225000D02*
X132925000Y-89575000D01*
X134045000Y-86055000D02*
X131805000Y-86055000D01*
X134045000Y-86175000D02*
X131805000Y-86175000D01*
X134045000Y-85935000D02*
X131805000Y-85935000D01*
%TO.C,D7*%
X114995000Y-85335000D02*
X112755000Y-85335000D01*
X112755000Y-85335000D02*
X112755000Y-89575000D01*
X112755000Y-89575000D02*
X114995000Y-89575000D01*
X114995000Y-89575000D02*
X114995000Y-85335000D01*
X113875000Y-84685000D02*
X113875000Y-85335000D01*
X113875000Y-90225000D02*
X113875000Y-89575000D01*
X114995000Y-86055000D02*
X112755000Y-86055000D01*
X114995000Y-86175000D02*
X112755000Y-86175000D01*
X114995000Y-85935000D02*
X112755000Y-85935000D01*
%TO.C,D6*%
X95945000Y-85335000D02*
X93705000Y-85335000D01*
X93705000Y-85335000D02*
X93705000Y-89575000D01*
X93705000Y-89575000D02*
X95945000Y-89575000D01*
X95945000Y-89575000D02*
X95945000Y-85335000D01*
X94825000Y-84685000D02*
X94825000Y-85335000D01*
X94825000Y-90225000D02*
X94825000Y-89575000D01*
X95945000Y-86055000D02*
X93705000Y-86055000D01*
X95945000Y-86175000D02*
X93705000Y-86175000D01*
X95945000Y-85935000D02*
X93705000Y-85935000D01*
%TO.C,D5*%
X172145000Y-66285000D02*
X169905000Y-66285000D01*
X169905000Y-66285000D02*
X169905000Y-70525000D01*
X169905000Y-70525000D02*
X172145000Y-70525000D01*
X172145000Y-70525000D02*
X172145000Y-66285000D01*
X171025000Y-65635000D02*
X171025000Y-66285000D01*
X171025000Y-71175000D02*
X171025000Y-70525000D01*
X172145000Y-67005000D02*
X169905000Y-67005000D01*
X172145000Y-67125000D02*
X169905000Y-67125000D01*
X172145000Y-66885000D02*
X169905000Y-66885000D01*
%TO.C,D4*%
X153095000Y-65015000D02*
X150855000Y-65015000D01*
X150855000Y-65015000D02*
X150855000Y-69255000D01*
X150855000Y-69255000D02*
X153095000Y-69255000D01*
X153095000Y-69255000D02*
X153095000Y-65015000D01*
X151975000Y-64365000D02*
X151975000Y-65015000D01*
X151975000Y-69905000D02*
X151975000Y-69255000D01*
X153095000Y-65735000D02*
X150855000Y-65735000D01*
X153095000Y-65855000D02*
X150855000Y-65855000D01*
X153095000Y-65615000D02*
X150855000Y-65615000D01*
%TO.C,D3*%
X134045000Y-66285000D02*
X131805000Y-66285000D01*
X131805000Y-66285000D02*
X131805000Y-70525000D01*
X131805000Y-70525000D02*
X134045000Y-70525000D01*
X134045000Y-70525000D02*
X134045000Y-66285000D01*
X132925000Y-65635000D02*
X132925000Y-66285000D01*
X132925000Y-71175000D02*
X132925000Y-70525000D01*
X134045000Y-67005000D02*
X131805000Y-67005000D01*
X134045000Y-67125000D02*
X131805000Y-67125000D01*
X134045000Y-66885000D02*
X131805000Y-66885000D01*
%TO.C,D2*%
X114995000Y-66285000D02*
X112755000Y-66285000D01*
X112755000Y-66285000D02*
X112755000Y-70525000D01*
X112755000Y-70525000D02*
X114995000Y-70525000D01*
X114995000Y-70525000D02*
X114995000Y-66285000D01*
X113875000Y-65635000D02*
X113875000Y-66285000D01*
X113875000Y-71175000D02*
X113875000Y-70525000D01*
X114995000Y-67005000D02*
X112755000Y-67005000D01*
X114995000Y-67125000D02*
X112755000Y-67125000D01*
X114995000Y-66885000D02*
X112755000Y-66885000D01*
%TO.C,D1*%
X95945000Y-65015000D02*
X93705000Y-65015000D01*
X93705000Y-65015000D02*
X93705000Y-69255000D01*
X93705000Y-69255000D02*
X95945000Y-69255000D01*
X95945000Y-69255000D02*
X95945000Y-65015000D01*
X94825000Y-64365000D02*
X94825000Y-65015000D01*
X94825000Y-69905000D02*
X94825000Y-69255000D01*
X95945000Y-65735000D02*
X93705000Y-65735000D01*
X95945000Y-65855000D02*
X93705000Y-65855000D01*
X95945000Y-65615000D02*
X93705000Y-65615000D01*
%TO.C,U1*%
X183455000Y-131330000D02*
X185105000Y-131330000D01*
X185105000Y-131330000D02*
X185105000Y-95650000D01*
X185105000Y-95650000D02*
X179805000Y-95650000D01*
X179805000Y-95650000D02*
X179805000Y-131330000D01*
X179805000Y-131330000D02*
X181455000Y-131330000D01*
X187595000Y-131390000D02*
X187595000Y-95590000D01*
X187595000Y-95590000D02*
X177315000Y-95590000D01*
X177315000Y-95590000D02*
X177315000Y-131390000D01*
X177315000Y-131390000D02*
X187595000Y-131390000D01*
X181455000Y-131330000D02*
G75*
G02*
X183455000Y-131330000I1000000J0D01*
G01*
%TO.C,F1*%
X176105000Y-71310000D02*
X176105000Y-68110000D01*
X183706000Y-71310000D02*
X183706000Y-68110000D01*
X176666000Y-68110000D02*
X176105000Y-68110000D01*
X183706000Y-68110000D02*
X178043000Y-68110000D01*
X181766000Y-71310000D02*
X176105000Y-71310000D01*
X183706000Y-71310000D02*
X183144000Y-71310000D01*
%TO.C,Y1*%
X188185000Y-110240000D02*
X188185000Y-103840000D01*
X193235000Y-110240000D02*
X193235000Y-103840000D01*
X193235000Y-103840000D02*
G75*
G03*
X188185000Y-103840000I-2525000J0D01*
G01*
X193235000Y-110240000D02*
G75*
G02*
X188185000Y-110240000I-2525000J0D01*
G01*
%TO.C,D25*%
X177225000Y-75810000D02*
X174985000Y-75810000D01*
X174985000Y-75810000D02*
X174985000Y-80050000D01*
X174985000Y-80050000D02*
X177225000Y-80050000D01*
X177225000Y-80050000D02*
X177225000Y-75810000D01*
X176105000Y-75160000D02*
X176105000Y-75810000D01*
X176105000Y-80700000D02*
X176105000Y-80050000D01*
X177225000Y-76530000D02*
X174985000Y-76530000D01*
X177225000Y-76650000D02*
X174985000Y-76650000D01*
X177225000Y-76410000D02*
X174985000Y-76410000D01*
%TO.C,D24*%
X181035000Y-75810000D02*
X178795000Y-75810000D01*
X178795000Y-75810000D02*
X178795000Y-80050000D01*
X178795000Y-80050000D02*
X181035000Y-80050000D01*
X181035000Y-80050000D02*
X181035000Y-75810000D01*
X179915000Y-75160000D02*
X179915000Y-75810000D01*
X179915000Y-80700000D02*
X179915000Y-80050000D01*
X181035000Y-76530000D02*
X178795000Y-76530000D01*
X181035000Y-76650000D02*
X178795000Y-76650000D01*
X181035000Y-76410000D02*
X178795000Y-76410000D01*
%TO.C,C5*%
X176984500Y-109910000D02*
X176984500Y-114450000D01*
X174844500Y-109910000D02*
X174844500Y-114450000D01*
X176984500Y-109910000D02*
X176969500Y-109910000D01*
X174859500Y-109910000D02*
X174844500Y-109910000D01*
X176984500Y-114450000D02*
X176969500Y-114450000D01*
X174859500Y-114450000D02*
X174844500Y-114450000D01*
%TO.C,C4*%
X190129000Y-114990000D02*
X190129000Y-119530000D01*
X187989000Y-114990000D02*
X187989000Y-119530000D01*
X190129000Y-114990000D02*
X190114000Y-114990000D01*
X188004000Y-114990000D02*
X187989000Y-114990000D01*
X190129000Y-119530000D02*
X190114000Y-119530000D01*
X188004000Y-119530000D02*
X187989000Y-119530000D01*
%TO.C,C3*%
X190810000Y-69675000D02*
G75*
G03*
X190810000Y-69675000I-2120000J0D01*
G01*
X188690000Y-70515000D02*
X188690000Y-71755000D01*
X188690000Y-67595000D02*
X188690000Y-68835000D01*
X188730000Y-70515000D02*
X188730000Y-71755000D01*
X188730000Y-67595000D02*
X188730000Y-68835000D01*
X188770000Y-70515000D02*
X188770000Y-71754000D01*
X188770000Y-67596000D02*
X188770000Y-68835000D01*
X188810000Y-67598000D02*
X188810000Y-68835000D01*
X188810000Y-70515000D02*
X188810000Y-71752000D01*
X188850000Y-67601000D02*
X188850000Y-68835000D01*
X188850000Y-70515000D02*
X188850000Y-71749000D01*
X188890000Y-67604000D02*
X188890000Y-68835000D01*
X188890000Y-70515000D02*
X188890000Y-71746000D01*
X188930000Y-67608000D02*
X188930000Y-68835000D01*
X188930000Y-70515000D02*
X188930000Y-71742000D01*
X188970000Y-67613000D02*
X188970000Y-68835000D01*
X188970000Y-70515000D02*
X188970000Y-71737000D01*
X189010000Y-67619000D02*
X189010000Y-68835000D01*
X189010000Y-70515000D02*
X189010000Y-71731000D01*
X189050000Y-67625000D02*
X189050000Y-68835000D01*
X189050000Y-70515000D02*
X189050000Y-71725000D01*
X189090000Y-67633000D02*
X189090000Y-68835000D01*
X189090000Y-70515000D02*
X189090000Y-71717000D01*
X189130000Y-67641000D02*
X189130000Y-68835000D01*
X189130000Y-70515000D02*
X189130000Y-71709000D01*
X189170000Y-67650000D02*
X189170000Y-68835000D01*
X189170000Y-70515000D02*
X189170000Y-71700000D01*
X189210000Y-67659000D02*
X189210000Y-68835000D01*
X189210000Y-70515000D02*
X189210000Y-71691000D01*
X189250000Y-67670000D02*
X189250000Y-68835000D01*
X189250000Y-70515000D02*
X189250000Y-71680000D01*
X189290000Y-67681000D02*
X189290000Y-68835000D01*
X189290000Y-70515000D02*
X189290000Y-71669000D01*
X189330000Y-67693000D02*
X189330000Y-68835000D01*
X189330000Y-70515000D02*
X189330000Y-71657000D01*
X189370000Y-67707000D02*
X189370000Y-68835000D01*
X189370000Y-70515000D02*
X189370000Y-71643000D01*
X189411000Y-67721000D02*
X189411000Y-68835000D01*
X189411000Y-70515000D02*
X189411000Y-71629000D01*
X189451000Y-67735000D02*
X189451000Y-68835000D01*
X189451000Y-70515000D02*
X189451000Y-71615000D01*
X189491000Y-67751000D02*
X189491000Y-68835000D01*
X189491000Y-70515000D02*
X189491000Y-71599000D01*
X189531000Y-67768000D02*
X189531000Y-68835000D01*
X189531000Y-70515000D02*
X189531000Y-71582000D01*
X189571000Y-67786000D02*
X189571000Y-68835000D01*
X189571000Y-70515000D02*
X189571000Y-71564000D01*
X189611000Y-67805000D02*
X189611000Y-68835000D01*
X189611000Y-70515000D02*
X189611000Y-71545000D01*
X189651000Y-67824000D02*
X189651000Y-68835000D01*
X189651000Y-70515000D02*
X189651000Y-71526000D01*
X189691000Y-67845000D02*
X189691000Y-68835000D01*
X189691000Y-70515000D02*
X189691000Y-71505000D01*
X189731000Y-67867000D02*
X189731000Y-68835000D01*
X189731000Y-70515000D02*
X189731000Y-71483000D01*
X189771000Y-67890000D02*
X189771000Y-68835000D01*
X189771000Y-70515000D02*
X189771000Y-71460000D01*
X189811000Y-67915000D02*
X189811000Y-68835000D01*
X189811000Y-70515000D02*
X189811000Y-71435000D01*
X189851000Y-67940000D02*
X189851000Y-68835000D01*
X189851000Y-70515000D02*
X189851000Y-71410000D01*
X189891000Y-67967000D02*
X189891000Y-68835000D01*
X189891000Y-70515000D02*
X189891000Y-71383000D01*
X189931000Y-67995000D02*
X189931000Y-68835000D01*
X189931000Y-70515000D02*
X189931000Y-71355000D01*
X189971000Y-68025000D02*
X189971000Y-68835000D01*
X189971000Y-70515000D02*
X189971000Y-71325000D01*
X190011000Y-68056000D02*
X190011000Y-68835000D01*
X190011000Y-70515000D02*
X190011000Y-71294000D01*
X190051000Y-68088000D02*
X190051000Y-68835000D01*
X190051000Y-70515000D02*
X190051000Y-71262000D01*
X190091000Y-68123000D02*
X190091000Y-68835000D01*
X190091000Y-70515000D02*
X190091000Y-71227000D01*
X190131000Y-68159000D02*
X190131000Y-68835000D01*
X190131000Y-70515000D02*
X190131000Y-71191000D01*
X190171000Y-68197000D02*
X190171000Y-68835000D01*
X190171000Y-70515000D02*
X190171000Y-71153000D01*
X190211000Y-68237000D02*
X190211000Y-68835000D01*
X190211000Y-70515000D02*
X190211000Y-71113000D01*
X190251000Y-68279000D02*
X190251000Y-68835000D01*
X190251000Y-70515000D02*
X190251000Y-71071000D01*
X190291000Y-68324000D02*
X190291000Y-71026000D01*
X190331000Y-68371000D02*
X190331000Y-70979000D01*
X190371000Y-68421000D02*
X190371000Y-70929000D01*
X190411000Y-68475000D02*
X190411000Y-70875000D01*
X190451000Y-68533000D02*
X190451000Y-70817000D01*
X190491000Y-68595000D02*
X190491000Y-70755000D01*
X190531000Y-68662000D02*
X190531000Y-70688000D01*
X190571000Y-68735000D02*
X190571000Y-70615000D01*
X190611000Y-68816000D02*
X190611000Y-70534000D01*
X190651000Y-68907000D02*
X190651000Y-70443000D01*
X190691000Y-69011000D02*
X190691000Y-70339000D01*
X190731000Y-69138000D02*
X190731000Y-70212000D01*
X190771000Y-69305000D02*
X190771000Y-70045000D01*
X186420199Y-68480000D02*
X186820199Y-68480000D01*
X186620199Y-68280000D02*
X186620199Y-68680000D01*
%TO.C,C2*%
X190425000Y-116639000D02*
X190425000Y-115381000D01*
X192265000Y-116639000D02*
X192265000Y-115381000D01*
%TO.C,C1*%
X191630000Y-97601000D02*
X191630000Y-98859000D01*
X189790000Y-97601000D02*
X189790000Y-98859000D01*
%TO.C,D26*%
D10*
X164873380Y-62062857D02*
X164873380Y-62539047D01*
X163873380Y-62539047D01*
X164349571Y-61729523D02*
X164349571Y-61396190D01*
X164873380Y-61253333D02*
X164873380Y-61729523D01*
X163873380Y-61729523D01*
X163873380Y-61253333D01*
X164873380Y-60824761D02*
X163873380Y-60824761D01*
X163873380Y-60586666D01*
X163921000Y-60443809D01*
X164016238Y-60348571D01*
X164111476Y-60300952D01*
X164301952Y-60253333D01*
X164444809Y-60253333D01*
X164635285Y-60300952D01*
X164730523Y-60348571D01*
X164825761Y-60443809D01*
X164873380Y-60586666D01*
X164873380Y-60824761D01*
%TO.C,R1*%
X183177380Y-90740952D02*
X183177380Y-90074285D01*
X184177380Y-90502857D01*
X183177380Y-89217142D02*
X183177380Y-89693333D01*
X183653571Y-89740952D01*
X183605952Y-89693333D01*
X183558333Y-89598095D01*
X183558333Y-89360000D01*
X183605952Y-89264761D01*
X183653571Y-89217142D01*
X183748809Y-89169523D01*
X183986904Y-89169523D01*
X184082142Y-89217142D01*
X184129761Y-89264761D01*
X184177380Y-89360000D01*
X184177380Y-89598095D01*
X184129761Y-89693333D01*
X184082142Y-89740952D01*
X184177380Y-88788571D02*
X184177380Y-88550476D01*
X183986904Y-88550476D01*
X183939285Y-88645714D01*
X183844047Y-88740952D01*
X183701190Y-88788571D01*
X183463095Y-88788571D01*
X183320238Y-88740952D01*
X183225000Y-88645714D01*
X183177380Y-88502857D01*
X183177380Y-88312380D01*
X183225000Y-88169523D01*
X183320238Y-88074285D01*
X183463095Y-88026666D01*
X183701190Y-88026666D01*
X183844047Y-88074285D01*
X183939285Y-88169523D01*
X183986904Y-88264761D01*
X184177380Y-88264761D01*
X184177380Y-88026666D01*
%TO.C,R2*%
X179367380Y-90740952D02*
X179367380Y-90074285D01*
X180367380Y-90502857D01*
X179367380Y-89217142D02*
X179367380Y-89693333D01*
X179843571Y-89740952D01*
X179795952Y-89693333D01*
X179748333Y-89598095D01*
X179748333Y-89360000D01*
X179795952Y-89264761D01*
X179843571Y-89217142D01*
X179938809Y-89169523D01*
X180176904Y-89169523D01*
X180272142Y-89217142D01*
X180319761Y-89264761D01*
X180367380Y-89360000D01*
X180367380Y-89598095D01*
X180319761Y-89693333D01*
X180272142Y-89740952D01*
X180367380Y-88788571D02*
X180367380Y-88550476D01*
X180176904Y-88550476D01*
X180129285Y-88645714D01*
X180034047Y-88740952D01*
X179891190Y-88788571D01*
X179653095Y-88788571D01*
X179510238Y-88740952D01*
X179415000Y-88645714D01*
X179367380Y-88502857D01*
X179367380Y-88312380D01*
X179415000Y-88169523D01*
X179510238Y-88074285D01*
X179653095Y-88026666D01*
X179891190Y-88026666D01*
X180034047Y-88074285D01*
X180129285Y-88169523D01*
X180176904Y-88264761D01*
X180367380Y-88264761D01*
X180367380Y-88026666D01*
%TO.C,R3*%
X176557380Y-90764761D02*
X176557380Y-91336190D01*
X176557380Y-91050476D02*
X175557380Y-91050476D01*
X175700238Y-91145714D01*
X175795476Y-91240952D01*
X175843095Y-91336190D01*
X176462142Y-90336190D02*
X176509761Y-90288571D01*
X176557380Y-90336190D01*
X176509761Y-90383809D01*
X176462142Y-90336190D01*
X176557380Y-90336190D01*
X175557380Y-89383809D02*
X175557380Y-89860000D01*
X176033571Y-89907619D01*
X175985952Y-89860000D01*
X175938333Y-89764761D01*
X175938333Y-89526666D01*
X175985952Y-89431428D01*
X176033571Y-89383809D01*
X176128809Y-89336190D01*
X176366904Y-89336190D01*
X176462142Y-89383809D01*
X176509761Y-89431428D01*
X176557380Y-89526666D01*
X176557380Y-89764761D01*
X176509761Y-89860000D01*
X176462142Y-89907619D01*
X176557380Y-88907619D02*
X175557380Y-88907619D01*
X176176428Y-88812380D02*
X176557380Y-88526666D01*
X175890714Y-88526666D02*
X176271666Y-88907619D01*
X176557380Y-88145714D02*
X176557380Y-87907619D01*
X176366904Y-87907619D01*
X176319285Y-88002857D01*
X176224047Y-88098095D01*
X176081190Y-88145714D01*
X175843095Y-88145714D01*
X175700238Y-88098095D01*
X175605000Y-88002857D01*
X175557380Y-87860000D01*
X175557380Y-87669523D01*
X175605000Y-87526666D01*
X175700238Y-87431428D01*
X175843095Y-87383809D01*
X176081190Y-87383809D01*
X176224047Y-87431428D01*
X176319285Y-87526666D01*
X176366904Y-87621904D01*
X176557380Y-87621904D01*
X176557380Y-87383809D01*
%TO.C,R5*%
X187987380Y-90399666D02*
X187987380Y-90971095D01*
X187987380Y-90685380D02*
X186987380Y-90685380D01*
X187130238Y-90780619D01*
X187225476Y-90875857D01*
X187273095Y-90971095D01*
X186987380Y-89780619D02*
X186987380Y-89685380D01*
X187035000Y-89590142D01*
X187082619Y-89542523D01*
X187177857Y-89494904D01*
X187368333Y-89447285D01*
X187606428Y-89447285D01*
X187796904Y-89494904D01*
X187892142Y-89542523D01*
X187939761Y-89590142D01*
X187987380Y-89685380D01*
X187987380Y-89780619D01*
X187939761Y-89875857D01*
X187892142Y-89923476D01*
X187796904Y-89971095D01*
X187606428Y-90018714D01*
X187368333Y-90018714D01*
X187177857Y-89971095D01*
X187082619Y-89923476D01*
X187035000Y-89875857D01*
X186987380Y-89780619D01*
X187987380Y-89018714D02*
X186987380Y-89018714D01*
X187606428Y-88923476D02*
X187987380Y-88637761D01*
X187320714Y-88637761D02*
X187701666Y-89018714D01*
X187987380Y-88256809D02*
X187987380Y-88018714D01*
X187796904Y-88018714D01*
X187749285Y-88113952D01*
X187654047Y-88209190D01*
X187511190Y-88256809D01*
X187273095Y-88256809D01*
X187130238Y-88209190D01*
X187035000Y-88113952D01*
X186987380Y-87971095D01*
X186987380Y-87780619D01*
X187035000Y-87637761D01*
X187130238Y-87542523D01*
X187273095Y-87494904D01*
X187511190Y-87494904D01*
X187654047Y-87542523D01*
X187749285Y-87637761D01*
X187796904Y-87733000D01*
X187987380Y-87733000D01*
X187987380Y-87494904D01*
%TO.C,R6*%
X190892619Y-91169523D02*
X190845000Y-91121904D01*
X190797380Y-91026666D01*
X190797380Y-90788571D01*
X190845000Y-90693333D01*
X190892619Y-90645714D01*
X190987857Y-90598095D01*
X191083095Y-90598095D01*
X191225952Y-90645714D01*
X191797380Y-91217142D01*
X191797380Y-90598095D01*
X190892619Y-90217142D02*
X190845000Y-90169523D01*
X190797380Y-90074285D01*
X190797380Y-89836190D01*
X190845000Y-89740952D01*
X190892619Y-89693333D01*
X190987857Y-89645714D01*
X191083095Y-89645714D01*
X191225952Y-89693333D01*
X191797380Y-90264761D01*
X191797380Y-89645714D01*
X190797380Y-89026666D02*
X190797380Y-88931428D01*
X190845000Y-88836190D01*
X190892619Y-88788571D01*
X190987857Y-88740952D01*
X191178333Y-88693333D01*
X191416428Y-88693333D01*
X191606904Y-88740952D01*
X191702142Y-88788571D01*
X191749761Y-88836190D01*
X191797380Y-88931428D01*
X191797380Y-89026666D01*
X191749761Y-89121904D01*
X191702142Y-89169523D01*
X191606904Y-89217142D01*
X191416428Y-89264761D01*
X191178333Y-89264761D01*
X190987857Y-89217142D01*
X190892619Y-89169523D01*
X190845000Y-89121904D01*
X190797380Y-89026666D01*
X191797380Y-88312380D02*
X191797380Y-88074285D01*
X191606904Y-88074285D01*
X191559285Y-88169523D01*
X191464047Y-88264761D01*
X191321190Y-88312380D01*
X191083095Y-88312380D01*
X190940238Y-88264761D01*
X190845000Y-88169523D01*
X190797380Y-88026666D01*
X190797380Y-87836190D01*
X190845000Y-87693333D01*
X190940238Y-87598095D01*
X191083095Y-87550476D01*
X191321190Y-87550476D01*
X191464047Y-87598095D01*
X191559285Y-87693333D01*
X191606904Y-87788571D01*
X191797380Y-87788571D01*
X191797380Y-87550476D01*
%TO.C,Reset1*%
X192777380Y-79168095D02*
X192301190Y-79501428D01*
X192777380Y-79739523D02*
X191777380Y-79739523D01*
X191777380Y-79358571D01*
X191825000Y-79263333D01*
X191872619Y-79215714D01*
X191967857Y-79168095D01*
X192110714Y-79168095D01*
X192205952Y-79215714D01*
X192253571Y-79263333D01*
X192301190Y-79358571D01*
X192301190Y-79739523D01*
X192729761Y-78358571D02*
X192777380Y-78453809D01*
X192777380Y-78644285D01*
X192729761Y-78739523D01*
X192634523Y-78787142D01*
X192253571Y-78787142D01*
X192158333Y-78739523D01*
X192110714Y-78644285D01*
X192110714Y-78453809D01*
X192158333Y-78358571D01*
X192253571Y-78310952D01*
X192348809Y-78310952D01*
X192444047Y-78787142D01*
X192729761Y-77930000D02*
X192777380Y-77834761D01*
X192777380Y-77644285D01*
X192729761Y-77549047D01*
X192634523Y-77501428D01*
X192586904Y-77501428D01*
X192491666Y-77549047D01*
X192444047Y-77644285D01*
X192444047Y-77787142D01*
X192396428Y-77882380D01*
X192301190Y-77930000D01*
X192253571Y-77930000D01*
X192158333Y-77882380D01*
X192110714Y-77787142D01*
X192110714Y-77644285D01*
X192158333Y-77549047D01*
X192729761Y-76691904D02*
X192777380Y-76787142D01*
X192777380Y-76977619D01*
X192729761Y-77072857D01*
X192634523Y-77120476D01*
X192253571Y-77120476D01*
X192158333Y-77072857D01*
X192110714Y-76977619D01*
X192110714Y-76787142D01*
X192158333Y-76691904D01*
X192253571Y-76644285D01*
X192348809Y-76644285D01*
X192444047Y-77120476D01*
X192110714Y-76358571D02*
X192110714Y-75977619D01*
X191777380Y-76215714D02*
X192634523Y-76215714D01*
X192729761Y-76168095D01*
X192777380Y-76072857D01*
X192777380Y-75977619D01*
%TO.C,J2*%
X188622380Y-147486190D02*
X187622380Y-147486190D01*
X188574761Y-147057619D02*
X188622380Y-146914761D01*
X188622380Y-146676666D01*
X188574761Y-146581428D01*
X188527142Y-146533809D01*
X188431904Y-146486190D01*
X188336666Y-146486190D01*
X188241428Y-146533809D01*
X188193809Y-146581428D01*
X188146190Y-146676666D01*
X188098571Y-146867142D01*
X188050952Y-146962380D01*
X188003333Y-147010000D01*
X187908095Y-147057619D01*
X187812857Y-147057619D01*
X187717619Y-147010000D01*
X187670000Y-146962380D01*
X187622380Y-146867142D01*
X187622380Y-146629047D01*
X187670000Y-146486190D01*
X188622380Y-146057619D02*
X187622380Y-146057619D01*
X187622380Y-145676666D01*
X187670000Y-145581428D01*
X187717619Y-145533809D01*
X187812857Y-145486190D01*
X187955714Y-145486190D01*
X188050952Y-145533809D01*
X188098571Y-145581428D01*
X188146190Y-145676666D01*
X188146190Y-146057619D01*
X184764761Y-138294523D02*
X184812380Y-138151666D01*
X184812380Y-137913571D01*
X184764761Y-137818333D01*
X184717142Y-137770714D01*
X184621904Y-137723095D01*
X184526666Y-137723095D01*
X184431428Y-137770714D01*
X184383809Y-137818333D01*
X184336190Y-137913571D01*
X184288571Y-138104047D01*
X184240952Y-138199285D01*
X184193333Y-138246904D01*
X184098095Y-138294523D01*
X184002857Y-138294523D01*
X183907619Y-138246904D01*
X183860000Y-138199285D01*
X183812380Y-138104047D01*
X183812380Y-137865952D01*
X183860000Y-137723095D01*
X184812380Y-137294523D02*
X183812380Y-137294523D01*
X183812380Y-137056428D01*
X183860000Y-136913571D01*
X183955238Y-136818333D01*
X184050476Y-136770714D01*
X184240952Y-136723095D01*
X184383809Y-136723095D01*
X184574285Y-136770714D01*
X184669523Y-136818333D01*
X184764761Y-136913571D01*
X184812380Y-137056428D01*
X184812380Y-137294523D01*
X183812380Y-136104047D02*
X183812380Y-135913571D01*
X183860000Y-135818333D01*
X183955238Y-135723095D01*
X184145714Y-135675476D01*
X184479047Y-135675476D01*
X184669523Y-135723095D01*
X184764761Y-135818333D01*
X184812380Y-135913571D01*
X184812380Y-136104047D01*
X184764761Y-136199285D01*
X184669523Y-136294523D01*
X184479047Y-136342142D01*
X184145714Y-136342142D01*
X183955238Y-136294523D01*
X183860000Y-136199285D01*
X183812380Y-136104047D01*
X184764761Y-141445714D02*
X184812380Y-141302857D01*
X184812380Y-141064761D01*
X184764761Y-140969523D01*
X184717142Y-140921904D01*
X184621904Y-140874285D01*
X184526666Y-140874285D01*
X184431428Y-140921904D01*
X184383809Y-140969523D01*
X184336190Y-141064761D01*
X184288571Y-141255238D01*
X184240952Y-141350476D01*
X184193333Y-141398095D01*
X184098095Y-141445714D01*
X184002857Y-141445714D01*
X183907619Y-141398095D01*
X183860000Y-141350476D01*
X183812380Y-141255238D01*
X183812380Y-141017142D01*
X183860000Y-140874285D01*
X184717142Y-139874285D02*
X184764761Y-139921904D01*
X184812380Y-140064761D01*
X184812380Y-140160000D01*
X184764761Y-140302857D01*
X184669523Y-140398095D01*
X184574285Y-140445714D01*
X184383809Y-140493333D01*
X184240952Y-140493333D01*
X184050476Y-140445714D01*
X183955238Y-140398095D01*
X183860000Y-140302857D01*
X183812380Y-140160000D01*
X183812380Y-140064761D01*
X183860000Y-139921904D01*
X183907619Y-139874285D01*
X184812380Y-139445714D02*
X183812380Y-139445714D01*
X184812380Y-138874285D02*
X184240952Y-139302857D01*
X183812380Y-138874285D02*
X184383809Y-139445714D01*
X184812380Y-143882619D02*
X184336190Y-144215952D01*
X184812380Y-144454047D02*
X183812380Y-144454047D01*
X183812380Y-144073095D01*
X183860000Y-143977857D01*
X183907619Y-143930238D01*
X184002857Y-143882619D01*
X184145714Y-143882619D01*
X184240952Y-143930238D01*
X184288571Y-143977857D01*
X184336190Y-144073095D01*
X184336190Y-144454047D01*
X184764761Y-143501666D02*
X184812380Y-143358809D01*
X184812380Y-143120714D01*
X184764761Y-143025476D01*
X184717142Y-142977857D01*
X184621904Y-142930238D01*
X184526666Y-142930238D01*
X184431428Y-142977857D01*
X184383809Y-143025476D01*
X184336190Y-143120714D01*
X184288571Y-143311190D01*
X184240952Y-143406428D01*
X184193333Y-143454047D01*
X184098095Y-143501666D01*
X184002857Y-143501666D01*
X183907619Y-143454047D01*
X183860000Y-143406428D01*
X183812380Y-143311190D01*
X183812380Y-143073095D01*
X183860000Y-142930238D01*
X183812380Y-142644523D02*
X183812380Y-142073095D01*
X184812380Y-142358809D02*
X183812380Y-142358809D01*
X191432380Y-138318333D02*
X192432380Y-137985000D01*
X191432380Y-137651666D01*
X192337142Y-136746904D02*
X192384761Y-136794523D01*
X192432380Y-136937380D01*
X192432380Y-137032619D01*
X192384761Y-137175476D01*
X192289523Y-137270714D01*
X192194285Y-137318333D01*
X192003809Y-137365952D01*
X191860952Y-137365952D01*
X191670476Y-137318333D01*
X191575238Y-137270714D01*
X191480000Y-137175476D01*
X191432380Y-137032619D01*
X191432380Y-136937380D01*
X191480000Y-136794523D01*
X191527619Y-136746904D01*
X192337142Y-135746904D02*
X192384761Y-135794523D01*
X192432380Y-135937380D01*
X192432380Y-136032619D01*
X192384761Y-136175476D01*
X192289523Y-136270714D01*
X192194285Y-136318333D01*
X192003809Y-136365952D01*
X191860952Y-136365952D01*
X191670476Y-136318333D01*
X191575238Y-136270714D01*
X191480000Y-136175476D01*
X191432380Y-136032619D01*
X191432380Y-135937380D01*
X191480000Y-135794523D01*
X191527619Y-135746904D01*
X192384761Y-141183809D02*
X192432380Y-141040952D01*
X192432380Y-140802857D01*
X192384761Y-140707619D01*
X192337142Y-140660000D01*
X192241904Y-140612380D01*
X192146666Y-140612380D01*
X192051428Y-140660000D01*
X192003809Y-140707619D01*
X191956190Y-140802857D01*
X191908571Y-140993333D01*
X191860952Y-141088571D01*
X191813333Y-141136190D01*
X191718095Y-141183809D01*
X191622857Y-141183809D01*
X191527619Y-141136190D01*
X191480000Y-141088571D01*
X191432380Y-140993333D01*
X191432380Y-140755238D01*
X191480000Y-140612380D01*
X192432380Y-140183809D02*
X191432380Y-140183809D01*
X191432380Y-139945714D01*
X191480000Y-139802857D01*
X191575238Y-139707619D01*
X191670476Y-139660000D01*
X191860952Y-139612380D01*
X192003809Y-139612380D01*
X192194285Y-139660000D01*
X192289523Y-139707619D01*
X192384761Y-139802857D01*
X192432380Y-139945714D01*
X192432380Y-140183809D01*
X192432380Y-139183809D02*
X191432380Y-139183809D01*
X191480000Y-144096904D02*
X191432380Y-144192142D01*
X191432380Y-144335000D01*
X191480000Y-144477857D01*
X191575238Y-144573095D01*
X191670476Y-144620714D01*
X191860952Y-144668333D01*
X192003809Y-144668333D01*
X192194285Y-144620714D01*
X192289523Y-144573095D01*
X192384761Y-144477857D01*
X192432380Y-144335000D01*
X192432380Y-144239761D01*
X192384761Y-144096904D01*
X192337142Y-144049285D01*
X192003809Y-144049285D01*
X192003809Y-144239761D01*
X192432380Y-143620714D02*
X191432380Y-143620714D01*
X192432380Y-143049285D01*
X191432380Y-143049285D01*
X192432380Y-142573095D02*
X191432380Y-142573095D01*
X191432380Y-142335000D01*
X191480000Y-142192142D01*
X191575238Y-142096904D01*
X191670476Y-142049285D01*
X191860952Y-142001666D01*
X192003809Y-142001666D01*
X192194285Y-142049285D01*
X192289523Y-142096904D01*
X192384761Y-142192142D01*
X192432380Y-142335000D01*
X192432380Y-142573095D01*
%TO.C,J1*%
X181272380Y-61753333D02*
X181986666Y-61753333D01*
X182129523Y-61800952D01*
X182224761Y-61896190D01*
X182272380Y-62039047D01*
X182272380Y-62134285D01*
X182272380Y-60753333D02*
X182272380Y-61324761D01*
X182272380Y-61039047D02*
X181272380Y-61039047D01*
X181415238Y-61134285D01*
X181510476Y-61229523D01*
X181558095Y-61324761D01*
%TO.C,U1*%
D13*
X182920666Y-126450047D02*
X182920666Y-125482428D01*
X183501238Y-126643571D02*
X181469238Y-125966238D01*
X183501238Y-125288904D01*
X181469238Y-124901857D02*
X181469238Y-123740714D01*
X183501238Y-124321285D02*
X181469238Y-124321285D01*
X183501238Y-123063380D02*
X182146571Y-123063380D01*
X182340095Y-123063380D02*
X182243333Y-122966619D01*
X182146571Y-122773095D01*
X182146571Y-122482809D01*
X182243333Y-122289285D01*
X182436857Y-122192523D01*
X183501238Y-122192523D01*
X182436857Y-122192523D02*
X182243333Y-122095761D01*
X182146571Y-121902238D01*
X182146571Y-121611952D01*
X182243333Y-121418428D01*
X182436857Y-121321666D01*
X183501238Y-121321666D01*
X183404476Y-119579952D02*
X183501238Y-119773476D01*
X183501238Y-120160523D01*
X183404476Y-120354047D01*
X183210952Y-120450809D01*
X182436857Y-120450809D01*
X182243333Y-120354047D01*
X182146571Y-120160523D01*
X182146571Y-119773476D01*
X182243333Y-119579952D01*
X182436857Y-119483190D01*
X182630380Y-119483190D01*
X182823904Y-120450809D01*
X182146571Y-117741476D02*
X183791523Y-117741476D01*
X183985047Y-117838238D01*
X184081809Y-117935000D01*
X184178571Y-118128523D01*
X184178571Y-118418809D01*
X184081809Y-118612333D01*
X183404476Y-117741476D02*
X183501238Y-117935000D01*
X183501238Y-118322047D01*
X183404476Y-118515571D01*
X183307714Y-118612333D01*
X183114190Y-118709095D01*
X182533619Y-118709095D01*
X182340095Y-118612333D01*
X182243333Y-118515571D01*
X182146571Y-118322047D01*
X182146571Y-117935000D01*
X182243333Y-117741476D01*
X183501238Y-115903000D02*
X182436857Y-115903000D01*
X182243333Y-115999761D01*
X182146571Y-116193285D01*
X182146571Y-116580333D01*
X182243333Y-116773857D01*
X183404476Y-115903000D02*
X183501238Y-116096523D01*
X183501238Y-116580333D01*
X183404476Y-116773857D01*
X183210952Y-116870619D01*
X183017428Y-116870619D01*
X182823904Y-116773857D01*
X182727142Y-116580333D01*
X182727142Y-116096523D01*
X182630380Y-115903000D01*
X181469238Y-115128904D02*
X181469238Y-113871000D01*
X182243333Y-114548333D01*
X182243333Y-114258047D01*
X182340095Y-114064523D01*
X182436857Y-113967761D01*
X182630380Y-113871000D01*
X183114190Y-113871000D01*
X183307714Y-113967761D01*
X183404476Y-114064523D01*
X183501238Y-114258047D01*
X183501238Y-114838619D01*
X183404476Y-115032142D01*
X183307714Y-115128904D01*
X181662761Y-113096904D02*
X181566000Y-113000142D01*
X181469238Y-112806619D01*
X181469238Y-112322809D01*
X181566000Y-112129285D01*
X181662761Y-112032523D01*
X181856285Y-111935761D01*
X182049809Y-111935761D01*
X182340095Y-112032523D01*
X183501238Y-113193666D01*
X183501238Y-111935761D01*
X182340095Y-110774619D02*
X182243333Y-110968142D01*
X182146571Y-111064904D01*
X181953047Y-111161666D01*
X181856285Y-111161666D01*
X181662761Y-111064904D01*
X181566000Y-110968142D01*
X181469238Y-110774619D01*
X181469238Y-110387571D01*
X181566000Y-110194047D01*
X181662761Y-110097285D01*
X181856285Y-110000523D01*
X181953047Y-110000523D01*
X182146571Y-110097285D01*
X182243333Y-110194047D01*
X182340095Y-110387571D01*
X182340095Y-110774619D01*
X182436857Y-110968142D01*
X182533619Y-111064904D01*
X182727142Y-111161666D01*
X183114190Y-111161666D01*
X183307714Y-111064904D01*
X183404476Y-110968142D01*
X183501238Y-110774619D01*
X183501238Y-110387571D01*
X183404476Y-110194047D01*
X183307714Y-110097285D01*
X183114190Y-110000523D01*
X182727142Y-110000523D01*
X182533619Y-110097285D01*
X182436857Y-110194047D01*
X182340095Y-110387571D01*
X183501238Y-109129666D02*
X181469238Y-109129666D01*
X181469238Y-108355571D01*
X181566000Y-108162047D01*
X181662761Y-108065285D01*
X181856285Y-107968523D01*
X182146571Y-107968523D01*
X182340095Y-108065285D01*
X182436857Y-108162047D01*
X182533619Y-108355571D01*
X182533619Y-109129666D01*
X182727142Y-107097666D02*
X182727142Y-105549476D01*
X183501238Y-104581857D02*
X181469238Y-104581857D01*
X181469238Y-103807761D01*
X181566000Y-103614238D01*
X181662761Y-103517476D01*
X181856285Y-103420714D01*
X182146571Y-103420714D01*
X182340095Y-103517476D01*
X182436857Y-103614238D01*
X182533619Y-103807761D01*
X182533619Y-104581857D01*
X181469238Y-102549857D02*
X183114190Y-102549857D01*
X183307714Y-102453095D01*
X183404476Y-102356333D01*
X183501238Y-102162809D01*
X183501238Y-101775761D01*
X183404476Y-101582238D01*
X183307714Y-101485476D01*
X183114190Y-101388714D01*
X181469238Y-101388714D01*
%TO.C,F1*%
D10*
X175922380Y-71436904D02*
X175922380Y-72008333D01*
X175922380Y-71722619D02*
X174922380Y-71722619D01*
X175065238Y-71817857D01*
X175160476Y-71913095D01*
X175208095Y-72008333D01*
X174922380Y-70817857D02*
X174922380Y-70722619D01*
X174970000Y-70627380D01*
X175017619Y-70579761D01*
X175112857Y-70532142D01*
X175303333Y-70484523D01*
X175541428Y-70484523D01*
X175731904Y-70532142D01*
X175827142Y-70579761D01*
X175874761Y-70627380D01*
X175922380Y-70722619D01*
X175922380Y-70817857D01*
X175874761Y-70913095D01*
X175827142Y-70960714D01*
X175731904Y-71008333D01*
X175541428Y-71055952D01*
X175303333Y-71055952D01*
X175112857Y-71008333D01*
X175017619Y-70960714D01*
X174970000Y-70913095D01*
X174922380Y-70817857D01*
X174922380Y-69865476D02*
X174922380Y-69770238D01*
X174970000Y-69675000D01*
X175017619Y-69627380D01*
X175112857Y-69579761D01*
X175303333Y-69532142D01*
X175541428Y-69532142D01*
X175731904Y-69579761D01*
X175827142Y-69627380D01*
X175874761Y-69675000D01*
X175922380Y-69770238D01*
X175922380Y-69865476D01*
X175874761Y-69960714D01*
X175827142Y-70008333D01*
X175731904Y-70055952D01*
X175541428Y-70103571D01*
X175303333Y-70103571D01*
X175112857Y-70055952D01*
X175017619Y-70008333D01*
X174970000Y-69960714D01*
X174922380Y-69865476D01*
X175922380Y-69103571D02*
X175255714Y-69103571D01*
X175350952Y-69103571D02*
X175303333Y-69055952D01*
X175255714Y-68960714D01*
X175255714Y-68817857D01*
X175303333Y-68722619D01*
X175398571Y-68675000D01*
X175922380Y-68675000D01*
X175398571Y-68675000D02*
X175303333Y-68627380D01*
X175255714Y-68532142D01*
X175255714Y-68389285D01*
X175303333Y-68294047D01*
X175398571Y-68246428D01*
X175922380Y-68246428D01*
X175636666Y-67817857D02*
X175636666Y-67341666D01*
X175922380Y-67913095D02*
X174922380Y-67579761D01*
X175922380Y-67246428D01*
%TO.C,C5*%
X175299380Y-120109285D02*
X175299380Y-120014047D01*
X175347000Y-119918809D01*
X175394619Y-119871190D01*
X175489857Y-119823571D01*
X175680333Y-119775952D01*
X175918428Y-119775952D01*
X176108904Y-119823571D01*
X176204142Y-119871190D01*
X176251761Y-119918809D01*
X176299380Y-120014047D01*
X176299380Y-120109285D01*
X176251761Y-120204523D01*
X176204142Y-120252142D01*
X176108904Y-120299761D01*
X175918428Y-120347380D01*
X175680333Y-120347380D01*
X175489857Y-120299761D01*
X175394619Y-120252142D01*
X175347000Y-120204523D01*
X175299380Y-120109285D01*
X176204142Y-119347380D02*
X176251761Y-119299761D01*
X176299380Y-119347380D01*
X176251761Y-119395000D01*
X176204142Y-119347380D01*
X176299380Y-119347380D01*
X176299380Y-118347380D02*
X176299380Y-118918809D01*
X176299380Y-118633095D02*
X175299380Y-118633095D01*
X175442238Y-118728333D01*
X175537476Y-118823571D01*
X175585095Y-118918809D01*
X175632714Y-117918809D02*
X176632714Y-117918809D01*
X176156523Y-117442619D02*
X176251761Y-117395000D01*
X176299380Y-117299761D01*
X176156523Y-117918809D02*
X176251761Y-117871190D01*
X176299380Y-117775952D01*
X176299380Y-117585476D01*
X176251761Y-117490238D01*
X176156523Y-117442619D01*
X175632714Y-117442619D01*
X175775571Y-116537857D02*
X175775571Y-116871190D01*
X176299380Y-116871190D02*
X175299380Y-116871190D01*
X175299380Y-116395000D01*
%TO.C,C4*%
X188443880Y-125182285D02*
X188443880Y-125087047D01*
X188491500Y-124991809D01*
X188539119Y-124944190D01*
X188634357Y-124896571D01*
X188824833Y-124848952D01*
X189062928Y-124848952D01*
X189253404Y-124896571D01*
X189348642Y-124944190D01*
X189396261Y-124991809D01*
X189443880Y-125087047D01*
X189443880Y-125182285D01*
X189396261Y-125277523D01*
X189348642Y-125325142D01*
X189253404Y-125372761D01*
X189062928Y-125420380D01*
X188824833Y-125420380D01*
X188634357Y-125372761D01*
X188539119Y-125325142D01*
X188491500Y-125277523D01*
X188443880Y-125182285D01*
X189348642Y-124420380D02*
X189396261Y-124372761D01*
X189443880Y-124420380D01*
X189396261Y-124468000D01*
X189348642Y-124420380D01*
X189443880Y-124420380D01*
X189443880Y-123420380D02*
X189443880Y-123991809D01*
X189443880Y-123706095D02*
X188443880Y-123706095D01*
X188586738Y-123801333D01*
X188681976Y-123896571D01*
X188729595Y-123991809D01*
X188777214Y-122991809D02*
X189777214Y-122991809D01*
X189301023Y-122515619D02*
X189396261Y-122468000D01*
X189443880Y-122372761D01*
X189301023Y-122991809D02*
X189396261Y-122944190D01*
X189443880Y-122848952D01*
X189443880Y-122658476D01*
X189396261Y-122563238D01*
X189301023Y-122515619D01*
X188777214Y-122515619D01*
X188920071Y-121610857D02*
X188920071Y-121944190D01*
X189443880Y-121944190D02*
X188443880Y-121944190D01*
X188443880Y-121468000D01*
%TO.C,C3*%
X191765714Y-71151190D02*
X192432380Y-71151190D01*
X191384761Y-71389285D02*
X192099047Y-71627380D01*
X192099047Y-71008333D01*
X192337142Y-70627380D02*
X192384761Y-70579761D01*
X192432380Y-70627380D01*
X192384761Y-70675000D01*
X192337142Y-70627380D01*
X192432380Y-70627380D01*
X191432380Y-70246428D02*
X191432380Y-69579761D01*
X192432380Y-70008333D01*
X191765714Y-69198809D02*
X192765714Y-69198809D01*
X192289523Y-68722619D02*
X192384761Y-68675000D01*
X192432380Y-68579761D01*
X192289523Y-69198809D02*
X192384761Y-69151190D01*
X192432380Y-69055952D01*
X192432380Y-68865476D01*
X192384761Y-68770238D01*
X192289523Y-68722619D01*
X191765714Y-68722619D01*
X191908571Y-67817857D02*
X191908571Y-68151190D01*
X192432380Y-68151190D02*
X191432380Y-68151190D01*
X191432380Y-67675000D01*
%TO.C,C2*%
X190867219Y-122196857D02*
X190819600Y-122149238D01*
X190771980Y-122054000D01*
X190771980Y-121815904D01*
X190819600Y-121720666D01*
X190867219Y-121673047D01*
X190962457Y-121625428D01*
X191057695Y-121625428D01*
X191200552Y-121673047D01*
X191771980Y-122244476D01*
X191771980Y-121625428D01*
X190867219Y-121244476D02*
X190819600Y-121196857D01*
X190771980Y-121101619D01*
X190771980Y-120863523D01*
X190819600Y-120768285D01*
X190867219Y-120720666D01*
X190962457Y-120673047D01*
X191057695Y-120673047D01*
X191200552Y-120720666D01*
X191771980Y-121292095D01*
X191771980Y-120673047D01*
X191105314Y-120244476D02*
X192105314Y-120244476D01*
X191152933Y-120244476D02*
X191105314Y-120149238D01*
X191105314Y-119958761D01*
X191152933Y-119863523D01*
X191200552Y-119815904D01*
X191295790Y-119768285D01*
X191581504Y-119768285D01*
X191676742Y-119815904D01*
X191724361Y-119863523D01*
X191771980Y-119958761D01*
X191771980Y-120149238D01*
X191724361Y-120244476D01*
X191248171Y-119006380D02*
X191248171Y-119339714D01*
X191771980Y-119339714D02*
X190771980Y-119339714D01*
X190771980Y-118863523D01*
%TO.C,C1*%
X188207619Y-99872857D02*
X188160000Y-99825238D01*
X188112380Y-99730000D01*
X188112380Y-99491904D01*
X188160000Y-99396666D01*
X188207619Y-99349047D01*
X188302857Y-99301428D01*
X188398095Y-99301428D01*
X188540952Y-99349047D01*
X189112380Y-99920476D01*
X189112380Y-99301428D01*
X188207619Y-98920476D02*
X188160000Y-98872857D01*
X188112380Y-98777619D01*
X188112380Y-98539523D01*
X188160000Y-98444285D01*
X188207619Y-98396666D01*
X188302857Y-98349047D01*
X188398095Y-98349047D01*
X188540952Y-98396666D01*
X189112380Y-98968095D01*
X189112380Y-98349047D01*
X188445714Y-97920476D02*
X189445714Y-97920476D01*
X188493333Y-97920476D02*
X188445714Y-97825238D01*
X188445714Y-97634761D01*
X188493333Y-97539523D01*
X188540952Y-97491904D01*
X188636190Y-97444285D01*
X188921904Y-97444285D01*
X189017142Y-97491904D01*
X189064761Y-97539523D01*
X189112380Y-97634761D01*
X189112380Y-97825238D01*
X189064761Y-97920476D01*
X188588571Y-96682380D02*
X188588571Y-97015714D01*
X189112380Y-97015714D02*
X188112380Y-97015714D01*
X188112380Y-96539523D01*
%TD*%
M02*
